<svg width="420" height="279" viewBox="0 0 420 279" fill="none" xmlns="http://www.w3.org/2000/svg">
<g filter="url(#filter0_d)">
<rect x="5" y="5" width="400" height="259" rx="24" fill="url(#paint0_linear)"/>
<path d="M328.972 57.5L350.492 35.9793L372.013 57.5L350.492 79.0207L328.972 57.5Z" fill="#629F8B"/>
<path d="M372.024 57.5L350.5 35.9761V79.024L372.024 57.5Z" fill="#3A6F5D"/>
<path d="M386 57.5C386 58.0408 385.792 58.5816 385.376 58.9559L351.956 92.3758C351.582 92.792 351.041 93 350.5 93L346.34 81.4209L350.5 73.1422L366.142 57.5L373.811 53.3398L386 57.5Z" fill="#092D21"/>
<path d="M350.5 22L354.66 33.5791L350.5 41.8578L334.858 57.5L325.23 61.6602L315 57.5C315 56.9592 315.208 56.4184 315.624 56.0441L349.044 22.6242C349.418 22.208 349.959 22 350.5 22V22Z" fill="#357761"/>
<path d="M350.5 73.1422V93C349.959 93 349.418 92.792 349.044 92.3758L315.624 58.9559C315.208 58.5816 315 58.0408 315 57.5H334.858L350.5 73.1422Z" fill="#205543"/>
<path d="M386 57.5H366.142L350.5 41.8578V22C351.041 22 351.582 22.208 351.956 22.6242L385.376 56.0441C385.792 56.4184 386 56.9592 386 57.5Z" fill="#205543"/>
<path d="M29.4004 141.859V110.141H79.5996V141.859H29.4004Z" fill="#F1E8A8"/>
<path d="M54.5 110.141H79.5996V141.859H54.5V110.141Z" fill="#EFD161"/>
<path d="M79.5996 108.441H29.4004C28.2516 108.441 27.3203 109.202 27.3203 110.141V141.859C27.3203 142.798 28.2516 143.559 29.4004 143.559H79.5996C80.7484 143.559 81.6797 142.798 81.6797 141.859V110.141C81.6797 109.202 80.7484 108.441 79.5996 108.441ZM48.1211 131.098V120.902H60.8789V131.098H48.1211ZM43.9609 119.203V124.301H31.4805V118.637H43.9609V119.203ZM31.4805 127.699H43.9609V132.797V133.363H31.4805V127.699ZM65.0391 119.203V118.637H77.5195V124.301H65.0391V119.203ZM65.0391 132.797V127.699H77.5195V133.363H65.0391V132.797ZM77.5195 115.238H62.959C61.8102 115.238 60.8789 115.999 60.8789 116.938V117.504H56.5801V114.243L59.5217 111.84H77.5195V115.238ZM53.6384 111.84L53.0291 112.338C52.639 112.656 52.4199 113.088 52.4199 113.539V117.504H48.1211V116.938C48.1211 115.999 47.1898 115.238 46.041 115.238H31.4805V111.84H53.6384ZM31.4805 136.762H46.041C47.1898 136.762 48.1211 136.001 48.1211 135.062V134.496H52.4199V137.757L49.4783 140.16H31.4805V136.762ZM55.3616 140.16L55.9709 139.662C56.361 139.344 56.5801 138.912 56.5801 138.461V134.496H60.8789V135.062C60.8789 136.001 61.8102 136.762 62.959 136.762H77.5195V140.16H55.3616Z" fill="#DBB72D"/>
<path d="M79.5996 108.441H54.5V120.902H60.8789V131.098H54.5V143.559H79.5996C80.7484 143.559 81.6797 142.798 81.6797 141.859V110.141C81.6797 109.202 80.7484 108.441 79.5996 108.441ZM77.5195 140.16H55.3616L55.9709 139.662C56.361 139.344 56.5801 138.912 56.5801 138.461V134.496H60.8789V135.062C60.8789 136.001 61.8102 136.762 62.959 136.762H77.5195V140.16ZM77.5195 133.363H65.0391V132.797V127.699H77.5195V133.363ZM77.5195 124.301H65.0391V119.203V118.637H77.5195V124.301ZM77.5195 115.238H62.959C61.8102 115.238 60.8789 115.999 60.8789 116.938V117.504H56.5801V114.243L59.5217 111.84H77.5195V115.238Z" fill="#CEA534"/>
<path d="M36.244 29.744C35.476 29.744 34.684 29.684 33.868 29.564C33.076 29.42 32.272 29.264 31.456 29.096V37.34H36.784V39.464H31.456V53H27.568V28.448C27.448 28.424 27.328 28.412 27.208 28.412C27.112 28.412 27.004 28.412 26.884 28.412C26.26 28.412 25.672 28.496 25.12 28.664C24.568 28.832 24.088 29.12 23.68 29.528C23.296 29.936 22.984 30.488 22.744 31.184C22.528 31.856 22.42 32.708 22.42 33.74C22.42 35.036 22.576 36.128 22.888 37.016C23.224 37.88 23.608 38.492 24.04 38.852C21.184 38.852 19.756 37.28 19.756 34.136C19.756 32.984 19.948 31.916 20.332 30.932C20.716 29.948 21.316 29.096 22.132 28.376C22.948 27.632 23.98 27.056 25.228 26.648C26.5 26.216 28.012 26 29.764 26C30.364 26 30.928 26.024 31.456 26.072C32.008 26.12 32.536 26.168 33.04 26.216C33.544 26.264 34.06 26.312 34.588 26.36C35.116 26.408 35.68 26.432 36.28 26.432C36.88 26.432 37.444 26.408 37.972 26.36C38.5 26.288 39.004 26.168 39.484 26C39.436 26.84 39.316 27.512 39.124 28.016C38.956 28.496 38.728 28.868 38.44 29.132C38.152 29.372 37.816 29.54 37.432 29.636C37.072 29.708 36.676 29.744 36.244 29.744ZM46.0256 35V47.24C46.0256 47.48 46.0376 47.78 46.0616 48.14C46.0856 48.5 46.1456 48.86 46.2416 49.22C46.3616 49.556 46.5296 49.856 46.7456 50.12C46.9616 50.36 47.2616 50.48 47.6456 50.48C48.8216 50.48 49.6856 49.172 50.2376 46.556H51.5696C51.3056 48.068 50.9696 49.268 50.5616 50.156C50.1536 51.02 49.7216 51.68 49.2656 52.136C48.8096 52.592 48.3416 52.88 47.8616 53C47.3816 53.144 46.9496 53.216 46.5656 53.216C45.7256 53.216 45.0416 53.06 44.5136 52.748C43.9856 52.412 43.5656 51.992 43.2536 51.488C42.9416 50.984 42.7256 50.42 42.6056 49.796C42.4856 49.172 42.4256 48.572 42.4256 47.996V35H46.0256ZM41.7776 29.816C41.7776 29.168 42.0056 28.604 42.4616 28.124C42.9176 27.644 43.4816 27.404 44.1536 27.404C44.8016 27.404 45.3656 27.644 45.8456 28.124C46.3256 28.604 46.5656 29.168 46.5656 29.816C46.5656 30.488 46.3256 31.052 45.8456 31.508C45.3656 31.964 44.8016 32.192 44.1536 32.192C43.4816 32.192 42.9176 31.964 42.4616 31.508C42.0056 31.052 41.7776 30.488 41.7776 29.816ZM56.3143 35V37.736C56.6743 37.088 57.0343 36.572 57.3943 36.188C57.7783 35.78 58.1623 35.48 58.5463 35.288C58.9303 35.096 59.2903 34.976 59.6263 34.928C59.9863 34.856 60.3223 34.82 60.6343 34.82C61.7143 34.82 62.5783 35.024 63.2263 35.432C63.8983 35.84 64.4023 36.368 64.7383 37.016C65.0743 37.64 65.2903 38.336 65.3863 39.104C65.5063 39.872 65.5663 40.616 65.5663 41.336C65.5663 42.128 65.5303 43.088 65.4583 44.216C65.4103 45.344 65.3863 46.436 65.3863 47.492C65.3863 47.732 65.3983 48.02 65.4223 48.356C65.4463 48.692 65.5183 49.016 65.6383 49.328C65.7583 49.64 65.9383 49.916 66.1783 50.156C66.4183 50.372 66.7663 50.48 67.2223 50.48C67.3903 50.48 67.5943 50.468 67.8343 50.444C68.0743 50.396 68.2543 50.312 68.3743 50.192V50.444C68.3743 51.092 68.2903 51.596 68.1223 51.956C67.9543 52.316 67.7503 52.592 67.5103 52.784C67.2703 52.976 67.0063 53.096 66.7183 53.144C66.4303 53.192 66.1783 53.216 65.9623 53.216C65.2183 53.216 64.5823 53.072 64.0543 52.784C63.5263 52.472 63.0823 52.064 62.7223 51.56C62.3863 51.056 62.1343 50.48 61.9663 49.832C61.8223 49.16 61.7503 48.452 61.7503 47.708C61.7503 47.492 61.7503 47.096 61.7503 46.52C61.7743 45.92 61.7863 45.284 61.7863 44.612C61.8103 43.94 61.8223 43.304 61.8223 42.704C61.8463 42.104 61.8583 41.684 61.8583 41.444C61.8583 40.676 61.7983 40.04 61.6783 39.536C61.5583 39.032 61.3903 38.636 61.1743 38.348C60.9583 38.06 60.7063 37.856 60.4183 37.736C60.1543 37.616 59.8663 37.556 59.5543 37.556C58.8103 37.556 58.1623 37.856 57.6103 38.456C57.0823 39.056 56.6503 40.064 56.3143 41.48V53H52.7143V35H56.3143ZM83.1503 29.384V41.624C84.2063 41.624 85.1063 41.408 85.8503 40.976C86.6183 40.52 87.2423 39.944 87.7223 39.248C88.2023 38.552 88.5503 37.772 88.7663 36.908C89.0063 36.02 89.1263 35.144 89.1263 34.28C89.1263 33.512 89.0423 32.72 88.8743 31.904C88.7303 31.088 88.4063 30.344 87.9023 29.672C87.3983 28.976 86.6783 28.412 85.7423 27.98C84.8063 27.524 83.5583 27.296 81.9983 27.296C80.9423 27.296 79.9463 27.464 79.0103 27.8C78.0743 28.112 77.2583 28.58 76.5623 29.204C75.8903 29.804 75.3503 30.56 74.9423 31.472C74.5583 32.36 74.3663 33.392 74.3663 34.568C74.3663 35.312 74.4263 35.936 74.5463 36.44C74.6663 36.944 74.8103 37.364 74.9783 37.7C75.1463 38.036 75.3143 38.3 75.4823 38.492C75.6503 38.66 75.7823 38.78 75.8783 38.852C74.5343 38.852 73.4783 38.516 72.7103 37.844C71.9423 37.172 71.5583 36.056 71.5583 34.496C71.5583 33.344 71.8583 32.264 72.4583 31.256C73.0583 30.224 73.8623 29.324 74.8703 28.556C75.8783 27.764 77.0423 27.14 78.3623 26.684C79.6823 26.228 81.0743 26 82.5383 26C84.1223 26 85.5383 26.204 86.7863 26.612C88.0343 26.996 89.0783 27.548 89.9183 28.268C90.7583 28.964 91.3943 29.78 91.8263 30.716C92.2823 31.652 92.5103 32.66 92.5103 33.74C92.5103 34.748 92.3303 35.792 91.9703 36.872C91.6103 37.928 91.0703 38.888 90.3503 39.752C89.6303 40.616 88.7303 41.336 87.6503 41.912C86.5943 42.464 85.3583 42.74 83.9423 42.74H83.1503V53H79.2623V29.924L83.1503 29.384ZM108.076 35V47.24C108.076 47.48 108.088 47.78 108.112 48.14C108.136 48.5 108.196 48.86 108.292 49.22C108.412 49.556 108.58 49.856 108.796 50.12C109.012 50.36 109.312 50.48 109.696 50.48C110.872 50.48 111.736 49.172 112.288 46.556H113.62C113.356 48.068 113.02 49.268 112.612 50.156C112.204 51.02 111.772 51.68 111.316 52.136C110.86 52.592 110.392 52.88 109.912 53C109.432 53.144 109 53.216 108.616 53.216C108.064 53.216 107.584 53.12 107.176 52.928C106.792 52.736 106.456 52.484 106.168 52.172C105.904 51.86 105.688 51.5 105.52 51.092C105.352 50.684 105.22 50.252 105.124 49.796C104.764 50.732 104.176 51.536 103.36 52.208C102.568 52.88 101.596 53.216 100.444 53.216C99.7241 53.216 98.9921 53.072 98.2481 52.784C97.5281 52.496 96.8681 52.028 96.2681 51.38C95.6921 50.708 95.2121 49.856 94.8281 48.824C94.4681 47.768 94.2881 46.484 94.2881 44.972C94.2881 43.868 94.4081 42.716 94.6481 41.516C94.9121 40.316 95.3201 39.224 95.8721 38.24C96.4241 37.256 97.1321 36.44 97.9961 35.792C98.8601 35.144 99.9041 34.82 101.128 34.82C101.416 34.82 101.716 34.856 102.028 34.928C102.364 34.976 102.676 35.072 102.964 35.216C103.276 35.36 103.564 35.564 103.828 35.828C104.092 36.068 104.308 36.368 104.476 36.728V35H108.076ZM101.344 50.48C101.704 50.48 102.064 50.384 102.424 50.192C102.808 49.976 103.144 49.7 103.432 49.364C103.744 49.004 103.996 48.584 104.188 48.104C104.38 47.624 104.476 47.108 104.476 46.556V38.348C104.308 37.964 104.044 37.616 103.684 37.304C103.348 36.968 102.904 36.8 102.352 36.8C101.584 36.8 100.924 37.064 100.372 37.592C99.8201 38.096 99.3761 38.744 99.0401 39.536C98.7041 40.304 98.4521 41.156 98.2841 42.092C98.1401 43.004 98.0681 43.88 98.0681 44.72C98.0681 46.784 98.3441 48.26 98.8961 49.148C99.4721 50.036 100.288 50.48 101.344 50.48ZM117.701 27.8V47.24C117.701 47.528 117.701 47.864 117.701 48.248C117.725 48.608 117.785 48.956 117.881 49.292C118.001 49.628 118.157 49.916 118.349 50.156C118.565 50.372 118.877 50.48 119.285 50.48C119.477 50.48 119.705 50.456 119.969 50.408C120.257 50.36 120.473 50.312 120.617 50.264C120.641 50.384 120.653 50.492 120.653 50.588C120.677 50.684 120.689 50.792 120.689 50.912C120.689 51.32 120.593 51.68 120.401 51.992C120.233 52.28 120.005 52.52 119.717 52.712C119.429 52.88 119.105 53 118.745 53.072C118.385 53.168 118.025 53.216 117.665 53.216C116.945 53.216 116.357 53.072 115.901 52.784C115.445 52.472 115.073 52.076 114.785 51.596C114.521 51.092 114.341 50.54 114.245 49.94C114.149 49.34 114.101 48.74 114.101 48.14V28.304L117.701 27.8Z" fill="white"/>
</g>
<defs>
<filter id="filter0_d" x="0" y="0" width="420" height="279" filterUnits="userSpaceOnUse" color-interpolation-filters="sRGB">
<feFlood flood-opacity="0" result="BackgroundImageFix"/>
<feColorMatrix in="SourceAlpha" type="matrix" values="0 0 0 0 0 0 0 0 0 0 0 0 0 0 0 0 0 0 127 0"/>
<feOffset dx="5" dy="5"/>
<feGaussianBlur stdDeviation="5"/>
<feColorMatrix type="matrix" values="0 0 0 0 0 0 0 0 0 0 0 0 0 0 0 0 0 0 0.3 0"/>
<feBlend mode="normal" in2="BackgroundImageFix" result="effect1_dropShadow"/>
<feBlend mode="normal" in="SourceGraphic" in2="effect1_dropShadow" result="shape"/>
</filter>
<linearGradient id="paint0_linear" x1="187.5" y1="189" x2="413" y2="5.00001" gradientUnits="userSpaceOnUse">
<stop stop-color="#092D21"/>
<stop offset="1" stop-color="#4EDADA"/>
</linearGradient>
</defs>
</svg>
