<svg width="400" height="259" viewBox="0 0 400 259" fill="none" xmlns="http://www.w3.org/2000/svg">
<rect width="400" height="259" rx="24" fill="url(#paint0_linear)"/>
<path d="M323.972 52.5L345.492 30.9793L367.013 52.5L345.492 74.0207L323.972 52.5Z" fill="#629F8B"/>
<path d="M367.024 52.5L345.5 30.9761V74.024L367.024 52.5Z" fill="#3A6F5D"/>
<path d="M381 52.5C381 53.0408 380.792 53.5816 380.376 53.9559L346.956 87.3758C346.582 87.792 346.041 88 345.5 88L341.34 76.4209L345.5 68.1422L361.142 52.5L368.811 48.3398L381 52.5Z" fill="#092D21"/>
<path d="M345.5 17L349.66 28.5791L345.5 36.8578L329.858 52.5L320.23 56.6602L310 52.5C310 51.9592 310.208 51.4184 310.624 51.0441L344.044 17.6242C344.418 17.208 344.959 17 345.5 17V17Z" fill="#357761"/>
<path d="M345.5 68.1422V88C344.959 88 344.418 87.792 344.044 87.3758L310.624 53.9559C310.208 53.5816 310 53.0408 310 52.5H329.858L345.5 68.1422Z" fill="#205543"/>
<path d="M381 52.5H361.142L345.5 36.8578V17C346.041 17 346.582 17.208 346.956 17.6242L380.376 51.0441C380.792 51.4184 381 51.9592 381 52.5Z" fill="#205543"/>
<path d="M24.4004 136.859V105.141H74.5996V136.859H24.4004Z" fill="#F1E8A8"/>
<path d="M49.5 105.141H74.5996V136.859H49.5V105.141Z" fill="#EFD161"/>
<path d="M74.5996 103.441H24.4004C23.2516 103.441 22.3203 104.202 22.3203 105.141V136.859C22.3203 137.798 23.2516 138.559 24.4004 138.559H74.5996C75.7484 138.559 76.6797 137.798 76.6797 136.859V105.141C76.6797 104.202 75.7484 103.441 74.5996 103.441ZM43.1211 126.098V115.902H55.8789V126.098H43.1211ZM38.9609 114.203V119.301H26.4805V113.637H38.9609V114.203ZM26.4805 122.699H38.9609V127.797V128.363H26.4805V122.699ZM60.0391 114.203V113.637H72.5195V119.301H60.0391V114.203ZM60.0391 127.797V122.699H72.5195V128.363H60.0391V127.797ZM72.5195 110.238H57.959C56.8102 110.238 55.8789 110.999 55.8789 111.938V112.504H51.5801V109.243L54.5217 106.84H72.5195V110.238ZM48.6384 106.84L48.0291 107.338C47.639 107.656 47.4199 108.088 47.4199 108.539V112.504H43.1211V111.938C43.1211 110.999 42.1898 110.238 41.041 110.238H26.4805V106.84H48.6384ZM26.4805 131.762H41.041C42.1898 131.762 43.1211 131.001 43.1211 130.062V129.496H47.4199V132.757L44.4783 135.16H26.4805V131.762ZM50.3616 135.16L50.9709 134.662C51.361 134.344 51.5801 133.912 51.5801 133.461V129.496H55.8789V130.062C55.8789 131.001 56.8102 131.762 57.959 131.762H72.5195V135.16H50.3616Z" fill="#DBB72D"/>
<path d="M74.5996 103.441H49.5V115.902H55.8789V126.098H49.5V138.559H74.5996C75.7484 138.559 76.6797 137.798 76.6797 136.859V105.141C76.6797 104.202 75.7484 103.441 74.5996 103.441ZM72.5195 135.16H50.3616L50.9709 134.662C51.361 134.344 51.5801 133.912 51.5801 133.461V129.496H55.8789V130.062C55.8789 131.001 56.8102 131.762 57.959 131.762H72.5195V135.16ZM72.5195 128.363H60.0391V127.797V122.699H72.5195V128.363ZM72.5195 119.301H60.0391V114.203V113.637H72.5195V119.301ZM72.5195 110.238H57.959C56.8102 110.238 55.8789 110.999 55.8789 111.938V112.504H51.5801V109.243L54.5217 106.84H72.5195V110.238Z" fill="#CEA534"/>
<path d="M31.244 24.744C30.476 24.744 29.684 24.684 28.868 24.564C28.076 24.42 27.272 24.264 26.456 24.096V32.34H31.784V34.464H26.456V48H22.568V23.448C22.448 23.424 22.328 23.412 22.208 23.412C22.112 23.412 22.004 23.412 21.884 23.412C21.26 23.412 20.672 23.496 20.12 23.664C19.568 23.832 19.088 24.12 18.68 24.528C18.296 24.936 17.984 25.488 17.744 26.184C17.528 26.856 17.42 27.708 17.42 28.74C17.42 30.036 17.576 31.128 17.888 32.016C18.224 32.88 18.608 33.492 19.04 33.852C16.184 33.852 14.756 32.28 14.756 29.136C14.756 27.984 14.948 26.916 15.332 25.932C15.716 24.948 16.316 24.096 17.132 23.376C17.948 22.632 18.98 22.056 20.228 21.648C21.5 21.216 23.012 21 24.764 21C25.364 21 25.928 21.024 26.456 21.072C27.008 21.12 27.536 21.168 28.04 21.216C28.544 21.264 29.06 21.312 29.588 21.36C30.116 21.408 30.68 21.432 31.28 21.432C31.88 21.432 32.444 21.408 32.972 21.36C33.5 21.288 34.004 21.168 34.484 21C34.436 21.84 34.316 22.512 34.124 23.016C33.956 23.496 33.728 23.868 33.44 24.132C33.152 24.372 32.816 24.54 32.432 24.636C32.072 24.708 31.676 24.744 31.244 24.744ZM41.0256 30V42.24C41.0256 42.48 41.0376 42.78 41.0616 43.14C41.0856 43.5 41.1456 43.86 41.2416 44.22C41.3616 44.556 41.5296 44.856 41.7456 45.12C41.9616 45.36 42.2616 45.48 42.6456 45.48C43.8216 45.48 44.6856 44.172 45.2376 41.556H46.5696C46.3056 43.068 45.9696 44.268 45.5616 45.156C45.1536 46.02 44.7216 46.68 44.2656 47.136C43.8096 47.592 43.3416 47.88 42.8616 48C42.3816 48.144 41.9496 48.216 41.5656 48.216C40.7256 48.216 40.0416 48.06 39.5136 47.748C38.9856 47.412 38.5656 46.992 38.2536 46.488C37.9416 45.984 37.7256 45.42 37.6056 44.796C37.4856 44.172 37.4256 43.572 37.4256 42.996V30H41.0256ZM36.7776 24.816C36.7776 24.168 37.0056 23.604 37.4616 23.124C37.9176 22.644 38.4816 22.404 39.1536 22.404C39.8016 22.404 40.3656 22.644 40.8456 23.124C41.3256 23.604 41.5656 24.168 41.5656 24.816C41.5656 25.488 41.3256 26.052 40.8456 26.508C40.3656 26.964 39.8016 27.192 39.1536 27.192C38.4816 27.192 37.9176 26.964 37.4616 26.508C37.0056 26.052 36.7776 25.488 36.7776 24.816ZM51.3143 30V32.736C51.6743 32.088 52.0343 31.572 52.3943 31.188C52.7783 30.78 53.1623 30.48 53.5463 30.288C53.9303 30.096 54.2903 29.976 54.6263 29.928C54.9863 29.856 55.3223 29.82 55.6343 29.82C56.7143 29.82 57.5783 30.024 58.2263 30.432C58.8983 30.84 59.4023 31.368 59.7383 32.016C60.0743 32.64 60.2903 33.336 60.3863 34.104C60.5063 34.872 60.5663 35.616 60.5663 36.336C60.5663 37.128 60.5303 38.088 60.4583 39.216C60.4103 40.344 60.3863 41.436 60.3863 42.492C60.3863 42.732 60.3983 43.02 60.4223 43.356C60.4463 43.692 60.5183 44.016 60.6383 44.328C60.7583 44.64 60.9383 44.916 61.1783 45.156C61.4183 45.372 61.7663 45.48 62.2223 45.48C62.3903 45.48 62.5943 45.468 62.8343 45.444C63.0743 45.396 63.2543 45.312 63.3743 45.192V45.444C63.3743 46.092 63.2903 46.596 63.1223 46.956C62.9543 47.316 62.7503 47.592 62.5103 47.784C62.2703 47.976 62.0063 48.096 61.7183 48.144C61.4303 48.192 61.1783 48.216 60.9623 48.216C60.2183 48.216 59.5823 48.072 59.0543 47.784C58.5263 47.472 58.0823 47.064 57.7223 46.56C57.3863 46.056 57.1343 45.48 56.9663 44.832C56.8223 44.16 56.7503 43.452 56.7503 42.708C56.7503 42.492 56.7503 42.096 56.7503 41.52C56.7743 40.92 56.7863 40.284 56.7863 39.612C56.8103 38.94 56.8223 38.304 56.8223 37.704C56.8463 37.104 56.8583 36.684 56.8583 36.444C56.8583 35.676 56.7983 35.04 56.6783 34.536C56.5583 34.032 56.3903 33.636 56.1743 33.348C55.9583 33.06 55.7063 32.856 55.4183 32.736C55.1543 32.616 54.8663 32.556 54.5543 32.556C53.8103 32.556 53.1623 32.856 52.6103 33.456C52.0823 34.056 51.6503 35.064 51.3143 36.48V48H47.7143V30H51.3143ZM78.1503 24.384V36.624C79.2063 36.624 80.1063 36.408 80.8503 35.976C81.6183 35.52 82.2423 34.944 82.7223 34.248C83.2023 33.552 83.5503 32.772 83.7663 31.908C84.0063 31.02 84.1263 30.144 84.1263 29.28C84.1263 28.512 84.0423 27.72 83.8743 26.904C83.7303 26.088 83.4063 25.344 82.9023 24.672C82.3983 23.976 81.6783 23.412 80.7423 22.98C79.8063 22.524 78.5583 22.296 76.9983 22.296C75.9423 22.296 74.9463 22.464 74.0103 22.8C73.0743 23.112 72.2583 23.58 71.5623 24.204C70.8903 24.804 70.3503 25.56 69.9423 26.472C69.5583 27.36 69.3663 28.392 69.3663 29.568C69.3663 30.312 69.4263 30.936 69.5463 31.44C69.6663 31.944 69.8103 32.364 69.9783 32.7C70.1463 33.036 70.3143 33.3 70.4823 33.492C70.6503 33.66 70.7823 33.78 70.8783 33.852C69.5343 33.852 68.4783 33.516 67.7103 32.844C66.9423 32.172 66.5583 31.056 66.5583 29.496C66.5583 28.344 66.8583 27.264 67.4583 26.256C68.0583 25.224 68.8623 24.324 69.8703 23.556C70.8783 22.764 72.0423 22.14 73.3623 21.684C74.6823 21.228 76.0743 21 77.5383 21C79.1223 21 80.5383 21.204 81.7863 21.612C83.0343 21.996 84.0783 22.548 84.9183 23.268C85.7583 23.964 86.3943 24.78 86.8263 25.716C87.2823 26.652 87.5103 27.66 87.5103 28.74C87.5103 29.748 87.3303 30.792 86.9703 31.872C86.6103 32.928 86.0703 33.888 85.3503 34.752C84.6303 35.616 83.7303 36.336 82.6503 36.912C81.5943 37.464 80.3583 37.74 78.9423 37.74H78.1503V48H74.2623V24.924L78.1503 24.384ZM103.076 30V42.24C103.076 42.48 103.088 42.78 103.112 43.14C103.136 43.5 103.196 43.86 103.292 44.22C103.412 44.556 103.58 44.856 103.796 45.12C104.012 45.36 104.312 45.48 104.696 45.48C105.872 45.48 106.736 44.172 107.288 41.556H108.62C108.356 43.068 108.02 44.268 107.612 45.156C107.204 46.02 106.772 46.68 106.316 47.136C105.86 47.592 105.392 47.88 104.912 48C104.432 48.144 104 48.216 103.616 48.216C103.064 48.216 102.584 48.12 102.176 47.928C101.792 47.736 101.456 47.484 101.168 47.172C100.904 46.86 100.688 46.5 100.52 46.092C100.352 45.684 100.22 45.252 100.124 44.796C99.7641 45.732 99.1761 46.536 98.3601 47.208C97.5681 47.88 96.5961 48.216 95.4441 48.216C94.7241 48.216 93.9921 48.072 93.2481 47.784C92.5281 47.496 91.8681 47.028 91.2681 46.38C90.6921 45.708 90.2121 44.856 89.8281 43.824C89.4681 42.768 89.2881 41.484 89.2881 39.972C89.2881 38.868 89.4081 37.716 89.6481 36.516C89.9121 35.316 90.3201 34.224 90.8721 33.24C91.4241 32.256 92.1321 31.44 92.9961 30.792C93.8601 30.144 94.9041 29.82 96.1281 29.82C96.4161 29.82 96.7161 29.856 97.0281 29.928C97.3641 29.976 97.6761 30.072 97.9641 30.216C98.2761 30.36 98.5641 30.564 98.8281 30.828C99.0921 31.068 99.3081 31.368 99.4761 31.728V30H103.076ZM96.3441 45.48C96.7041 45.48 97.0641 45.384 97.4241 45.192C97.8081 44.976 98.1441 44.7 98.4321 44.364C98.7441 44.004 98.9961 43.584 99.1881 43.104C99.3801 42.624 99.4761 42.108 99.4761 41.556V33.348C99.3081 32.964 99.0441 32.616 98.6841 32.304C98.3481 31.968 97.9041 31.8 97.3521 31.8C96.5841 31.8 95.9241 32.064 95.3721 32.592C94.8201 33.096 94.3761 33.744 94.0401 34.536C93.7041 35.304 93.4521 36.156 93.2841 37.092C93.1401 38.004 93.0681 38.88 93.0681 39.72C93.0681 41.784 93.3441 43.26 93.8961 44.148C94.4721 45.036 95.2881 45.48 96.3441 45.48ZM112.701 22.8V42.24C112.701 42.528 112.701 42.864 112.701 43.248C112.725 43.608 112.785 43.956 112.881 44.292C113.001 44.628 113.157 44.916 113.349 45.156C113.565 45.372 113.877 45.48 114.285 45.48C114.477 45.48 114.705 45.456 114.969 45.408C115.257 45.36 115.473 45.312 115.617 45.264C115.641 45.384 115.653 45.492 115.653 45.588C115.677 45.684 115.689 45.792 115.689 45.912C115.689 46.32 115.593 46.68 115.401 46.992C115.233 47.28 115.005 47.52 114.717 47.712C114.429 47.88 114.105 48 113.745 48.072C113.385 48.168 113.025 48.216 112.665 48.216C111.945 48.216 111.357 48.072 110.901 47.784C110.445 47.472 110.073 47.076 109.785 46.596C109.521 46.092 109.341 45.54 109.245 44.94C109.149 44.34 109.101 43.74 109.101 43.14V23.304L112.701 22.8Z" fill="white"/>
<defs>
<linearGradient id="paint0_linear" x1="182.5" y1="184" x2="408" y2="1.48648e-05" gradientUnits="userSpaceOnUse">
<stop stop-color="#092D21"/>
<stop offset="1" stop-color="#4EDADA"/>
</linearGradient>
</defs>
</svg>
