<svg width="71" height="71" viewBox="0 0 71 71" fill="none" xmlns="http://www.w3.org/2000/svg">
<path d="M13.9718 35.5L35.4925 13.9793L57.0132 35.5L35.4925 57.0207L13.9718 35.5Z" fill="#89E3D2"/>
<path d="M57.024 35.5L35.5 13.976V57.0239L57.024 35.5Z" fill="#6CC7B5"/>
<path d="M71 35.5C71 36.0408 70.792 36.5816 70.3758 36.9559L36.9559 70.3758C36.5816 70.792 36.0408 71 35.5 71L31.3398 59.4209L35.5 51.1422L51.1422 35.5L58.8114 31.3398L71 35.5Z" fill="#16A085"/>
<path d="M35.5 0L39.6602 11.5791L35.5 19.8578L19.8578 35.5L10.2302 39.6602L0 35.5C0 34.9592 0.208008 34.4184 0.624162 34.0441L34.0441 0.624162C34.4184 0.208008 34.9592 0 35.5 0V0Z" fill="#6CC7B5"/>
<path d="M35.5 51.1422V71C34.9592 71 34.4184 70.792 34.0441 70.3758L0.624162 36.9559C0.208008 36.5816 0 36.0408 0 35.5H19.8578L35.5 51.1422Z" fill="#47B9A3"/>
<path d="M71 35.5H51.1422L35.5 19.8578V0C36.0408 0 36.5816 0.208008 36.9559 0.624162L70.3758 34.0441C70.792 34.4184 71 34.9592 71 35.5Z" fill="#47B9A3"/>
</svg>
