<svg width="350" height="298" viewBox="0 0 350 298" fill="none" xmlns="http://www.w3.org/2000/svg">
<g>
<path d="M116.825 297.618C179.539 297.618 230.379 287.707 230.379 275.481C230.379 263.255 179.539 253.344 116.825 253.344C54.1111 253.344 3.27136 263.255 3.27136 275.481C3.27136 287.707 54.1111 297.618 116.825 297.618Z" fill="#3D5655"/>
<path d="M25.9288 270.152C25.9288 270.152 4.87423 264.49 0.901898 264.908C-3.07044 265.327 6.91984 245.494 13.5732 247.912C20.2265 250.331 29.0977 256.693 34.1687 247.707C39.2396 238.721 42.0846 233.884 48.2625 234.368C54.4403 234.852 62.9958 230.502 69.1695 234.368C75.3432 238.234 79.6804 243.001 88.2072 242.796C96.734 242.591 104.818 223.246 111.459 230.986C118.1 238.725 126.065 245.805 132.309 243.231C138.552 240.656 145.677 244.526 151.379 248.88C157.081 253.233 167.064 251.298 170.864 247.912C174.664 244.526 177.521 242.107 185.597 242.583C193.673 243.059 219.339 248.871 228.846 256.111C238.352 263.351 216.49 272.558 206.033 272.558C195.575 272.558 193.677 275.46 184.646 279.814C175.615 284.167 160.869 277.395 150.428 284.651C139.987 291.907 126.652 280.781 108.614 284.651C90.5766 288.521 94.3563 293.838 83.8987 289.98C73.4411 286.123 77.2453 284.651 62.0365 283.692C46.8277 282.733 30.1963 286.111 28.7697 279.822C27.3431 273.534 17.8489 272.082 12.1425 270.147C6.43611 268.213 25.9288 270.152 25.9288 270.152Z" fill="#3D5655"/>
<path d="M288.177 217.974L288.997 217.449L289.238 217.294C287.443 216.989 285.805 216.082 284.595 214.722C283.384 213.362 282.672 211.631 282.576 209.813C282.481 207.994 283.008 206.198 284.069 204.718C285.131 203.239 286.665 202.166 288.419 201.675L288.378 204.979L290.194 201.384C291.246 201.335 292.297 201.493 293.287 201.851C294.278 202.208 295.189 202.757 295.967 203.466C296.746 204.175 297.377 205.031 297.825 205.984C298.272 206.937 298.528 207.969 298.577 209.021C298.577 209.177 298.577 209.324 298.577 209.476C299.217 208.78 299.75 207.992 300.159 207.139C300.93 205.422 300.942 203.483 300.885 201.121C300.762 196.448 300.561 191.738 300.299 187.04C298.403 186.83 296.644 185.951 295.338 184.56C294.033 183.169 293.267 181.357 293.178 179.452C293.166 179.21 293.166 178.968 293.178 178.726C293.178 178.665 293.178 178.603 293.178 178.546C293.178 178.312 293.215 178.083 293.252 177.853C293.25 177.816 293.25 177.779 293.252 177.743C293.281 177.55 293.321 177.361 293.367 177.173C293.367 177.103 293.403 177.033 293.42 176.964C293.477 176.759 293.539 176.554 293.613 176.357C293.637 176.291 293.662 176.23 293.69 176.164C293.748 176.017 293.809 175.873 293.875 175.73C293.908 175.656 293.941 175.578 293.977 175.504L294.006 175.447C294.854 173.774 296.262 172.45 297.985 171.707C299.707 170.965 301.636 170.849 303.435 171.38L303.381 175.681L305.177 172.13C306.34 172.801 307.317 173.752 308.016 174.899C308.715 176.045 309.115 177.348 309.178 178.689C309.211 179.384 309.152 180.08 309.002 180.76V180.76C309.002 180.817 308.969 180.87 308.957 180.928C308.944 180.985 308.903 181.141 308.875 181.243C308.846 181.346 308.797 181.51 308.752 181.653C308.707 181.797 308.686 181.85 308.649 181.949C308.612 182.047 308.53 182.227 308.469 182.358C308.432 182.436 308.399 182.518 308.362 182.6C308.26 182.805 308.149 183.01 308.03 183.207C307.989 183.277 307.94 183.342 307.899 183.408C307.813 183.539 307.727 183.674 307.633 183.818C307.538 183.961 307.514 183.974 307.452 184.047C307.391 184.121 307.276 184.269 307.182 184.375C307.087 184.482 307.046 184.523 306.977 184.597C306.907 184.671 306.78 184.802 306.673 184.9L306.464 185.097L306.099 185.4L305.911 185.548C305.718 185.687 305.525 185.818 305.321 185.958L305.206 186.023C305.037 186.126 304.863 186.221 304.685 186.306L304.456 186.409C304.312 186.474 304.164 186.54 304.013 186.593L303.75 186.687C303.603 186.741 303.455 186.786 303.304 186.827L303.033 186.897C302.869 186.938 302.701 186.97 302.533 186.999H302.5C302.609 188.983 302.708 190.966 302.795 192.947C303.273 191.966 303.946 191.092 304.773 190.38C305.601 189.668 306.565 189.132 307.607 188.806C308.649 188.48 309.747 188.371 310.832 188.484C311.918 188.598 312.969 188.932 313.921 189.467L312.507 193.353L315.421 190.553C316.984 191.982 317.916 193.972 318.012 196.087C318.049 196.83 317.98 197.574 317.807 198.297C317.444 199.866 316.617 201.289 315.434 202.381C314.251 203.473 312.766 204.183 311.173 204.419C309.58 204.654 307.953 204.405 306.504 203.703C305.055 203.001 303.851 201.878 303.049 200.482C303.049 200.683 303.049 200.892 303.049 201.085C303.103 203.167 303.168 205.758 302.131 208.054C301.389 209.545 300.39 210.894 299.18 212.038C298.45 212.78 297.696 213.498 296.925 214.195C296.162 215.214 295.169 216.039 294.027 216.601C292.756 217.579 291.441 218.496 290.083 219.352L289.374 219.868C288.611 220.344 287.828 220.827 287.062 221.332L287.472 221.299C289.17 221.219 290.85 221.682 292.269 222.62C293.687 223.558 294.771 224.923 295.363 226.517L290.354 230.617L295.867 229.338C295.862 230.691 295.516 232.02 294.859 233.203C294.203 234.386 293.259 235.384 292.114 236.105C290.969 236.825 289.66 237.245 288.31 237.325C286.959 237.404 285.611 237.142 284.389 236.561C284.516 236.713 284.639 236.868 284.762 237.024L285.492 237.934C288.771 242.066 289.661 245.986 288.046 248.974L286.082 247.912C287.652 245.002 285.291 241.279 283.741 239.303C283.507 239.004 283.266 238.705 283.024 238.406C280.941 235.819 278.58 232.884 278.637 229.284C278.678 223.857 283.946 220.594 288.177 217.974Z" fill="#F1F1F1"/>
<path d="M248.556 212.51L247.297 211.723C247.174 211.649 247.055 211.571 246.937 211.493C249.622 211.033 252.071 209.673 253.881 207.637C255.692 205.601 256.756 203.01 256.899 200.289C257.042 197.568 256.255 194.88 254.668 192.665C253.082 190.45 250.789 188.841 248.166 188.102L248.228 193.05L245.51 187.667H245.477C243.902 187.594 242.328 187.832 240.844 188.367C239.361 188.902 237.998 189.724 236.832 190.786C235.666 191.848 234.721 193.129 234.051 194.557C233.381 195.984 232.998 197.529 232.925 199.105C232.925 199.334 232.925 199.56 232.925 199.785C231.965 198.741 231.165 197.559 230.551 196.28C229.399 193.714 229.379 190.807 229.469 187.261C229.649 180.26 229.953 173.204 230.346 166.174C233.184 165.858 235.816 164.541 237.769 162.459C239.723 160.377 240.87 157.666 241.005 154.814C241.005 154.446 241.005 154.085 241.005 153.724V153.453C240.98 153.105 240.947 152.761 240.894 152.42C240.894 152.363 240.894 152.31 240.865 152.252C240.816 151.965 240.755 151.683 240.685 151.4C240.66 151.293 240.636 151.191 240.607 151.084C240.521 150.777 240.431 150.477 240.32 150.178C240.287 150.08 240.246 149.985 240.205 149.887C240.119 149.666 240.029 149.452 239.931 149.239C239.877 149.124 239.828 149.014 239.775 148.903C239.76 148.875 239.746 148.846 239.734 148.817C238.774 146.924 237.329 145.32 235.547 144.167C233.764 143.015 231.708 142.356 229.588 142.258C228.253 142.198 226.918 142.359 225.636 142.733L225.714 149.174L223.029 143.844C220.817 145.106 219.067 147.043 218.034 149.371C217.001 151.698 216.741 154.296 217.29 156.782V156.782C217.29 156.864 217.335 156.946 217.355 157.032C217.392 157.192 217.433 157.348 217.474 157.504C217.515 157.659 217.597 157.914 217.663 158.098C217.728 158.283 217.761 158.393 217.818 158.537C217.896 158.75 217.991 158.947 218.085 159.164C218.138 159.287 218.187 159.41 218.245 159.529C218.396 159.836 218.56 160.14 218.741 160.435C218.802 160.541 218.872 160.64 218.938 160.738C219.069 160.939 219.196 161.148 219.347 161.328C219.434 161.447 219.528 161.558 219.618 161.673C219.708 161.788 219.885 162.005 220.028 162.165L220.331 162.497C220.479 162.653 220.631 162.804 220.786 162.952L221.102 163.243C221.278 163.399 221.463 163.55 221.651 163.694C221.746 163.768 221.836 163.845 221.934 163.919C222.217 164.128 222.508 164.329 222.812 164.51C222.869 164.546 222.93 164.575 222.988 164.608C223.242 164.756 223.5 164.899 223.763 165.018L224.111 165.174C224.328 165.272 224.546 165.366 224.771 165.448C224.902 165.502 225.033 165.547 225.181 165.592C225.402 165.666 225.628 165.735 225.853 165.797L226.263 165.903C226.513 165.961 226.763 166.01 227.013 166.055H227.063C226.893 169.023 226.746 171.991 226.62 174.959C225.904 173.489 224.895 172.181 223.655 171.116C222.416 170.05 220.971 169.248 219.411 168.761C217.85 168.273 216.207 168.11 214.581 168.28C212.955 168.451 211.381 168.952 209.956 169.753L212.079 175.566L207.713 171.376C206.554 172.435 205.614 173.712 204.949 175.134C204.283 176.557 203.905 178.096 203.835 179.665C203.78 180.777 203.882 181.89 204.139 182.973C204.685 185.317 205.923 187.442 207.693 189.073C209.462 190.704 211.681 191.765 214.061 192.119C216.442 192.472 218.873 192.102 221.04 191.056C223.208 190.01 225.01 188.337 226.214 186.253C226.214 186.556 226.214 186.86 226.185 187.159C226.107 190.279 226.005 194.157 227.559 197.621C228.612 199.97 230.309 201.872 231.982 203.581C233.075 204.696 234.201 205.773 235.36 206.811C236.498 208.341 237.983 209.577 239.693 210.419C241.606 211.881 243.576 213.248 245.604 214.518L246.875 215.305C248.015 216.015 249.187 216.744 250.335 217.499C250.134 217.499 249.925 217.458 249.728 217.449C247.184 217.329 244.668 218.022 242.543 219.426C240.419 220.831 238.796 222.875 237.91 225.263L245.407 231.367L237.155 229.457C237.159 231.487 237.677 233.483 238.661 235.259C239.645 237.034 241.063 238.532 242.782 239.612C244.501 240.692 246.466 241.318 248.493 241.434C250.519 241.549 252.542 241.149 254.373 240.271C254.184 240.5 254 240.73 253.815 240.964C253.446 241.423 253.077 241.878 252.721 242.329C247.838 248.515 246.482 254.381 248.896 258.858L251.839 257.271C249.486 252.914 253.024 247.338 255.344 244.403C255.693 243.956 256.054 243.509 256.419 243.059C259.538 239.185 263.072 234.79 262.978 229.403C262.777 221.323 254.894 216.449 248.556 212.51Z" fill="#F1F1F1"/>
<path d="M187.741 274.481C187.741 274.481 173.553 270.725 170.88 271C168.207 271.275 174.934 258.153 179.415 259.751C183.896 261.35 189.877 265.564 193.292 259.616C196.706 253.668 198.621 250.466 202.79 250.786C206.959 251.106 212.715 248.224 216.876 250.786C221.036 253.348 223.955 256.5 229.703 256.365C235.45 256.23 240.89 243.423 245.371 248.544C249.851 253.664 255.209 258.358 259.415 256.652C263.621 254.947 268.434 257.509 272.267 260.391C276.1 263.273 282.831 261.994 285.385 259.751C287.939 257.509 289.87 255.91 295.314 256.23C300.758 256.55 318.045 260.391 324.448 265.195C330.852 270 316.122 276.079 309.08 276.079C302.037 276.079 300.754 278.002 294.67 280.884C288.587 283.766 278.662 279.281 271.619 284.085C264.576 288.89 255.611 281.523 243.444 284.085C231.277 286.648 233.839 290.169 226.792 287.607C219.745 285.045 222.311 284.085 212.067 283.446C201.823 282.806 190.615 285.045 189.651 280.884C188.688 276.723 182.272 275.76 178.448 274.481C174.623 273.202 187.741 274.481 187.741 274.481Z" fill="#3D5655"/>
<path d="M305.247 230.215L299.753 247.051L299.516 247.785L290.321 275.973L274.579 286.611L198.137 254.467L205.381 225.173L205.766 223.631L209.644 207.951L209.652 207.914L233.183 204.971L305.247 230.215Z" fill="#F8CE6D"/>
<path opacity="0.1" d="M305.247 230.215L290.321 275.973L274.579 286.611L289.029 236.676L209.644 207.951L209.652 207.914L233.183 204.971L305.247 230.215Z" fill="black"/>
<path opacity="0.1" d="M226.796 211.091L225.529 210.321L238.229 208.988L292.637 228.223L291.104 229.026L237.43 210.099L226.796 211.091Z" fill="black"/>
<path opacity="0.1" d="M299.753 247.051L283.864 254.525L205.766 223.631L205.381 225.173L283.548 255.623L299.516 247.785" fill="black"/>
<path d="M215.199 219.011C215.646 217.569 214.747 216.008 213.191 215.525C211.634 215.041 210.009 215.818 209.561 217.261C209.113 218.703 210.012 220.264 211.569 220.747C213.126 221.231 214.751 220.453 215.199 219.011Z" fill="#3D5655"/>
<path d="M284.032 245.663C284.48 244.221 283.581 242.66 282.024 242.177C280.467 241.693 278.842 242.47 278.394 243.913C277.947 245.355 278.846 246.916 280.402 247.399C281.959 247.883 283.584 247.105 284.032 245.663Z" fill="#3D5655"/>
<path d="M273.154 278.764C273.602 277.321 272.703 275.76 271.146 275.277C269.589 274.794 267.964 275.571 267.516 277.013C267.069 278.455 267.968 280.016 269.524 280.5C271.081 280.983 272.706 280.206 273.154 278.764Z" fill="#3D5655"/>
<path d="M206.777 250.991C207.225 249.549 206.326 247.988 204.769 247.505C203.212 247.021 201.587 247.799 201.139 249.241C200.692 250.683 201.591 252.244 203.147 252.727C204.704 253.211 206.329 252.434 206.777 250.991Z" fill="#3D5655"/>
<path d="M218.954 209.636C218.79 210.169 217.474 209.636 215.802 209.111C214.129 208.586 212.825 208.013 212.989 207.471C213.153 206.93 214.727 206.652 216.4 207.172C218.073 207.693 219.122 209.103 218.954 209.636Z" fill="#3D5655"/>
<path d="M227.375 207.715C227.54 207.183 226.444 206.37 224.926 205.899C223.408 205.428 222.043 205.477 221.878 206.009C221.713 206.54 222.81 207.354 224.328 207.825C225.845 208.296 227.21 208.247 227.375 207.715Z" fill="#3D5655"/>
<path d="M254.357 222.598C254.193 223.131 252.549 222.639 250.954 222.143C249.359 221.647 248.117 221.094 248.281 220.561C248.445 220.028 249.958 219.741 251.561 220.221C253.164 220.7 254.529 222.057 254.357 222.598Z" fill="#3D5655"/>
<path d="M288.365 234.811C288.181 235.409 286.434 234.888 284.741 234.364C283.048 233.839 281.732 233.236 281.917 232.638C282.101 232.039 283.721 231.674 285.414 232.199C287.107 232.724 288.554 234.212 288.365 234.811Z" fill="#3D5655"/>
<path d="M298.31 233.376C298.122 233.974 296.38 233.454 294.687 232.929C292.994 232.404 291.674 231.802 291.862 231.203C292.051 230.604 293.666 230.24 295.359 230.764C297.052 231.289 298.495 232.777 298.31 233.376Z" fill="#3D5655"/>
<path d="M303.213 230.453C303.025 231.051 301.574 230.625 300.188 230.19C298.802 229.756 297.728 229.231 297.896 228.633C298.064 228.034 299.462 227.591 300.86 228.026C302.258 228.46 303.398 229.854 303.213 230.453Z" fill="#3D5655"/>
<path d="M270.373 218.474C270.225 218.95 268.733 218.511 267.315 218.064C265.896 217.618 264.761 217.117 264.913 216.642C265.064 216.166 266.417 215.892 267.852 216.334C269.287 216.777 270.516 217.995 270.373 218.474Z" fill="#3D5655"/>
<path d="M238.456 207.236C238.621 206.704 237.693 205.943 236.383 205.537C235.072 205.13 233.876 205.231 233.711 205.763C233.546 206.295 234.474 207.056 235.785 207.463C237.095 207.87 238.291 207.768 238.456 207.236Z" fill="#3D5655"/>
<path opacity="0.1" d="M253.299 238.689C253.474 238.125 253.451 237.52 253.235 236.971C253.019 236.422 252.622 235.964 252.11 235.671C252.354 235.394 252.537 235.069 252.647 234.716C252.78 234.288 252.8 233.833 252.704 233.395C252.609 232.958 252.402 232.552 252.103 232.218C251.804 231.885 251.423 231.634 250.998 231.491C250.573 231.349 250.119 231.318 249.679 231.404C249.852 230.809 249.806 230.172 249.549 229.608C249.292 229.044 248.842 228.591 248.28 228.33C247.717 228.07 247.08 228.02 246.484 228.189C245.888 228.358 245.372 228.735 245.03 229.252C244.697 229.011 244.311 228.852 243.905 228.79C243.498 228.728 243.082 228.763 242.692 228.894C242.302 229.024 241.948 229.245 241.661 229.539C241.373 229.833 241.159 230.191 241.038 230.584C241.038 230.641 241.009 230.695 240.997 230.748L240.906 230.793C240.619 230.534 240.276 230.343 239.905 230.233C239.533 230.124 239.142 230.099 238.76 230.161C238.377 230.222 238.014 230.369 237.696 230.59C237.377 230.81 237.113 231.1 236.921 231.436C236.73 231.773 236.616 232.148 236.588 232.534C236.561 232.921 236.62 233.308 236.762 233.668C236.904 234.029 237.125 234.353 237.409 234.616C237.693 234.88 238.032 235.076 238.402 235.192C238.535 235.234 238.672 235.264 238.812 235.282L238.844 236.233L251.249 241.304L251.167 240.484C251.656 240.418 252.117 240.214 252.494 239.896C252.872 239.578 253.151 239.159 253.299 238.689V238.689Z" fill="black"/>
<path opacity="0.1" d="M250.401 246.83C250.135 247.357 249.698 247.777 249.162 248.023C248.625 248.268 248.021 248.323 247.449 248.179C247.435 248.547 247.342 248.908 247.174 249.236C247.022 249.541 246.81 249.812 246.553 250.034C246.295 250.257 245.996 250.427 245.673 250.534C245.35 250.641 245.009 250.683 244.669 250.658C244.329 250.633 243.998 250.541 243.694 250.388C243.314 250.196 242.986 249.915 242.739 249.568C242.449 250.114 241.973 250.538 241.398 250.764C240.823 250.99 240.186 251.003 239.603 250.8C239.019 250.598 238.526 250.194 238.215 249.66C237.903 249.127 237.792 248.5 237.901 247.892C237.616 247.852 237.339 247.767 237.082 247.638C236.468 247.329 236.002 246.79 235.786 246.138C235.57 245.486 235.622 244.775 235.93 244.161L236.012 244.01L235.979 243.915C235.604 243.904 235.236 243.81 234.901 243.641C234.285 243.329 233.818 242.785 233.603 242.128C233.388 241.472 233.443 240.758 233.755 240.142C234.067 239.526 234.611 239.059 235.267 238.844C235.923 238.629 236.638 238.684 237.254 238.996C237.375 239.057 237.491 239.127 237.602 239.205L238.283 238.545L250.761 243.534L250.134 244.067C250.436 244.455 250.621 244.921 250.669 245.41C250.716 245.899 250.623 246.392 250.401 246.83Z" fill="black"/>
<path opacity="0.1" d="M242.784 233.109L239.771 242.874C239.548 243.59 239.608 244.364 239.939 245.037C240.269 245.71 240.844 246.231 241.546 246.494V246.494C241.919 246.633 242.317 246.694 242.715 246.674C243.113 246.654 243.503 246.553 243.86 246.377C244.218 246.201 244.536 245.955 244.795 245.652C245.054 245.349 245.248 244.997 245.367 244.616L248.38 234.847C248.495 234.468 248.532 234.07 248.489 233.676C248.446 233.283 248.323 232.902 248.128 232.557C247.934 232.212 247.671 231.91 247.356 231.67C247.041 231.429 246.681 231.255 246.297 231.158C245.573 230.973 244.806 231.073 244.153 231.435C243.5 231.798 243.01 232.397 242.784 233.109V233.109Z" fill="black"/>
<path d="M242.915 233.704L240.181 242.46C239.98 243.102 240.034 243.796 240.331 244.4C240.628 245.003 241.145 245.469 241.775 245.703C242.11 245.827 242.467 245.881 242.823 245.863C243.18 245.845 243.529 245.754 243.849 245.596C244.17 245.439 244.454 245.217 244.686 244.946C244.918 244.675 245.093 244.359 245.198 244.018L247.916 235.257C248.022 234.916 248.057 234.557 248.019 234.202C247.981 233.847 247.871 233.503 247.697 233.191C247.522 232.88 247.285 232.607 247.002 232.39C246.718 232.173 246.393 232.016 246.047 231.929V231.929C245.397 231.771 244.712 231.867 244.13 232.197C243.548 232.527 243.114 233.065 242.915 233.704V233.704Z" fill="#3D5655"/>
<path d="M207.271 278.961C207.271 278.961 193.082 275.206 190.41 275.485C187.737 275.764 194.464 262.633 198.945 264.236C203.425 265.839 209.406 270.045 212.821 264.097C216.236 258.148 218.15 254.951 222.32 255.271C226.489 255.59 232.244 252.709 236.405 255.271C240.566 257.833 243.485 260.981 249.232 260.846C254.98 260.711 260.419 247.904 264.904 253.028C269.389 258.153 274.743 262.838 278.949 261.137C283.155 259.436 287.968 261.994 291.796 264.876C295.625 267.757 302.365 266.474 304.915 264.236C307.464 261.998 309.395 260.391 314.839 260.711C320.283 261.03 337.571 264.876 343.974 269.676C350.377 274.476 335.652 280.564 328.605 280.564C321.558 280.564 320.283 282.483 314.2 285.364C308.116 288.246 298.187 283.766 291.145 288.566C284.102 293.367 275.136 286.008 262.969 288.566C250.802 291.124 253.364 294.65 246.322 292.092C239.279 289.534 241.837 288.566 231.592 287.927C221.348 287.287 210.14 289.529 209.181 285.364C208.222 281.199 201.822 280.244 197.977 278.961C194.132 277.678 207.271 278.961 207.271 278.961Z" fill="#3D5655"/>
<path d="M327.699 268.172C328.929 265.913 327.535 263.142 325.945 261.129C324.354 259.116 322.411 257.029 322.452 254.451C322.513 250.761 326.428 248.585 329.556 246.625C331.879 245.175 334.02 243.454 335.935 241.497C336.739 240.745 337.402 239.857 337.894 238.873C338.542 237.43 338.526 235.79 338.485 234.212C338.351 228.948 338.09 223.689 337.702 218.433" stroke="#3D5655" stroke-width="4" stroke-miterlimit="10"/>
<path d="M343.65 218.146C343.606 217.183 343.321 216.246 342.819 215.422C342.318 214.598 341.616 213.913 340.78 213.432L339.493 215.982L339.534 212.895C338.919 212.714 338.277 212.637 337.636 212.665C336.504 212.722 335.414 213.112 334.503 213.787C333.592 214.462 332.902 215.392 332.519 216.459C332.136 217.526 332.077 218.682 332.351 219.783C332.625 220.883 333.218 221.877 334.056 222.641C334.894 223.404 335.94 223.902 337.061 224.072C338.181 224.242 339.328 224.076 340.354 223.595C341.381 223.114 342.242 222.34 342.83 221.371C343.417 220.401 343.704 219.279 343.654 218.146H343.65Z" fill="#57B793"/>
<path d="M333.389 257.087C332.786 258.256 331.798 259.183 330.593 259.712C329.388 260.24 328.037 260.338 326.768 259.989C325.499 259.64 324.388 258.866 323.622 257.796C322.856 256.725 322.481 255.424 322.56 254.11C322.639 252.797 323.167 251.55 324.056 250.579C324.945 249.609 326.141 248.973 327.443 248.779C328.744 248.585 330.073 248.844 331.207 249.513C332.34 250.182 333.209 251.221 333.668 252.454L330.073 255.394L334.029 254.48C334.025 255.387 333.805 256.28 333.389 257.087V257.087Z" fill="#57B793"/>
<path d="M330.548 245.916C329.119 246.015 327.705 245.577 326.582 244.687C325.46 243.796 324.712 242.518 324.484 241.104C324.255 239.69 324.564 238.242 325.35 237.044C326.135 235.846 327.34 234.985 328.728 234.63L328.699 237L329.999 234.421C330.755 234.382 331.511 234.494 332.224 234.749C332.936 235.003 333.591 235.397 334.152 235.906C334.712 236.415 335.166 237.029 335.487 237.715C335.809 238.4 335.991 239.142 336.025 239.898C336.059 240.562 335.975 241.226 335.779 241.861C335.432 242.995 334.743 243.993 333.807 244.719C332.87 245.444 331.732 245.863 330.548 245.916V245.916Z" fill="#57B793"/>
<path d="M344.515 236.622C343.632 236.655 342.753 236.483 341.947 236.12C341.142 235.757 340.43 235.213 339.869 234.53C339.309 233.847 338.913 233.044 338.713 232.183C338.514 231.322 338.516 230.427 338.719 229.567C338.922 228.707 339.321 227.905 339.885 227.225C340.449 226.544 341.163 226.003 341.97 225.644C342.777 225.285 343.657 225.116 344.54 225.153C345.423 225.189 346.286 225.429 347.061 225.853L346.044 228.641L348.135 226.632C349.255 227.658 349.923 229.087 349.992 230.605C350.019 231.137 349.971 231.672 349.848 232.191C349.564 233.41 348.889 234.503 347.927 235.303C346.964 236.103 345.766 236.567 344.515 236.622V236.622Z" fill="#57B793"/>
<path opacity="0.1" d="M342.875 219.68C341.547 219.823 340.256 220.237 338.923 220.319C337.591 220.401 336.128 220.085 335.287 219.048C334.832 218.491 334.603 217.786 334.221 217.175C333.857 216.607 333.359 216.138 332.77 215.81C332.423 216.535 332.232 217.326 332.21 218.13C332.188 218.934 332.336 219.734 332.643 220.477C332.95 221.221 333.41 221.891 333.993 222.446C334.576 223 335.269 223.425 336.027 223.695C336.785 223.964 337.591 224.071 338.393 224.008C339.195 223.946 339.974 223.716 340.682 223.332C341.389 222.949 342.008 222.422 342.498 221.784C342.988 221.146 343.339 220.412 343.527 219.63C343.311 219.639 343.094 219.655 342.875 219.68Z" fill="black"/>
<path opacity="0.1" d="M344.515 236.622C343.525 236.667 342.54 236.455 341.655 236.007C340.771 235.559 340.017 234.891 339.467 234.066C338.916 233.242 338.588 232.289 338.514 231.301C338.439 230.312 338.621 229.321 339.042 228.424C339.501 228.726 339.896 229.114 340.206 229.567C340.616 230.186 340.866 230.904 341.35 231.469C342.244 232.523 343.773 232.867 345.163 232.806C346.552 232.744 347.893 232.347 349.262 232.22C349.455 232.22 349.672 232.191 349.844 232.187C349.561 233.406 348.887 234.5 347.925 235.3C346.963 236.101 345.765 236.565 344.515 236.622Z" fill="black"/>
<path opacity="0.1" d="M330.548 245.916C329.566 245.964 328.588 245.759 327.707 245.321C326.827 244.882 326.074 244.225 325.521 243.411C324.968 242.598 324.633 241.656 324.548 240.676C324.464 239.696 324.633 238.711 325.039 237.815C325.517 238.126 325.934 238.522 326.268 238.984C326.715 239.615 326.994 240.345 327.498 240.927C328.47 242.005 330.101 242.386 331.573 242.353C333.045 242.321 334.369 241.972 335.783 241.861C335.436 242.995 334.747 243.994 333.809 244.72C332.872 245.446 331.733 245.864 330.548 245.916V245.916Z" fill="black"/>
<path opacity="0.1" d="M333.389 257.087C332.767 258.477 331.617 259.564 330.194 260.107C328.771 260.65 327.19 260.605 325.799 259.983C324.409 259.361 323.322 258.211 322.779 256.788C322.236 255.364 322.28 253.783 322.903 252.393C323.376 252.705 323.8 253.084 324.161 253.52C324.711 254.184 325.071 254.943 325.703 255.57C326.879 256.726 328.777 257.21 330.47 257.247C331.446 257.251 332.42 257.198 333.389 257.087V257.087Z" fill="black"/>
<path d="M319.021 265.568C319.021 265.568 323.563 265.429 324.932 264.453C326.301 263.478 331.901 262.318 332.258 263.879C332.614 265.441 339.079 271.668 333.955 271.693C328.831 271.718 322.042 270.898 320.677 270.053C319.312 269.209 319.021 265.568 319.021 265.568Z" fill="#638076"/>
<path opacity="0.2" d="M334.057 271.152C328.929 271.193 322.144 270.332 320.779 269.512C319.738 268.877 319.324 266.606 319.185 265.556H319.033C319.033 265.556 319.32 269.221 320.673 270.065C322.026 270.91 328.822 271.734 333.951 271.705C335.431 271.705 335.939 271.168 335.914 270.389C335.697 270.848 335.148 271.14 334.057 271.152Z" fill="black"/>
<path d="M84.12 73.4533C84.0906 73.1549 84.1342 72.8539 84.2471 72.5761C84.5792 71.9858 85.4482 72.1456 86.1041 72.3137C88.7442 72.9778 91.5236 72.3752 94.2374 72.531C96.9512 72.6868 100.013 74.0437 100.559 76.7083C102.531 75.3113 104.23 73.5648 105.572 71.5553C106.327 70.428 106.982 69.1367 106.88 67.7839C106.732 65.8325 105.097 64.3731 103.58 63.1351L99.0706 59.4456C98.4776 58.8994 97.7918 58.4634 97.0455 58.1584C96.0042 57.8018 94.8646 57.9699 93.7659 57.9699C90.4864 57.9699 86.9732 56.4777 84.0462 57.9699C82.8164 58.5971 81.9063 59.6711 81.0209 60.7206L76.987 65.4964C76.6824 65.8001 76.4607 66.177 76.3434 66.5909C76.2287 67.173 76.5279 67.747 76.6304 68.3332C76.8231 69.399 76.3598 70.5346 76.7165 71.5594C77.3027 73.2607 79.3647 73.5025 80.6273 74.4741C81.0988 74.839 81.8367 76.0688 82.3942 76.0565C83.3944 76.0442 84.0913 74.2363 84.12 73.4533Z" fill="#3D5655"/>
<path d="M84.7841 84.8579C84.739 86.1861 83.9642 87.3668 83.2181 88.4695C82.222 89.9371 81.1684 91.4621 79.5942 92.282C87.5058 96.4592 96.7216 97.431 105.33 94.9958C106.712 94.5858 108.343 93.7332 108.261 92.2943C106.622 91.8474 104.925 91.3842 103.531 90.3962C101.866 89.2156 100.768 87.3791 100.059 85.4769C99.3493 83.5748 98.9886 81.5415 98.4926 79.5615C98.4601 79.3584 98.3721 79.1683 98.2384 79.0121C98.0127 78.8506 97.7355 78.7777 97.4595 78.8072L91.9991 78.7088C89.7567 78.7088 87.3216 78.6555 85.2391 79.6066C82.6483 80.7954 84.8579 82.6524 84.7841 84.8579Z" fill="#FFC0C6"/>
<path opacity="0.1" d="M84.7841 84.8579C84.739 86.1861 83.9642 87.3668 83.2181 88.4695C82.222 89.9371 81.1684 91.4621 79.5942 92.282C87.5058 96.4592 96.7216 97.431 105.33 94.9958C106.712 94.5858 108.343 93.7332 108.261 92.2943C106.622 91.8474 104.925 91.3842 103.531 90.3962C101.866 89.2156 100.768 87.3791 100.059 85.4769C99.3493 83.5748 98.9886 81.5415 98.4926 79.5615C98.4601 79.3584 98.3721 79.1683 98.2384 79.0121C98.0127 78.8506 97.7355 78.7777 97.4595 78.8072L91.9991 78.7088C89.7567 78.7088 87.3216 78.6555 85.2391 79.6066C82.6483 80.7954 84.8579 82.6524 84.7841 84.8579Z" fill="black"/>
<path d="M80.0329 271.89C78.6883 273.939 76.9297 275.673 75.4539 277.629C73.9781 279.584 72.7442 281.864 72.7278 284.311C72.7082 284.466 72.7234 284.624 72.7723 284.773C72.8213 284.922 72.9026 285.058 73.0106 285.172C73.1785 285.28 73.3726 285.341 73.5722 285.348L79.2704 286.078C80.1367 286.228 81.0196 286.259 81.8941 286.168C82.8356 285.982 83.7428 285.652 84.5833 285.188C85.2256 284.936 85.7849 284.511 86.1985 283.958C86.4731 283.507 86.5469 282.954 86.8093 282.495C87.6005 281.105 89.5928 281.167 91.1752 281.409C91.6302 277.182 90.4619 272.968 89.3017 268.877C89.2517 268.626 89.1436 268.39 88.9861 268.188C88.7789 267.989 88.5231 267.847 88.2441 267.778C86.879 267.331 83.5789 265.581 82.4311 266.401C81.5907 267.007 80.7134 270.803 80.0329 271.89Z" fill="#57887F"/>
<path d="M107.507 280.224C108.602 279.711 109.77 279.051 110.951 279.322C112.615 279.695 113.357 281.663 114.771 282.601C115.64 283.188 116.714 283.36 117.752 283.495C120.946 283.908 124.165 284.099 127.385 284.065C128.414 284.065 129.71 283.819 129.96 282.835C130.21 281.851 129.263 281.068 128.422 280.556C126.598 279.437 124.697 278.449 122.732 277.6C121.767 277.244 120.854 276.758 120.019 276.157C118.612 275.022 117.928 273.242 117.301 271.549C116.796 270.188 116.333 267.249 115.3 266.22C114.169 265.109 112.648 265.847 111.229 266.159C109.024 266.642 106.441 266.979 105.023 268.959C102.949 271.857 101.354 283.073 107.507 280.224Z" fill="#57887F"/>
<path d="M74.9127 149.407C73.0295 154.042 71.9937 158.976 71.8545 163.977C71.7561 167.711 72.1579 171.434 72.5637 175.148C73.2114 181.16 73.8618 187.173 74.515 193.185C74.7236 195.685 75.1169 198.167 75.6916 200.609C76.4007 203.335 77.5527 205.938 78.3767 208.619C80.9265 216.974 80.2009 225.984 78.5161 234.556C78.2919 235.497 78.1736 236.459 78.1635 237.426C78.2127 238.873 78.7702 240.25 79.131 241.652C81.3365 250.2 76.2614 259.69 79.5737 267.889C79.6578 268.181 79.8421 268.435 80.0943 268.606C80.2607 268.668 80.4379 268.697 80.6155 268.689C80.793 268.681 80.9671 268.638 81.1274 268.561C82.071 268.232 82.9767 267.804 83.8289 267.282C85.6133 269.441 87.9187 271.111 90.5273 272.132C92.4705 271.652 92.8353 269.291 93.4707 267.393C93.9551 266.044 94.3496 264.665 94.6513 263.265C94.9323 261.546 95.0763 259.808 95.0818 258.067L96.7625 198.891L96.6396 216.949C96.5809 218.412 96.6729 219.876 96.9142 221.319C97.1602 222.52 97.6111 223.672 97.8694 224.874C98.2342 226.591 98.1891 228.37 98.1727 230.129C98.0705 240.559 99.0251 250.973 101.022 261.211C101.678 264.564 102.465 267.95 104.141 270.922C104.197 271.059 104.279 271.182 104.385 271.285C104.49 271.388 104.615 271.468 104.752 271.521C105.109 271.599 105.437 271.316 105.707 271.066C107.327 269.634 109.351 268.74 111.5 268.506C113.649 268.273 115.817 268.712 117.706 269.762C117.346 268.024 119.002 266.003 117.817 264.683C117.477 264.302 116.969 264.117 116.587 263.785C115.833 263.142 115.653 262.059 115.546 261.071C115.081 256.674 115.081 252.24 115.546 247.843C116.124 242.345 117.424 236.803 116.464 231.363C115.767 227.415 113.89 223.574 114.263 219.602C114.509 216.937 115.747 214.482 116.6 211.944C120.322 200.851 116.6 188.487 119.293 177.099C119.912 174.483 120.847 171.655 119.723 169.216L121.433 168.695L117.883 160.591C117.128 158.865 116.341 157.09 115.013 155.761C112.783 153.544 109.45 152.949 106.339 152.482L81.029 148.534C78.7866 148.169 75.7612 147.325 74.9127 149.407Z" fill="#35394C"/>
<path d="M90.8472 84.8005C96.8311 84.8005 101.682 79.9496 101.682 73.9658C101.682 67.9819 96.8311 63.131 90.8472 63.131C84.8633 63.131 80.0125 67.9819 80.0125 73.9658C80.0125 79.9496 84.8633 84.8005 90.8472 84.8005Z" fill="#FFC0C6"/>
<path d="M84.9399 86.8666C84.4143 86.5557 83.7937 86.4464 83.1935 86.5592C82.8985 86.6642 82.6218 86.815 82.3736 87.006L77.2494 90.5971C76.5147 91.0532 75.8598 91.6265 75.3103 92.2943C74.4331 93.4872 74.2937 95.0736 74.4085 96.5494C74.6626 99.8782 76.0072 103.018 76.7369 106.273C77.4666 109.528 77.4666 113.242 75.3677 115.849C75.0067 116.223 74.7053 116.651 74.4741 117.116C74.349 117.514 74.2922 117.93 74.306 118.346C74.2301 119.904 74.2629 121.466 74.4044 123.019C74.6339 125.024 75.2243 126.971 75.544 128.959C76.1056 132.346 75.954 135.818 76.3885 139.208C76.3691 139.435 76.3972 139.663 76.4709 139.878C76.5446 140.094 76.6623 140.291 76.8166 140.459C76.9708 140.626 77.1582 140.759 77.3668 140.85C77.5754 140.941 77.8007 140.988 78.0283 140.987C80.5621 141.358 83.1213 141.527 85.6819 141.491C88.6457 141.491 91.6055 141.327 94.5653 141.172L108.036 140.462C108.228 140.487 108.423 140.469 108.607 140.411C108.791 140.352 108.961 140.254 109.103 140.124C109.246 139.993 109.358 139.832 109.432 139.654C109.506 139.475 109.54 139.282 109.532 139.089C110.713 133.424 111.902 127.656 111.344 121.9C110.983 118.182 109.901 114.579 108.885 110.988C108.065 108.077 107.278 105.023 107.892 102.059C108.302 100.104 109.299 98.2958 109.557 96.3199C109.706 95.2916 109.617 94.2427 109.295 93.2546C108.974 92.2664 108.429 91.3655 107.704 90.6217C106.195 89.1746 103.994 88.6253 102.489 87.1741C102.076 86.7048 101.627 86.2689 101.145 85.8705C100.899 85.6745 100.603 85.5513 100.291 85.5151C99.9784 85.4789 99.6622 85.531 99.378 85.6655C99.1007 85.8622 98.8709 86.1185 98.7057 86.4157C97.3939 88.408 95.4262 91.6916 92.6591 91.1751C89.6665 90.6381 87.5758 88.1374 84.9399 86.8666Z" fill="#79D9C4"/>
<path d="M112.012 160.115C111.053 160.832 110.34 162.107 110.783 163.218C112.086 163.451 113.429 163.264 114.62 162.685C115.386 162.312 116.341 161.788 117.006 162.329C117.221 162.536 117.387 162.788 117.493 163.067C118.212 164.59 119.082 166.036 120.092 167.383C120.822 167.039 121.589 166.662 122.027 165.985C122.292 165.525 122.463 165.016 122.532 164.489C122.789 163.17 122.979 161.839 123.101 160.5C123.187 159.529 123.204 158.451 122.54 157.729C119.691 154.655 114.378 158.348 112.012 160.115Z" fill="#FFC0C6"/>
<path d="M83.4436 69.3867C83.4144 69.0897 83.458 68.79 83.5707 68.5136C83.9028 67.9232 84.7718 68.1036 85.4277 68.2471C88.0678 68.9153 90.8472 68.3127 93.561 68.4685C96.2748 68.6242 99.3371 69.9811 99.8823 72.6458C101.855 71.2481 103.555 69.5017 104.9 67.4928C105.654 66.3655 106.31 65.0741 106.208 63.7213C106.06 61.77 104.424 60.3106 102.908 59.0726L98.3983 55.3831C97.8052 54.8381 97.1193 54.4036 96.3732 54.1C95.3319 53.7434 94.1923 53.9114 93.0937 53.9114C89.8141 53.9114 86.3009 52.4192 83.3739 53.9114C82.1441 54.5427 81.234 55.6168 80.3445 56.6662L76.3147 61.4421C76.0103 61.7451 75.7875 62.1202 75.667 62.5325C75.5522 63.1146 75.8515 63.6926 75.9581 64.2748C76.1467 65.3406 75.6875 66.4802 76.0401 67.5051C76.6263 69.2064 78.6924 69.4441 79.955 70.4198C80.4264 70.7846 81.1602 72.0145 81.7219 71.9981C82.718 71.9817 83.4149 70.1738 83.4436 69.3867Z" fill="#3D5655"/>
<path d="M110.201 91.3637C111.335 91.0958 112.513 91.0668 113.659 91.2786C114.805 91.4903 115.894 91.9381 116.858 92.5935C119.957 94.717 121.232 98.5951 122.31 102.194L124.725 110.266C125.782 113.804 126.848 117.375 127.094 121.06C127.32 124.409 126.861 127.762 126.402 131.087C125.766 135.691 127.262 140.737 127.283 145.382C127.283 150.711 127.25 156.364 124.536 160.96C124.424 160.557 124.216 160.189 123.93 159.884C123.645 159.579 123.29 159.348 122.897 159.209C122.111 158.941 121.287 158.802 120.457 158.799L113.242 158.336C113.857 157.297 114.386 156.21 114.825 155.085C117.592 147.977 116.53 140.032 115.427 132.489C115.34 131.77 115.203 131.058 115.017 130.357C114.29 127.666 114.124 124.855 114.53 122.097C114.695 120.85 114.737 119.589 114.657 118.334C114.644 117.804 114.531 117.281 114.325 116.792C114.112 116.391 113.845 116.021 113.529 115.694L112.07 114.054C111.951 109.094 111.172 104.096 110.401 99.1936C110.027 96.6006 109.96 93.9725 110.201 91.3637V91.3637Z" fill="#79D9C4"/>
<path d="M96.0247 113.267C89.0168 107.829 84.3483 99.9216 82.9722 91.1587C82.7344 89.6051 82.1154 87.5759 80.5453 87.6291C80.0697 87.6796 79.6123 87.8395 79.2089 88.0965L73.519 91.1464C73.1121 91.3117 72.7658 91.5979 72.5269 91.9663C72.1538 92.696 72.6827 93.5364 73.1377 94.2169C76.2 98.8492 76.4172 104.732 76.5402 110.283C76.5771 111.922 76.5894 113.648 75.7982 115.083C75.1546 116.243 74.0355 117.096 73.4452 118.289C72.8917 119.408 72.8671 120.703 72.8507 121.954C72.736 130.874 72.6212 139.807 73.0885 148.719C73.1582 150.063 73.2648 151.473 73.9822 152.613C74.6504 153.667 75.7531 154.347 76.819 154.991L85.4482 160.205C87.088 161.201 88.7934 162.214 90.6914 162.534C92.5894 162.853 94.758 162.312 95.8485 160.726C96.3773 159.955 96.6109 159.016 97.1193 158.233C97.6276 157.45 98.5992 156.815 99.4641 157.163C100.079 157.409 100.415 158.053 100.694 158.647C101.243 159.783 101.817 160.947 102.715 161.837C103.613 162.726 104.912 163.325 106.146 163.067C107.212 162.833 108.044 162.025 108.811 161.255C111.18 158.881 113.574 156.475 115.317 153.601C115.567 153.267 115.697 152.858 115.686 152.441C115.574 152.035 115.354 151.667 115.05 151.375C113.96 150.039 113.529 148.288 113.205 146.591C109.963 129.537 114.542 111.812 112.021 94.635C111.734 92.6673 111.102 90.8595 109.627 89.5272C108.151 88.1949 106.314 87.3463 104.506 86.5182C103.912 86.2476 103.232 85.9689 102.625 86.2148C101.62 86.6248 101.616 88.0063 101.69 89.0844C101.775 91.2939 101.666 93.5066 101.362 95.6968L100.481 103.81C100.397 105.049 100.165 106.273 99.7921 107.458C99.017 109.667 97.7253 111.658 96.0247 113.267V113.267Z" fill="#57887F"/>
<path d="M45.7618 48.8118C45.7618 48.8118 42.634 51.3534 38.9404 44.6877C35.2468 38.0221 17.4102 22.0016 17.4102 22.0016C17.4102 22.0016 15.1023 19.8904 23.8709 16.3731C32.6396 12.8558 44.614 0 44.614 0C44.614 0 64.5945 17.7628 66.55 26.5601C68.5054 35.3575 64.2256 36.8496 56.8794 41.523C49.5333 46.1963 45.7618 48.8118 45.7618 48.8118Z" fill="#3D5655"/>
<path d="M103.027 133.883L52.6038 43.0111L56.8836 41.523L106.454 132.001C106.578 132.231 106.656 132.482 106.682 132.742C106.709 133.002 106.683 133.264 106.607 133.514C106.53 133.763 106.405 133.995 106.238 134.196C106.071 134.397 105.865 134.562 105.634 134.682C105.181 134.915 104.655 134.961 104.168 134.812C103.681 134.663 103.272 134.329 103.027 133.883V133.883Z" fill="#638076"/>
<path d="M82.3204 110.684C83.6404 107.86 82.2876 104.601 81.3858 101.616C80.6673 99.2445 80.2391 96.7943 80.1108 94.3194C80.0249 93.5407 80.1117 92.7527 80.365 92.0114C80.499 91.6438 80.7354 91.3222 81.0463 91.0847C81.3573 90.8472 81.7297 90.7036 82.1196 90.6709C83.2968 92.4319 83.7667 94.572 83.4355 96.6642C84.1993 96.4673 84.9741 96.3154 85.7557 96.2092C86.7692 96.073 87.7982 96.2989 88.6614 96.8471C89.5246 97.3954 90.1666 98.2307 90.4742 99.2059C91.7737 103.371 92.2164 107.815 90.4045 111.709C89.8269 112.862 89.1564 113.965 88.3999 115.009L84.448 120.781C84.1775 121.191 83.8454 121.601 83.3699 121.671C82.8944 121.74 82.3983 121.31 82.0499 120.912C80.8487 119.555 78.717 117.579 78.9507 115.71C79.1844 113.841 81.5333 112.345 82.3204 110.684Z" fill="#FFC0C6"/>
<path d="M73.1868 93.274C69.1735 92.819 64.578 93.9054 62.4791 97.3735C61.4256 99.1239 61.1632 101.223 60.9788 103.256C60.7205 106.105 60.5688 108.963 60.4253 111.816L59.6505 126.836C59.5563 128.632 59.4661 130.431 59.4333 132.227C59.3399 133.63 59.4911 135.04 59.8801 136.392C60.3761 137.847 61.36 139.077 62.3398 140.274C63.3195 141.471 64.5453 142.705 65.9842 142.356C66.573 142.162 67.108 141.832 67.546 141.393L70.8256 138.556C73.0556 136.642 75.3103 134.699 77.0075 132.296C77.8274 131.14 78.4997 129.89 79.3277 128.742C81.7628 125.364 85.5097 122.802 86.7928 118.842C85.563 118.777 83.7756 118.371 83.2099 117.28C82.9106 116.702 82.8696 116.014 82.5376 115.46C82.0334 114.616 80.8978 114.156 80.7298 113.189C77.5076 115.784 74.8102 118.797 72.2358 122.031L73.2811 117.969C73.3543 117.587 73.5127 117.227 73.7443 116.915C74.1111 116.594 74.5261 116.333 74.9742 116.141C76.2491 115.37 76.7328 113.775 76.9911 112.308C78.1436 105.711 76.7865 98.9212 73.1868 93.274Z" fill="#79D9C4"/>
</g>
<defs>
<clipPath id="clip0">
<rect width="350" height="297.618" fill="white"/>
</clipPath>
</defs>
</svg>
