<svg width="405" height="262" viewBox="0 0 405 262" fill="none" xmlns="http://www.w3.org/2000/svg">
<path d="M320.865 206.75C320.865 209.028 307.595 215.669 291.832 215.669C276.07 215.669 263.787 209.028 263.787 206.75C263.787 204.472 276.564 205.205 292.342 205.205C308.12 205.205 320.865 204.468 320.865 206.75Z" fill="#504F60"/>
<path opacity="0.2" d="M320.865 206.75C320.865 209.028 307.595 215.669 291.832 215.669C276.07 215.669 263.787 209.028 263.787 206.75" fill="black"/>
<path d="M162.123 164.951C164.681 165.279 167.336 165.488 169.786 164.693C170.172 164.573 170.596 164.306 170.558 163.92C170.53 163.78 170.471 163.648 170.384 163.534C169.461 162.148 168.685 160.669 168.069 159.121C168.045 159.04 167.994 158.97 167.926 158.92C167.846 158.892 167.759 158.892 167.679 158.92C166.549 159.218 165.572 159.947 164.45 160.26C163.877 160.417 163.279 160.462 162.69 160.391C162.181 160.334 161.486 159.913 161.023 159.967C161.285 161.654 161.926 163.229 162.123 164.951Z" fill="#629F8B"/>
<path d="M210.507 160.677C212.193 159.519 213.941 158.303 214.937 156.515C215.008 156.408 215.049 156.284 215.056 156.156C215.039 156.03 214.99 155.91 214.913 155.809C213.965 154.3 212.744 152.982 211.313 151.921C210.567 152.448 209.892 153.071 209.307 153.774C208.882 154.222 207.709 154.932 207.698 155.615C207.698 156.002 208.145 156.449 208.354 156.774C208.635 157.191 208.902 157.615 209.156 158.048C209.303 158.26 210.642 160.592 210.507 160.677Z" fill="#629F8B"/>
<path d="M172.151 170.121C172.182 170.519 172.072 170.915 171.843 171.241C171.663 171.422 171.44 171.555 171.194 171.627C167.617 172.909 163.477 171.31 159.908 172.573C159.175 172.831 158.48 173.206 157.743 173.453C156.864 173.717 155.958 173.878 155.042 173.932C153.78 174.051 152.511 174.129 151.245 174.163C150.283 174.232 149.317 174.147 148.382 173.912C147.914 173.793 147.477 173.576 147.099 173.276C146.721 172.976 146.41 172.599 146.186 172.171C145.992 171.787 145.954 171.343 146.078 170.932C146.134 170.791 146.214 170.66 146.314 170.546C146.556 170.274 146.84 170.043 147.155 169.862L148.471 169.013C149.088 168.576 149.758 168.221 150.466 167.955C150.987 167.785 151.538 167.712 152.067 167.569C153.915 167.028 155.328 165.561 156.639 164.152L158.43 162.241C158.597 162.031 158.81 161.86 159.051 161.743C159.299 161.66 159.563 161.635 159.823 161.669C161.562 161.794 163.241 162.357 164.704 163.306C165.078 163.587 165.482 163.825 165.908 164.017C166.958 164.426 168.304 164.117 169.273 163.6C169.732 163.353 169.632 163.214 169.825 162.774C170.018 162.334 170.488 162.052 170.897 162.453C171.021 162.592 171.108 162.759 171.152 162.94C171.538 164.214 171.391 165.584 171.391 166.92C171.38 167.129 171.406 167.338 171.468 167.538C171.567 167.739 171.684 167.931 171.82 168.109C171.847 168.157 171.872 168.206 171.893 168.256C172.129 168.848 172.218 169.488 172.151 170.121Z" fill="#514E7F"/>
<path d="M172.151 170.121C172.182 170.519 172.072 170.915 171.843 171.241C171.663 171.422 171.44 171.555 171.194 171.627C167.617 172.909 163.477 171.31 159.908 172.573C159.175 172.831 158.48 173.206 157.743 173.453C156.864 173.717 155.958 173.878 155.042 173.932C153.78 174.051 152.511 174.129 151.245 174.163C150.283 174.232 149.317 174.147 148.382 173.912C147.914 173.793 147.477 173.576 147.099 173.276C146.721 172.976 146.41 172.599 146.186 172.171C145.992 171.787 145.954 171.343 146.078 170.932C146.134 170.791 146.214 170.66 146.314 170.546C146.522 170.982 146.673 171.561 146.804 171.77C146.981 172.079 147.222 172.346 147.511 172.555C147.8 172.763 148.129 172.907 148.478 172.978C149.001 173.01 149.524 172.943 150.022 172.781C153.263 171.978 156.709 171.967 159.823 170.75C160.892 170.33 161.91 169.77 163.033 169.515C164.156 169.26 165.349 169.33 166.506 169.233C168.335 169.086 170.106 168.534 171.908 168.245C172.141 168.841 172.224 169.485 172.151 170.121Z" fill="#434F53"/>
<path d="M218.699 160.442C218.529 161.801 217.668 162.971 216.723 163.963C215.778 164.955 214.709 165.847 213.956 166.99C213.03 168.407 212.614 170.163 211.41 171.36C210.948 171.796 210.428 172.166 209.866 172.461C209.237 172.832 208.571 173.139 207.879 173.376C206.081 173.951 204.144 173.82 202.265 173.681C201.655 173.675 201.051 173.559 200.482 173.337C200.223 173.206 199.975 173.053 199.741 172.882C199.27 172.591 198.873 172.195 198.583 171.723C198.441 171.467 198.401 171.166 198.472 170.882C198.579 170.568 198.763 170.287 199.008 170.063C199.431 169.623 199.885 169.214 200.366 168.839C201.027 168.413 201.622 167.892 202.133 167.295C202.447 166.823 202.678 166.3 202.816 165.75C203.09 164.787 203.257 163.797 203.314 162.797C203.312 162.132 203.381 161.47 203.519 160.82C203.804 159.801 204.561 158.89 204.476 157.835C204.441 157.685 204.455 157.527 204.514 157.384C204.604 157.272 204.729 157.194 204.869 157.164C205.459 156.928 206.081 156.784 206.714 156.735C207.031 156.713 207.35 156.762 207.646 156.878C207.942 156.994 208.209 157.175 208.427 157.407C208.689 157.724 208.863 158.179 209.249 158.303C209.44 158.355 209.641 158.363 209.835 158.326C210.785 158.229 211.788 158.11 212.536 157.496C212.882 157.185 213.16 156.806 213.353 156.383C213.546 155.96 213.649 155.501 213.655 155.036C213.655 154.685 213.497 154.318 214.041 154.264C214.45 154.21 214.774 154.65 214.983 154.92C215.735 155.928 216.507 156.982 216.789 158.21C216.898 158.167 217.015 158.145 217.132 158.144C217.373 158.142 217.61 158.198 217.825 158.308C218.039 158.418 218.224 158.577 218.363 158.774C218.67 159.272 218.789 159.863 218.699 160.442Z" fill="#514E7F"/>
<path d="M218.699 160.442C218.529 161.801 217.668 162.971 216.723 163.963C215.778 164.955 214.709 165.847 213.956 166.99C213.03 168.407 212.614 170.164 211.41 171.36C210.948 171.796 210.428 172.166 209.866 172.461C209.237 172.832 208.571 173.139 207.879 173.376C206.081 173.951 204.144 173.82 202.265 173.681C201.655 173.675 201.051 173.559 200.482 173.337C200.223 173.206 199.975 173.053 199.741 172.882C199.27 172.591 198.874 172.195 198.583 171.723C198.945 171.549 199.34 171.455 199.741 171.445C200.575 171.492 201.184 172.279 201.983 172.523C203.121 172.866 204.256 172.063 205.409 171.789C206.162 171.611 206.953 171.658 207.698 171.403C208.318 171.163 208.892 170.815 209.392 170.376C210.077 169.886 210.686 169.298 211.201 168.631C211.629 167.964 211.985 167.253 212.262 166.511C212.872 165.089 213.589 163.716 214.408 162.403C214.529 162.195 214.675 162.003 214.844 161.832C215.025 161.666 215.23 161.55 215.434 161.403C216.206 160.82 216.526 159.859 216.796 158.917C216.87 158.63 216.972 158.352 217.101 158.086C217.342 158.084 217.58 158.14 217.794 158.25C218.008 158.36 218.193 158.519 218.332 158.716C218.664 159.226 218.795 159.841 218.699 160.442Z" fill="#434F53"/>
<path d="M137.786 40.065C138.746 40.7852 139.537 41.7079 140.101 42.7677C140.641 43.8256 143.755 52.034 143.574 53.227C144.589 52.2039 148.59 52.0378 149.617 51.0147C150.045 50.5861 152.356 48.4472 152.704 47.9491C153.051 47.451 155.629 46.4047 155.91 45.8796C156.964 43.9916 148.44 36.8373 149.532 34.9725C149.592 34.8868 149.623 34.7839 149.621 34.679C149.596 34.591 149.546 34.512 149.478 34.4512C148.779 33.737 147.853 33.2929 147.012 32.764C146.171 32.235 145.361 31.4976 145.133 30.5246C144.331 30.8941 143.594 31.3923 142.953 31.9995C141.389 33.3406 139.852 34.7086 138.342 36.1037C137.751 36.652 136.609 37.3817 136.335 38.1655C136.011 39.0071 137.223 39.6056 137.786 40.065Z" fill="#A1616A"/>
<path d="M151.585 37.0265C150.277 37.9058 149.055 38.9064 147.934 40.0149C146.877 41.0612 145.874 42.2735 145.619 43.7368C145.511 44.3121 145.526 44.8951 145.438 45.4781C145.052 48.007 142.868 49.8603 141.903 52.227C141.624 52.9575 141.418 53.7142 141.29 54.4857C141.019 55.9482 140.87 57.4308 140.846 58.918C140.823 60.3582 142.235 61.3504 142.752 62.694C143.269 64.0377 143.408 65.4199 143.67 66.7982C144.164 69.4005 145.071 71.9101 145.986 74.4043C147.888 79.6629 154.054 94.1994 155.957 99.4618C161.787 97.9985 177.307 94.6357 182.47 91.5508C184.191 90.5238 170.527 78.937 172.368 78.1378C172.473 78.1214 172.573 78.0808 172.66 78.0191C172.746 77.9574 172.818 77.8764 172.868 77.7824C172.918 77.6884 172.946 77.5841 172.948 77.4776C172.951 77.3711 172.93 77.2653 172.885 77.1687C171.044 69.1148 165.287 62.4971 162.674 54.6556C161.768 51.9336 160.139 49.6093 158.905 47.0225C157.786 44.6789 157.187 42.0882 155.848 39.8604C155.596 39.4014 155.266 38.9899 154.872 38.6442C154.538 38.388 154.177 38.1692 153.796 37.9917C153.032 37.6211 152.322 37.401 151.585 37.0265Z" fill="#514E7F"/>
<path d="M138.095 39.15C143.135 39.15 147.22 35.0619 147.22 30.0189C147.22 24.9759 143.135 20.8877 138.095 20.8877C133.055 20.8877 128.969 24.9759 128.969 30.0189C128.969 35.0619 133.055 39.15 138.095 39.15Z" fill="#A1616A"/>
<path d="M147.379 34.3084C147.833 33.8886 148.405 33.6167 149.017 33.5285C149.63 33.4402 150.254 33.5399 150.809 33.8142C151.426 34.1346 151.967 34.7833 151.828 35.4628L156.354 35.5323C157.074 35.5126 157.795 35.5787 158.499 35.7292C159.209 35.8837 159.842 36.2811 160.29 36.8527C160.344 36.9261 160.406 37.0149 160.498 37.0265C160.574 37.0276 160.647 37.0031 160.707 36.957C161.403 36.6076 162.187 36.4732 162.96 36.5709C165.406 36.7292 167.668 37.9531 169.585 39.482C169.931 39.7199 170.2 40.0542 170.357 40.4434C170.515 40.9569 170.326 41.6017 170.743 41.9685C170.743 46.2155 172.202 50.1846 173.174 54.3235C173.348 55.061 174.054 55.7135 174.544 56.2926C175.149 56.9346 175.644 57.6732 176.006 58.4779C176.832 60.6246 175.694 63.1496 176.496 65.304C176.836 66.2152 177.492 66.9643 178.04 67.7558C178.762 68.6697 179.219 69.7651 179.359 70.9217C179.394 71.4391 179.329 71.9603 179.359 72.4661C179.411 73.1618 179.541 73.8494 179.745 74.5163C180.075 75.7621 180.419 77.0066 180.779 78.2498C181.366 80.2575 182.13 82.4235 183.928 83.493C179.587 84.2304 175.011 84.9524 170.874 83.4428C170.297 83.2458 169.749 82.9718 169.246 82.6281C167.753 81.5625 167.031 79.7401 166.387 78.0181C165.669 76.0877 164.94 74.1225 164.793 72.0684C164.794 71.4151 164.702 70.765 164.519 70.138C164.098 69.0183 162.975 68.3426 161.957 67.721C160.806 67.0903 159.764 66.2796 158.87 65.3195C158.426 64.8359 158.086 64.2664 157.871 63.6461C157.656 63.0259 157.57 62.3681 157.62 61.7134C157.697 61.0763 157.948 60.4624 157.971 59.8215C157.994 59.1806 157.708 58.447 157.095 58.2771C153.935 57.3196 152.426 53.5745 151.724 50.3467C151.421 48.6785 151.285 46.9841 151.318 45.2889L151.276 41.9955C150.84 41.5985 150.489 41.1169 150.245 40.5799C150.001 40.0429 149.868 39.4618 149.856 38.872C149.898 38.5279 149.891 38.1796 149.837 37.8373C149.684 37.4188 149.436 37.042 149.111 36.7369C148.413 36.0204 147.829 35.2014 147.379 34.3084Z" fill="#434F53"/>
<path d="M137.659 44.7484C137.554 45.7677 137.786 46.814 137.558 47.814C137.47 48.2001 137.315 48.5862 137.203 48.9452C136.861 50.3845 137.009 51.8969 137.624 53.2425C138.238 54.5748 138.973 55.8478 139.819 57.0455C140.106 57.4543 140.342 57.8964 140.522 58.3621C140.668 58.851 140.758 59.3548 140.792 59.864C141.015 61.9086 141.374 63.9361 141.865 65.9334C142.297 67.6631 147.205 82.4505 148.347 83.8211C148.554 84.1246 148.869 84.3384 149.227 84.4196C149.485 84.4293 149.742 84.3763 149.976 84.2652L152.291 83.3771C152.488 83.3169 152.67 83.217 152.827 83.0837C153.044 82.8301 153.162 82.5064 153.159 82.1725C153.325 80.2884 148.405 65.3967 147.78 63.6168C145.889 58.2424 143.373 53.061 142.142 47.4974C141.799 45.953 141.618 43.5746 140.487 42.343C140.02 41.8334 140.178 42.0496 139.619 42.316C139.336 42.4387 139.063 42.582 138.801 42.7445C138.473 42.9724 138.201 43.2705 138.003 43.6172C137.806 43.9639 137.688 44.3503 137.659 44.7484Z" fill="#434F53"/>
<path d="M144.685 54.9451C145.307 58.2308 145.947 61.5087 146.584 64.7944L155.644 62.4199C155.717 61.4701 155.212 60.5898 154.872 59.7173C154.047 57.6439 154.027 55.3351 153.36 53.2039C152.854 51.5823 151.974 50.0919 151.5 48.4588C151.226 47.509 151.087 46.5283 150.817 45.5669C150.527 44.6228 150.171 43.7003 149.752 42.8063C149.243 41.5098 148.58 40.2795 147.776 39.1423C146.619 39.5747 145.384 40.0766 144.724 41.123C144.385 41.7125 144.192 42.3743 144.161 43.0534C144.002 45.0881 144.739 47.1344 144.496 49.1576C144.246 51.0843 144.31 53.0389 144.685 54.9451Z" fill="#629F8B"/>
<path d="M155.794 98.651C156.304 100.582 155.567 102.612 154.965 104.524C154.059 107.402 153.441 110.364 153.12 113.365C153.081 114.129 152.928 114.882 152.665 115.601C152.38 116.245 151.893 116.79 151.561 117.404C150.651 119.018 150.674 120.987 150.871 122.832C151.002 124.048 151.199 125.261 151.442 126.458C151.739 127.921 152.106 129.45 151.677 130.878C152.395 130.72 152.881 131.651 152.835 132.38C152.789 133.11 152.553 133.925 152.904 134.554C153.792 134.878 153.8 136.098 153.773 137.044C153.787 138.684 153.994 140.317 154.39 141.909C155.733 148.37 157.158 154.812 158.665 161.237C161.926 162.249 165.734 163.303 168.845 161.901C169.423 161.642 170.002 161.229 170.133 160.604C170.167 160.267 170.125 159.926 170.01 159.608L168.536 154.241C168.177 152.944 167.818 151.604 168.007 150.272C168.15 149.28 168.582 148.21 168.096 147.334C167.93 147.033 167.668 146.797 167.475 146.511C166.703 145.38 167.108 143.867 167.17 142.496C167.194 142.188 167.173 141.879 167.108 141.577C167.002 141.225 166.855 140.886 166.668 140.569C165.45 138.203 164.865 135.561 164.97 132.902C165.017 132.562 164.97 132.217 164.835 131.902C164.742 131.772 164.658 131.635 164.585 131.492C164.527 131.244 164.556 130.984 164.666 130.755C164.223 130.419 163.824 130.03 163.477 129.597C163.691 129.463 163.872 129.283 164.006 129.07C164.141 128.857 164.225 128.616 164.252 128.365C164.28 128.114 164.25 127.861 164.165 127.623C164.08 127.386 163.943 127.171 163.763 126.994C163.92 126.963 164.066 126.888 164.183 126.778C164.3 126.669 164.385 126.529 164.428 126.374C164.471 126.219 164.47 126.056 164.425 125.901C164.381 125.747 164.294 125.608 164.176 125.5C163.986 125.369 163.736 125.311 163.601 125.114C163.392 124.828 163.562 124.431 163.732 124.126L164.631 122.5C165.302 121.292 165.453 119.797 166.174 118.639C167.208 116.952 167.884 115.072 168.551 113.211L171.148 106.041L172.896 107.558C173.478 108.003 173.966 108.56 174.332 109.195C174.58 109.823 174.737 110.484 174.799 111.157C175.439 115.048 177.885 118.423 178.792 122.257C178.993 123.11 179.128 124.006 179.618 124.736C179.793 124.96 179.951 125.197 180.089 125.446C180.216 125.826 180.283 126.223 180.286 126.624C180.366 127.408 180.615 128.165 181.015 128.845C181.414 129.524 181.955 130.11 182.601 130.562C183.461 131.153 184.53 131.558 184.997 132.492C185.09 132.782 185.22 133.058 185.383 133.315C185.8 133.817 186.699 133.874 186.876 134.504C186.977 134.855 186.791 135.276 186.988 135.585C187.1 135.728 187.248 135.838 187.416 135.905L189.928 137.16C192.738 138.566 194.173 141.793 196.245 144.145C196.961 144.91 197.594 145.749 198.136 146.646C199.031 148.249 199.444 150.26 200.957 151.28C201.363 151.491 201.733 151.766 202.052 152.094C202.527 152.72 202.353 153.596 202.396 154.384C202.438 155.171 203.04 156.11 203.789 155.87C203.527 156.824 203.527 157.831 203.789 158.785C207.075 158.616 210.209 157.346 212.687 155.179C213.42 154.538 214.126 153.72 214.134 152.747C214.145 152.579 214.108 152.411 214.026 152.264C213.878 152.074 213.682 151.926 213.459 151.836C211.109 150.561 210.403 147.608 209.214 145.21C208.176 143.094 206.64 141.272 205.355 139.307C202.562 135.079 200.656 129.963 196.43 127.172C195.5 126.558 194.42 126.014 193.953 124.998C193.694 124.431 193.664 123.782 193.459 123.195C193.255 122.608 192.765 122.037 192.139 122.037C192.487 121.187 192.417 120.153 192.44 119.234C192.464 118.826 192.417 118.417 192.302 118.025C192.141 117.604 191.933 117.202 191.68 116.828C190.578 114.961 190.027 112.819 190.09 110.651C190.121 109.535 190.318 108.385 189.982 107.319C189.813 106.782 189.516 106.292 189.311 105.774C189.003 104.837 188.84 103.858 188.829 102.871L188.597 99.1607C188.562 97.925 188.402 96.6961 188.119 95.4928C187.347 92.6125 186.575 80.5471 183.932 79.188C181.289 77.829 176.747 87.1145 173.772 87.296C172.456 87.3508 171.155 87.602 169.913 88.0412C167.934 88.7825 166.275 90.1647 164.658 91.516L159.186 96.1144C158.029 97.0681 157.072 97.9792 155.794 98.651Z" fill="#434F53"/>
<path d="M129.532 19.88C130.736 18.2352 132.804 17.3627 134.842 17.2893C136.879 17.216 138.886 17.8569 140.711 18.7642C141.25 19.0707 141.825 19.3069 142.424 19.4669C143.389 19.6638 144.462 19.4012 145.334 19.853C146.491 20.4669 146.715 22.0306 146.615 23.3278C146.514 24.6251 146.271 26.0652 146.962 27.1888C147.207 27.5092 147.43 27.8459 147.629 28.1965C147.927 28.8644 147.753 29.6366 147.575 30.3432C147.124 29.9571 146.869 29.3741 146.468 28.9262C146.067 28.4783 145.368 28.1772 144.871 28.5131C144.373 28.849 144.38 29.459 144.353 30.0073C144.326 30.5555 144.188 31.2119 143.67 31.3895C143.455 31.4387 143.229 31.4219 143.022 31.3414C142.816 31.2608 142.639 31.1202 142.513 30.9378C141.629 29.8567 141.984 28.1308 141.108 27.0421C140.611 26.4243 139.781 26.1232 139.322 25.4745C138.959 24.9649 138.866 24.3162 138.55 23.768C138.234 23.2197 137.497 22.8182 137.007 23.1966C136.839 23.3564 136.7 23.543 136.594 23.7487C136.288 24.1866 135.844 24.5087 135.333 24.6628C134.822 24.817 134.273 24.7942 133.777 24.5981C133.397 24.365 132.987 24.1869 132.557 24.0691C132.276 24.0551 131.997 24.1199 131.751 24.2564C131.505 24.3928 131.302 24.5954 131.164 24.8413C130.888 25.3326 130.754 25.8917 130.779 26.4552C130.779 27.2274 130.918 28.0498 130.478 28.6675C130.31 28.9001 130.101 29.0991 129.86 29.2544C129.216 29.6675 128.317 29.9455 127.723 29.4745C127.521 29.2868 127.371 29.0504 127.287 28.788C127.204 28.5257 127.189 28.2462 127.244 27.9764C127.36 27.439 127.512 26.9101 127.699 26.3934C128.039 25.1965 127.595 23.8491 127.966 22.7217C128.354 21.7063 128.881 20.75 129.532 19.88Z" fill="#434F53"/>
<path d="M134.421 47.119C134.363 47.4004 134.393 47.6928 134.506 47.9568C134.621 48.1366 134.777 48.2863 134.961 48.3931C136.259 49.202 137.735 49.6805 139.26 49.7869C139.467 49.7905 139.671 49.8434 139.854 49.9414C140.217 50.1807 140.24 50.7135 140.105 51.1382C139.925 51.5389 139.832 51.9731 139.831 52.4124C139.943 53.2193 140.9 53.5707 141.706 53.6903C142.837 53.8332 144.076 53.7598 144.971 53.0533C145.577 52.4999 146.04 51.8067 146.318 51.034C148.532 45.9414 149.308 40.3122 151.55 35.235C151.72 34.9035 151.833 34.546 151.886 34.1771C151.909 33.9925 151.883 33.8049 151.81 33.6338C151.737 33.4627 151.619 33.3143 151.469 33.2041C151.052 32.9455 150.404 33.0922 150.122 32.6868C149.983 32.4822 149.999 32.2042 149.875 31.988C149.617 31.5285 148.938 31.6019 148.475 31.3354C148.112 31.1424 147.861 30.7447 147.456 30.6675C147.257 30.6563 147.058 30.6916 146.875 30.7707C146.692 30.8498 146.531 30.9704 146.402 31.1231C145.087 32.3509 144.396 34.0922 143.663 35.7369C142.543 38.2581 141.233 40.6899 139.742 43.011C139.916 42.7407 138.909 40.6944 138.515 40.6056C137.825 40.4666 136.941 41.6789 136.567 42.1307C135.392 43.5555 134.648 45.286 134.421 47.119Z" fill="#629F8B"/>
<path opacity="0.1" d="M148.44 31.6945C148.163 31.6991 147.89 31.7661 147.642 31.8904C147.394 32.0147 147.178 32.1932 147.008 32.4126C146.595 32.9493 146.514 33.6597 146.41 34.3431C146.059 36.5082 145.287 38.5834 144.137 40.4511" fill="black"/>
<path opacity="0.1" d="M150.408 33.235C150.025 33.2436 149.651 33.3516 149.323 33.5487C148.995 33.7457 148.724 34.0248 148.536 34.3586C148.281 34.9659 148.122 35.6094 148.065 36.2659C147.735 37.7213 147.097 39.089 146.194 40.2774" fill="black"/>
<path d="M242.113 108.717V103.921C242.112 100.391 240.71 97.0061 238.215 94.5103C235.72 92.0146 232.336 90.6126 228.808 90.6126H39.5438C36.0159 90.6126 32.6323 92.0146 30.1373 94.5103C27.6423 97.0061 26.2401 100.391 26.2391 103.921V112.763L242.113 108.717Z" fill="#33323D"/>
<path d="M92.1956 84.991C92.1956 84.991 91.6554 118.527 97.5977 129.562C103.54 140.596 106.087 188.6 106.087 188.6C106.087 188.6 168.382 195.047 211.792 180.878C255.202 166.708 347.571 160.913 347.571 160.913L332.005 55.9374C332.005 55.9374 255.105 51.0031 211.36 71.8793C167.614 92.7554 92.1956 84.991 92.1956 84.991Z" fill="#8DD070"/>
<path opacity="0.1" d="M92.1956 84.991C92.1956 84.991 91.6554 118.527 97.5977 129.562C103.54 140.596 106.087 188.6 106.087 188.6C106.087 188.6 168.382 195.047 211.792 180.878C255.202 166.708 347.571 160.913 347.571 160.913L332.005 55.9374C332.005 55.9374 255.105 51.0031 211.36 71.8793C167.614 92.7554 92.1956 84.991 92.1956 84.991Z" fill="black"/>
<path d="M105.983 97.2418C105.983 97.2418 104.034 124.913 108.923 133.755C113.812 142.596 114.04 182.067 114.04 182.067C114.04 182.067 170.102 184.669 209.982 171.086C249.862 157.503 333.664 148.693 333.664 148.693L324.141 62.8446C324.141 62.8446 254.801 62.1304 214.331 81.2498C173.861 100.369 105.983 97.2418 105.983 97.2418Z" fill="#8DD070"/>
<path opacity="0.1" d="M213.715 155.368C221.692 154.374 226.431 139.691 224.3 122.573C222.169 105.454 213.975 92.383 205.998 93.3771C198.021 94.3713 193.282 109.054 195.413 126.173C197.544 143.291 205.738 156.362 213.715 155.368Z" fill="black"/>
<path opacity="0.2" d="M289.845 4.79916C289.845 4.79916 215.137 23.7178 179.907 57.0185C144.678 90.3191 70.5136 106.087 70.5136 106.087C70.5136 106.087 80.2838 138.168 89.3209 146.847C98.3579 155.527 115.498 200.437 115.498 200.437C115.498 200.437 176.763 187.441 213.729 160.615C250.695 133.79 336.848 99.9097 336.848 99.9097L289.845 4.79916Z" fill="black"/>
<path d="M69.3907 101.284C69.3907 101.284 79.1571 133.369 88.1864 142.048C97.2157 150.728 114.364 195.634 114.364 195.634C114.364 195.634 175.636 182.642 212.606 155.816C249.576 128.99 335.721 95.1221 335.721 95.1221L288.719 0C288.719 0 214.014 18.9186 178.785 52.2193C143.555 85.52 69.3907 101.284 69.3907 101.284Z" fill="#8DD070"/>
<path opacity="0.1" d="M69.3907 101.284C69.3907 101.284 79.1571 133.369 88.1864 142.048C97.2157 150.728 114.364 195.634 114.364 195.634C114.364 195.634 175.636 182.642 212.606 155.816C249.576 128.99 335.721 95.1221 335.721 95.1221L288.719 0C288.719 0 214.014 18.9186 178.785 52.2193C143.555 85.52 69.3907 101.284 69.3907 101.284Z" fill="black"/>
<path d="M86.2571 108.713C86.2571 108.713 92.8902 135.651 100.256 142.562C107.623 149.473 119.936 186.962 119.936 186.962C119.936 186.962 174.089 172.221 207.879 147.048C241.67 121.875 318.735 87.7941 318.735 87.7941L283.347 8.98444C283.347 8.98444 217.136 29.5903 184.48 60.2153C151.824 90.8404 86.2571 108.713 86.2571 108.713Z" fill="#8DD070"/>
<path opacity="0.1" d="M206.63 130.955C213.917 127.56 213.924 112.13 206.646 96.4916C199.368 80.8534 187.561 70.9286 180.274 74.324C172.987 77.7194 172.979 93.1492 180.257 108.787C187.535 124.426 199.343 134.35 206.63 130.955Z" fill="black"/>
<path opacity="0.1" d="M247.222 113.423V246.626C247.222 248.139 246.924 249.637 246.346 251.034C245.767 252.432 244.919 253.701 243.85 254.771C242.78 255.841 241.511 256.689 240.114 257.267C238.717 257.846 237.22 258.143 235.708 258.143H37.7572C34.7051 258.142 31.7784 256.928 29.6206 254.768C27.4628 252.608 26.2506 249.68 26.2506 246.626V99.9947C31.9229 102.103 31.9229 102.103 37.7572 101.925H235.708C238.758 101.925 241.683 103.136 243.842 105.291C246 107.447 247.216 110.371 247.222 113.423Z" fill="black"/>
<path d="M247.222 115.118V248.321C247.221 251.376 246.008 254.305 243.848 256.465C241.689 258.625 238.761 259.838 235.708 259.838H37.7572C34.7051 259.837 31.7784 258.623 29.6206 256.463C27.4628 254.303 26.2506 251.375 26.2506 248.321V101.686C31.9229 103.79 31.9229 103.79 37.7572 103.616H235.708C238.758 103.616 241.684 104.827 243.843 106.984C246.002 109.14 247.217 112.066 247.222 115.118Z" fill="#4F6052"/>
<path opacity="0.1" d="M246.659 164.364V206.962H205.371C199.775 206.887 194.434 204.61 190.503 200.624C186.573 196.637 184.369 191.263 184.369 185.663C184.369 180.064 186.573 174.689 190.503 170.703C194.434 166.717 199.775 164.44 205.371 164.364H246.659Z" fill="black"/>
<path d="M247.222 163.229V205.835H205.934C200.338 205.759 194.997 203.482 191.067 199.496C187.136 195.51 184.932 190.136 184.932 184.536C184.932 178.936 187.136 173.562 191.067 169.576C194.997 165.59 200.338 163.312 205.934 163.237L247.222 163.229Z" fill="#33323D"/>
<path opacity="0.1" d="M207.914 193.97C212.498 193.97 216.214 190.252 216.214 185.665C216.214 181.079 212.498 177.36 207.914 177.36C203.33 177.36 199.614 181.079 199.614 185.665C199.614 190.252 203.33 193.97 207.914 193.97Z" fill="black"/>
<path d="M208.477 192.843C213.061 192.843 216.777 189.124 216.777 184.538C216.777 179.951 213.061 176.233 208.477 176.233C203.893 176.233 200.177 179.951 200.177 184.538C200.177 189.124 203.893 192.843 208.477 192.843Z" fill="#629F8B"/>
<path d="M318.89 162.862C319.217 166.418 316.528 169.87 317.311 173.353C317.481 174.098 317.801 174.8 317.917 175.553C318.241 177.623 317.01 179.58 315.833 181.31L305.724 196.152C305.319 196.804 304.834 197.403 304.281 197.935C302.351 199.657 299.449 199.48 296.91 199.993C295.126 200.356 293.44 201.101 291.971 202.178C291.91 202.231 291.871 202.305 291.862 202.385C291.854 202.466 291.876 202.547 291.925 202.611C292.345 203.183 292.901 203.64 293.542 203.942C294.184 204.243 294.891 204.379 295.599 204.337C295.865 204.688 295.599 205.202 295.213 205.453C294.669 205.839 293.924 205.931 293.816 206.85C293.777 207.171 293.842 207.496 294.001 207.777C294.408 208.401 295.042 208.843 295.768 209.008C299.268 210.078 303.05 208.198 305.67 205.638C308.29 203.078 310.169 199.846 312.739 197.24C314.163 195.8 315.779 194.565 317.246 193.167C320.171 190.379 322.443 186.99 324.639 183.596C325.299 182.573 325.962 181.522 326.24 180.337C326.518 179.152 326.387 177.955 326.699 176.808C327.108 175.302 328.208 174.106 329.123 172.843C330.917 170.372 332.113 167.349 331.878 164.306C331.642 161.264 329.756 158.256 326.885 157.222C325.995 156.864 325.014 156.804 324.087 157.052C322.91 157.415 322.042 158.388 321.239 159.318L319.31 161.538C318.829 162.025 318.449 162.603 318.191 163.237C318.067 163.556 318.038 163.903 318.107 164.238C318.175 164.573 318.338 164.881 318.577 165.125" fill="#FBBEBE"/>
<path opacity="0.05" d="M318.89 162.862C319.217 166.418 316.528 169.87 317.311 173.353C317.481 174.098 317.801 174.8 317.917 175.553C318.241 177.623 317.01 179.58 315.833 181.31L305.724 196.152C305.319 196.804 304.834 197.403 304.281 197.935C302.351 199.657 299.449 199.48 296.91 199.993C295.126 200.356 293.44 201.101 291.971 202.178C291.91 202.231 291.871 202.305 291.862 202.385C291.854 202.466 291.876 202.547 291.925 202.611C292.345 203.183 292.901 203.64 293.542 203.942C294.184 204.243 294.891 204.379 295.599 204.337C295.865 204.688 295.599 205.202 295.213 205.453C294.669 205.839 293.924 205.931 293.816 206.85C293.777 207.171 293.842 207.496 294.001 207.777C294.408 208.401 295.042 208.843 295.768 209.008C299.268 210.078 303.05 208.198 305.67 205.638C308.29 203.078 310.169 199.846 312.739 197.24C314.163 195.8 315.779 194.565 317.246 193.167C320.171 190.379 322.443 186.99 324.639 183.596C325.299 182.573 325.962 181.522 326.24 180.337C326.518 179.152 326.387 177.955 326.699 176.808C327.108 175.302 328.208 174.106 329.123 172.843C330.917 170.372 332.113 167.349 331.878 164.306C331.642 161.264 329.756 158.256 326.885 157.222C325.995 156.864 325.014 156.804 324.087 157.052C322.91 157.415 322.042 158.388 321.239 159.318L319.31 161.538C318.829 162.025 318.449 162.603 318.191 163.237C318.067 163.556 318.038 163.903 318.107 164.238C318.175 164.573 318.338 164.881 318.577 165.125" fill="black"/>
<path d="M326.541 254.406C324.334 255.753 321.583 255.834 319.017 255.521C318.604 255.471 318.114 255.44 317.859 255.761C317.473 256.224 317.929 256.919 318.399 257.278C319.913 258.415 321.691 259.147 323.566 259.405C325.241 259.643 326.93 259.755 328.621 259.741C333.252 259.822 337.882 259.9 342.439 259.236C342.709 259.215 342.972 259.139 343.211 259.012C343.505 258.805 343.709 258.495 343.782 258.143C344.094 256.954 343.493 255.68 342.582 254.853C341.671 254.027 340.502 253.568 339.36 253.124L335.347 251.56C334.405 251.193 332.897 250.22 331.874 250.297C329.952 250.436 328.135 253.471 326.541 254.406Z" fill="#3F3D56"/>
<path opacity="0.05" d="M326.541 254.406C324.334 255.753 321.583 255.834 319.017 255.521C318.604 255.471 318.114 255.44 317.859 255.761C317.473 256.224 317.929 256.919 318.399 257.278C319.913 258.415 321.691 259.147 323.566 259.405C325.241 259.643 326.93 259.755 328.621 259.741C333.252 259.822 337.882 259.9 342.439 259.236C342.709 259.215 342.972 259.139 343.211 259.012C343.505 258.805 343.709 258.495 343.782 258.143C344.094 256.954 343.493 255.68 342.582 254.853C341.671 254.027 340.502 253.568 339.36 253.124L335.347 251.56C334.405 251.193 332.897 250.22 331.874 250.297C329.952 250.436 328.135 253.471 326.541 254.406Z" fill="black"/>
<path d="M329.354 201.101C327.684 203.325 325.955 205.893 326.368 208.646C326.592 210.128 327.421 211.437 328.031 212.808C328.857 214.669 329.289 216.669 329.713 218.661C330.338 221.572 330.967 224.491 331.349 227.448C331.785 230.788 329.736 240.452 329.547 243.815C329.501 244.626 329.405 245.502 328.841 246.085C328.621 246.317 328.328 246.502 328.228 246.803C328.169 247.094 328.217 247.395 328.363 247.653C329.304 249.776 331.23 251.359 333.379 252.263C335.528 253.166 340.71 254.726 343.053 254.807C343.361 254.841 343.674 254.8 343.963 254.687C344.275 254.497 344.52 254.215 344.666 253.88C346.344 250.668 344.731 239.247 344.754 235.622C344.778 232.599 345.491 229.595 345.36 226.576C345.252 224.151 344.588 221.781 344.369 219.364C343.983 215.402 344.708 211.422 345.437 207.507C345.993 204.503 346.553 201.499 347.266 198.534C347.702 196.723 348.208 194.897 349.196 193.325C349.967 192.078 351.052 191.036 351.951 189.85C354.446 186.577 355.555 182.453 355.038 178.368C354.984 177.982 349.25 179.824 348.744 180.044C346.682 180.918 344.784 182.139 343.134 183.654C341.806 184.92 340.761 186.611 339.599 188.028C337.955 190.033 336.332 192.053 334.73 194.086C332.9 196.41 331.109 198.749 329.354 201.101Z" fill="#434F53"/>
<path opacity="0.05" d="M329.354 200.966C327.684 203.19 325.955 205.761 326.368 208.51C326.592 209.997 327.421 211.306 328.031 212.676C328.857 214.534 329.289 216.537 329.713 218.526C330.338 221.441 330.967 224.36 331.349 227.313C331.785 230.657 329.736 240.317 329.547 243.68C329.501 244.491 329.405 245.371 328.841 245.954C328.621 246.182 328.328 246.367 328.228 246.668C328.168 246.958 328.216 247.26 328.363 247.518C329.304 249.645 331.23 251.224 333.379 252.151C335.528 253.077 340.71 253.884 343.053 253.962C343.361 253.996 343.674 253.954 343.963 253.842C344.275 253.654 344.521 253.373 344.666 253.039C346.344 249.826 344.731 239.139 344.754 235.51C344.778 232.483 345.491 229.483 345.36 226.46C345.252 224.035 344.588 221.665 344.368 219.252C343.983 215.286 344.708 211.306 345.437 207.391C345.993 204.391 346.553 201.387 347.266 198.418C347.702 196.607 348.208 194.781 349.196 193.21C349.967 191.962 351.052 190.92 351.951 189.735C354.447 186.461 355.556 182.337 355.038 178.252C354.984 177.866 349.25 179.708 348.744 179.928C346.682 180.804 344.785 182.027 343.134 183.542C341.806 184.804 340.761 186.495 339.599 187.912C337.955 189.917 336.332 191.938 334.73 193.974C332.9 196.28 331.109 198.611 329.354 200.966Z" fill="black"/>
<path d="M310.763 152.121C315.935 152.121 320.128 147.926 320.128 142.751C320.128 137.576 315.935 133.38 310.763 133.38C305.591 133.38 301.398 137.576 301.398 142.751C301.398 147.926 305.591 152.121 310.763 152.121Z" fill="#FBBEBE"/>
<path d="M319.198 142.357C320.063 143.738 321.198 144.93 322.534 145.863C323.87 146.796 325.38 147.449 326.973 147.785L326.267 150.353C325.048 154.762 323.678 159.426 320.275 162.484C320.661 160.99 320.167 159.395 319.326 158.098C318.484 156.801 317.304 155.781 316.146 154.774L310.755 150.102C310.6 149.975 310.469 149.821 310.37 149.646C310.237 149.317 310.237 148.949 310.37 148.619C311.056 146.48 313.017 145.145 314.614 143.701C315.416 142.954 316.131 142.12 316.748 141.214C317.825 139.677 318.492 141.222 319.198 142.357Z" fill="#FBBEBE"/>
<path d="M298.427 133.33L298.215 131.569C299.693 131.956 301.097 130.697 302.043 129.396C302.988 128.095 303.864 126.562 305.303 126.017C307.051 125.361 308.903 126.404 310.574 127.284C312.445 128.322 314.498 128.991 316.621 129.253C316.959 129.264 317.295 129.319 317.62 129.415C318.708 129.801 319.225 131.168 319.383 132.407C319.542 133.647 319.499 134.963 320.036 136.067C320.421 136.905 321.139 137.527 321.579 138.353C322.737 140.569 321.618 143.6 322.825 145.774L319.823 143.021C319.549 142.77 319.164 142.508 318.859 142.72C318.619 142.89 318.6 143.257 318.504 143.55C318.214 144.407 317.142 144.662 316.366 144.322C315.59 143.982 315.023 143.245 314.437 142.573C313.109 141.006 311.527 139.627 309.675 138.959C308.863 138.656 307.996 138.528 307.131 138.585C306.266 138.643 305.424 138.883 304.659 139.291C303.258 140.083 302.232 141.928 300.514 141.994C298.161 142.083 297.181 137.697 296.092 135.963C296.491 135.663 296.771 135.233 296.884 134.747C296.996 134.262 296.935 133.752 296.71 133.307C296.868 133.241 298.392 133.06 298.427 133.33Z" fill="#434F53"/>
<path d="M182.593 78.5471C181.841 79.2168 181.145 79.9477 180.513 80.7324C179.877 81.528 179.539 82.5207 179.556 83.5393C179.56 83.8347 179.654 84.1219 179.826 84.3617C179.914 84.4765 180.036 84.5609 180.175 84.6031C180.313 84.6453 180.461 84.6433 180.598 84.5972C180.753 84.5181 180.886 84.4013 180.984 84.2575C181.392 83.7671 181.825 83.298 182.28 82.8521C182.446 82.6861 182.666 82.5123 182.89 82.5741C182.99 82.6097 183.081 82.6693 183.153 82.7478C183.412 82.9724 183.601 83.2674 183.697 83.5972C183.832 84.188 183.488 84.7787 183.099 85.242C182.709 85.7053 182.25 86.1493 182.091 86.7323C182.032 86.8863 182.032 87.0571 182.091 87.2111C182.166 87.3225 182.27 87.4107 182.392 87.4659C182.945 87.7703 183.558 87.9495 184.187 87.9909C184.817 88.0323 185.447 87.9348 186.035 87.7053C186.807 87.3926 187.494 86.8559 188.288 86.5779C188.633 86.4836 188.966 86.3543 189.284 86.1918C189.511 86.0404 189.707 85.8454 189.858 85.6181C190.01 85.3908 190.115 85.1357 190.168 84.8675C190.268 84.3316 190.287 83.7837 190.226 83.242C190.129 81.1446 189.681 79.0784 188.898 77.1301C188.853 77.0045 188.776 76.8927 188.674 76.8058C188.558 76.735 188.424 76.6989 188.288 76.7016C187.301 76.5973 185.68 76.0916 184.727 76.4583C184.394 76.6412 184.106 76.8973 183.886 77.2074C183.708 77.4043 182.593 78.2884 182.593 78.5471Z" fill="#A1616A"/>
<path d="M182.28 77.6745C182.28 76.7324 181.123 74.4584 182.963 74.3078C182.963 73.3001 181.54 72.6746 181.806 71.6051C181.891 71.2499 182.192 70.9603 182.226 70.5974C182.342 69.5665 180.482 69.0067 180.791 68.0183C180.907 67.6322 181.316 67.4083 181.405 67.026C181.613 66.1341 180.019 65.7365 179.988 64.8214C179.988 64.5126 180.162 64.223 180.147 63.9141C180.147 63.528 179.811 63.2346 179.626 62.8987C179.143 62.0377 179.379 60.7057 178.499 60.2617C179.082 60.3118 179.271 59.447 179.031 58.918C178.792 58.3891 178.302 57.9296 178.298 57.3428C178.327 57.1301 178.327 56.9145 178.298 56.7019C178.136 56.1382 177.214 56.0918 177.06 55.5436C177.04 55.3331 177.033 55.1216 177.04 54.9104C176.979 54.4741 176.531 54.1961 176.11 54.0726C175.674 53.9983 175.253 53.848 174.868 53.6285C174.598 53.4239 174.285 53.0842 173.996 53.2425C173.888 53.3081 173.834 53.4316 173.753 53.5243C173.406 53.9297 172.742 53.7521 172.306 53.4548C171.017 52.5784 170.376 51.007 170.102 49.4742C169.829 47.9414 169.836 46.3584 169.493 44.841C169.388 44.3681 169.249 43.9036 169.076 43.4511C168.929 43.065 168.459 42.4588 168.428 42.0689C168.358 41.1809 170.195 41.787 170.894 41.8758C171.572 41.9421 172.242 42.0713 172.896 42.2619C173.594 42.5259 174.278 42.8261 174.945 43.1615C177.731 44.3932 181.096 44.5437 183.334 46.6132C184.071 47.2927 184.692 48.1846 185.649 48.4935C186.088 48.5777 186.521 48.6899 186.946 48.8294C188.007 49.3275 188.173 50.7367 188.752 51.756C188.933 52.0252 189.092 52.3093 189.226 52.6054C189.338 52.9546 189.39 53.32 189.38 53.6865L189.462 56.3621C189.593 60.8447 189.724 65.3388 189.245 69.7943C189.091 71.2653 188.86 72.7788 189.296 74.192C189.411 74.578 189.573 74.941 189.681 75.3309C189.777 75.7881 189.826 76.2538 189.828 76.7209L189.89 78.4544C189.911 78.5892 189.881 78.7272 189.805 78.8405C189.74 78.8929 189.665 78.9302 189.584 78.9496C189.503 78.9689 189.419 78.9699 189.338 78.9525C186.926 78.7363 184.488 77.3772 182.211 78.1996" fill="#434F53"/>
<path d="M292.338 210.877C308.099 210.877 320.877 209.029 320.877 206.75C320.877 204.47 308.099 202.622 292.338 202.622C276.576 202.622 263.799 204.47 263.799 206.75C263.799 209.029 276.576 210.877 292.338 210.877Z" fill="#504F60"/>
<path d="M316.891 206.951C316.389 204.8 316.077 202.912 316.077 202.912C316.077 202.912 316.192 200.572 315.143 198.816V198.229V193.904C315.442 193.119 315.807 192.361 316.235 191.638C317.006 190.279 316.235 185.298 316.235 185.298C316.235 185.298 313.352 178.275 314.051 173.82C314.749 169.364 308.132 154.036 308.132 154.036C308.172 152.558 308.381 151.089 308.753 149.658C308.823 149.357 308.852 149.048 308.838 148.739C308.838 148.701 308.838 148.666 308.838 148.627C308.838 148.589 308.838 148.65 308.838 148.662C308.737 145.724 306.414 140.218 306.414 140.218L306.727 129.724C306.727 129.724 308.209 123.546 305.793 115.226C304.948 112.327 304.408 110.006 304.064 108.215C304.026 108.014 303.987 107.829 303.956 107.632C308.93 106.859 312.731 106.242 312.731 106.242C312.731 106.242 309.845 94.1608 307.896 92.045C305.948 89.9292 304.389 83.2845 304.389 83.2845C304.389 83.2845 303.374 74.7557 305.014 72.2615C306.654 69.7673 306.885 65.4662 306.885 65.4662C306.885 65.4662 310.624 62.7635 311.095 61.5396C311.566 60.3157 312.341 57.613 312.341 56.1806C312.341 54.7482 311.874 53.478 312.029 52.7058C312.183 51.9336 310.937 49.0804 311.562 47.7213C311.724 47.3038 311.807 46.8602 311.809 46.4124C311.81 46.3996 311.81 46.3867 311.809 46.3738C311.815 45.1845 311.705 43.9975 311.481 42.8295C310.399 41.9156 309.137 41.2407 307.777 40.8488L307.695 40.5245L307.483 39.6751C307.365 39.5967 307.243 39.5246 307.117 39.4589V39.15L307.082 37.9222L307.668 35.1655C308.826 30.3702 302.425 29.6559 302.425 29.6559C302.036 28.9204 301.391 28.354 300.611 28.0652C299.326 27.6135 300.399 35.2775 300.997 35.7871C301.448 36.1732 302.845 38.5593 303.52 39.7407L303.628 39.9338C303.523 40.0289 303.425 40.1321 303.335 40.2427L303.578 41.9067L303.617 42.1615C303.193 42.6887 302.848 43.2754 302.594 43.9028C302.594 43.9028 303.752 45.1847 303.532 46.6055C303.312 48.0263 303.891 49.8294 303.918 49.9259C303.848 49.8448 303.026 48.9568 302.205 49.173C301.383 49.3892 299.087 50.0803 299.087 50.0803C299.087 50.0803 297.374 50.3815 297.543 50.7599C297.713 51.1382 296.386 52.7984 296.386 52.7984L291.778 48.4279C291.732 48.2966 291.682 48.1653 291.643 48.0418C291.455 47.4116 291.326 46.7653 291.257 46.1113C291.76 45.9919 292.252 45.8357 292.732 45.6441C293.216 45.4778 293.652 45.197 294.005 44.8256C294.472 44.2735 294.561 43.5245 294.75 42.8372C295.112 41.4936 295.907 40.3006 296.459 39.0226C297.393 36.8631 297.695 34.4822 297.327 32.1578C297.256 31.4415 297.014 30.7529 296.621 30.1501C295.869 29.1154 294.503 28.6946 293.511 27.8683C292.519 27.0421 291.879 25.7795 290.721 25.1657C289.675 24.6058 288.406 24.6715 287.225 24.8645C284.919 25.245 282.704 26.0515 280.692 27.2428C280.021 27.6289 279.28 28.1038 278.508 27.961C277.845 27.8413 277.351 27.3123 276.934 26.8027C276.939 26.7816 276.945 26.7609 276.953 26.7409C276.935 26.7221 276.918 26.7014 276.903 26.6791C276.415 27.7635 276.17 28.9416 276.185 30.1308C276.185 30.3162 276.185 30.5169 276.209 30.6829V30.876C276.209 30.93 276.209 30.9841 276.209 31.0343C276.208 31.1166 276.197 31.1985 276.174 31.2775C276.077 31.5137 275.929 31.7258 275.742 31.8991C275.6 32.0601 275.471 32.2318 275.356 32.4126C275.356 32.3509 275.394 32.2891 275.418 32.2235C275.123 32.6534 274.957 33.1582 274.939 33.679C274.918 34.0582 275.042 34.4312 275.286 34.7215C275.517 34.946 275.769 35.1477 276.039 35.3238C275.947 35.8335 275.901 36.3503 275.9 36.8682C275.909 38.4035 276.313 39.9106 277.074 41.2437C277.835 42.5768 278.927 43.6909 280.245 44.4781C280.299 44.6055 280.349 44.7368 280.399 44.8642C280.99 46.4086 281.433 48.2232 281.236 49.8834C281.236 50.0031 281.202 50.1267 281.182 50.2464C281.163 50.366 281.067 50.3738 281.017 50.4394C281.017 50.4394 273.403 50.5166 271.613 48.895C269.822 47.2734 267.091 52.8602 267.091 52.8602C267.091 52.8602 264.362 53.3892 263.815 52.8602C263.267 52.3313 260.075 52.7869 260.075 52.7869C258.768 51.6235 257.067 51.0022 255.318 51.0494C254.258 50.2436 253.089 49.5936 251.845 49.119L251.76 49.0881C251.211 48.8879 250.624 48.814 250.043 48.8719C250.043 48.8719 246.3 45.7831 245.208 44.1152C244.116 42.4473 238.918 36.289 238.895 36.262V35.9647L238.837 35.069C238.683 35.0932 238.527 35.1061 238.37 35.1076C238.343 35.0188 238.305 34.9145 238.266 34.7949C237.967 33.9211 237.598 33.0729 237.163 32.2582C237.163 32.2582 237.163 31.127 237.491 30.8412C237.819 30.5555 237.356 26.405 237.356 26.405C237.356 26.405 233.983 18.5171 230.962 24.405C230.962 24.405 225.251 28.2158 230.043 32.6559C230.043 32.6559 231.973 33.5825 232.227 34.3161C232.405 34.791 233.053 36.123 233.489 37.0188L233.686 37.4049L233.632 37.4512L233.701 38.1925L233.732 38.4782C232.829 38.9917 232.216 39.5013 232.366 39.8836C232.632 40.5377 232.815 41.2225 232.91 41.9222C232.91 41.9222 239.54 50.2309 240.396 53.7791C240.396 53.7791 258.173 64.3504 264.019 65.1033L262.985 70.3735C262.834 71.8036 262.757 73.2404 262.753 74.6784C262.831 75.8097 262.051 80.9448 262.051 80.9448C262.051 80.9448 261.036 88.4968 260.18 89.5547C259.323 90.6126 259.477 95.1414 259.477 95.1414C259.275 97.3095 258.888 99.4563 258.32 101.558C257.463 104.427 258.084 107.979 258.084 107.979C258.084 107.979 255.125 114.774 262.217 110.168C262.217 110.168 265.69 109.952 269.711 109.813C269.711 109.944 269.711 110.079 269.711 110.199C269.711 110.717 269.711 111.276 269.684 111.863C269.63 115.755 269.606 121.129 269.784 125.176C270.096 132.349 272.28 146.546 272.28 146.546V153.693C272.139 154.363 272.07 155.046 272.072 155.731C272.026 158.246 272.695 160.722 274.001 162.87L274.549 167.627C274.549 167.627 275.83 170.762 275.854 172.646C275.849 172.798 275.831 172.949 275.8 173.098C275.75 173.338 275.729 173.583 275.738 173.828C275.665 175.99 276.965 181.163 276.965 181.163C276.965 181.163 277.042 186.372 277.822 186.677C278.489 186.935 276.93 189.677 276.467 190.464C276.455 190.416 276.446 190.367 276.44 190.318L276.344 190.472C276.183 190.894 276.1 191.341 276.101 191.793C276.057 192.148 276.115 192.509 276.268 192.833C276.421 193.157 276.662 193.431 276.965 193.623C278.447 194.53 279.242 195.283 277.984 195.584C277.521 195.656 277.062 195.753 276.61 195.874C276.61 195.816 276.564 195.754 276.544 195.7C276.367 195.769 276.219 195.898 276.125 196.064C276.032 196.23 275.998 196.423 276.031 196.611C276.043 197.223 276.2 197.824 276.49 198.364C277.737 201.159 278.601 202.225 278.601 202.225L279.199 202.159C279.111 202.388 278.994 202.604 278.852 202.804C278.624 203.128 278.323 203.393 277.972 203.576C277.645 203.772 277.281 203.897 276.903 203.943C276.481 203.957 276.066 204.059 275.685 204.244C275.305 204.429 274.968 204.692 274.696 205.016C273.924 206.024 273.43 207.395 274.966 208.599L280.542 210.53C280.542 210.53 290.135 211.777 289.625 209.622C289.116 207.468 288.807 205.584 288.807 205.584C288.848 204.268 288.584 202.961 288.035 201.765C287.935 201.57 287.821 201.382 287.696 201.202L288.035 201.167C288.035 201.167 288.738 196.406 289.672 195.503C289.888 195.294 289.938 195.117 289.888 195.009C289.984 194.75 289.737 194.599 289.425 194.511L289.355 194.7C289.05 194.633 288.738 194.598 288.425 194.596C288.425 194.596 288.113 192.105 289.127 191.198C289.209 191.095 289.269 190.975 289.303 190.848C289.337 190.72 289.344 190.587 289.324 190.457C289.332 190.115 289.296 189.774 289.216 189.441C289.206 189.463 289.195 189.483 289.182 189.503C288.672 187.24 286.943 183.646 286.943 183.646C286.943 183.646 286.866 181.383 287.491 180.476C288.117 179.569 287.41 168.167 287.41 168.167C287.41 168.167 287.646 162.658 286.943 160.09C286.241 157.523 287.8 154.5 287.8 154.5C287.8 154.5 287.8 154.442 287.8 154.337V154.299L287.711 153.43C287.709 153.448 287.709 153.466 287.711 153.484C287.553 152.025 287.256 149.38 287.036 148.16C286.724 146.423 287.117 138.122 287.117 138.122L288.518 134.569L291.014 140.689L293.665 148.843C293.665 148.843 294.977 150.565 295.008 152.318C295.008 152.403 295.008 152.488 295.008 152.573C294.987 152.754 294.976 152.936 294.977 153.117C294.93 154.148 295.213 155.166 295.784 156.025C295.784 156.025 296.486 159.886 297.578 160.855C298.67 161.824 298.67 163.723 298.67 163.723C298.67 163.723 299.994 169.314 300.599 170.287C301.124 171.113 301.151 173.376 301.147 174.082C301.147 174.21 301.147 174.283 301.147 174.283C301.147 174.283 301.333 176.283 301.325 177.959C301.325 178.167 301.325 178.368 301.325 178.557C301.327 178.543 301.327 178.529 301.325 178.515C301.324 178.973 301.27 179.429 301.163 179.874L301.14 179.951C301.14 179.854 301.14 179.762 301.167 179.669C300.895 180.807 300.766 181.974 300.781 183.144C300.746 185.152 301.051 187.53 302.266 188.935C304.373 191.352 305.697 191.051 305.697 191.051C305.697 191.051 304.686 194.07 303.436 194.677C303.388 194.699 303.344 194.728 303.304 194.762C303.304 194.7 303.281 194.642 303.273 194.584C303.134 194.735 303.028 194.913 302.961 195.107C302.895 195.301 302.87 195.507 302.888 195.711C302.799 197.04 303.636 199.186 304.431 200.186C304.726 200.475 305.088 200.688 305.484 200.804C305.422 200.848 305.356 200.888 305.288 200.924C305.149 201 305.006 201.068 304.859 201.128C304.656 201.215 304.442 201.271 304.223 201.294C303.8 201.306 303.384 201.407 303.003 201.592C302.623 201.777 302.286 202.042 302.016 202.368C301.244 203.372 300.75 204.742 302.286 205.947L307.861 207.877C307.861 207.877 317.392 209.101 316.891 206.951Z" fill="url(#paint0_linear)"/>
<path d="M280.268 210.518L274.866 208.588C273.376 207.383 273.851 206.012 274.603 205.005C274.862 204.683 275.187 204.421 275.556 204.236C275.925 204.051 276.329 203.947 276.741 203.931C277.107 203.885 277.458 203.76 277.771 203.565C278.114 203.378 278.407 203.114 278.628 202.792C279.022 202.166 279.235 201.443 279.242 200.704C279.242 200.704 285.169 198.966 286.789 200.704C287.078 201.018 287.32 201.373 287.507 201.758C288.045 202.957 288.309 204.262 288.279 205.576C288.279 205.576 288.58 207.46 289.07 209.615C289.56 211.769 280.268 210.518 280.268 210.518Z" fill="#2D293D"/>
<path d="M306.677 207.854L301.275 205.924C299.785 204.719 300.26 203.348 301.012 202.344C301.269 202.022 301.593 201.759 301.962 201.574C302.33 201.388 302.734 201.285 303.146 201.271C303.36 201.249 303.568 201.193 303.764 201.105C303.906 201.045 304.045 200.977 304.18 200.9C305.689 200.07 305.65 198.032 305.65 198.032C305.65 198.032 311.574 196.294 313.198 198.032C313.415 198.267 313.606 198.526 313.765 198.804C314.78 200.561 314.668 202.904 314.668 202.904C314.668 202.904 314.969 204.792 315.44 206.943C315.911 209.093 306.677 207.854 306.677 207.854Z" fill="#2D293D"/>
<path opacity="0.1" d="M286.793 200.7C287.082 201.014 287.324 201.369 287.511 201.754L278.636 202.785C279.03 202.159 279.242 201.436 279.249 200.696C279.249 200.696 285.172 198.962 286.793 200.7Z" fill="black"/>
<path opacity="0.1" d="M313.773 198.812V200.476C312.392 202.75 305.712 202.252 303.771 201.113C303.914 201.053 304.053 200.984 304.188 200.908C305.697 200.078 305.658 198.04 305.658 198.04C305.658 198.04 311.581 196.302 313.206 198.04C313.423 198.275 313.613 198.534 313.773 198.812Z" fill="black"/>
<path d="M314.826 191.638C314.413 192.363 314.061 193.121 313.773 193.904V199.87C312.26 202.36 304.416 201.53 303.354 200.171C302.293 198.812 301.186 195.275 302.378 194.661C303.571 194.047 304.566 191.036 304.566 191.036C304.566 191.036 303.281 191.337 301.244 188.92C299.206 186.503 299.812 181.144 300.19 179.862C300.569 178.58 300.19 174.275 300.19 174.275C300.19 174.275 300.268 171.252 299.666 170.272C299.064 169.291 297.779 163.708 297.779 163.708C297.779 163.708 297.779 161.82 296.721 160.839C295.664 159.859 294.985 156.005 294.985 156.005C294.367 155.043 294.101 153.895 294.233 152.758C294.456 150.87 292.948 148.832 292.948 148.832L290.382 140.674L287.966 134.558L286.608 138.106C286.608 138.106 286.222 146.411 286.534 148.145C286.847 149.878 287.306 154.488 287.306 154.488C287.306 154.488 285.797 157.507 286.477 160.075C287.156 162.642 286.909 168.16 286.909 168.16C286.909 168.16 287.588 179.557 286.982 180.465C286.376 181.372 286.453 183.638 286.453 183.638C286.453 183.638 289.54 190.279 288.568 191.186C287.596 192.094 287.889 194.584 287.889 194.584C287.889 194.584 290 194.584 289.097 195.491C288.194 196.399 287.511 201.155 287.511 201.155L278.385 202.225C278.385 202.225 277.551 201.171 276.344 198.364C275.136 195.557 276.567 195.874 277.783 195.569C278.998 195.264 278.231 194.515 276.795 193.607C275.36 192.7 276.193 190.661 276.193 190.661C276.193 190.661 278.381 186.962 277.625 186.661C276.868 186.36 276.795 181.148 276.795 181.148C276.795 181.148 275.286 174.97 275.665 173.295C276.043 171.619 274.457 167.635 274.457 167.635L273.928 162.878C272.314 160.179 271.724 156.988 272.269 153.89V146.554C272.269 146.554 270.154 132.361 269.853 125.187C269.66 120.593 269.714 114.323 269.776 110.411C269.815 108.218 269.853 106.763 269.853 106.763L302.452 103.365C302.452 103.365 302.421 104.871 303.042 108.211C303.378 110.002 303.899 112.323 304.717 115.222C307.055 123.527 305.623 129.716 305.623 129.716L305.319 140.214C305.319 140.214 308.186 147.233 307.584 149.65C307.22 151.085 307.015 152.556 306.974 154.036C306.974 154.036 313.387 169.364 312.708 173.82C312.029 178.275 314.819 185.298 314.819 185.298C314.819 185.298 315.583 190.279 314.826 191.638Z" fill="#434F53"/>
<path opacity="0.05" d="M296.189 152.303L306.113 150.978C306.113 150.978 300.491 156.72 296.189 152.303Z" fill="black"/>
<path opacity="0.1" d="M304.678 141.276C304.678 141.276 305.018 144.789 302.868 146.11C302.868 146.11 306.715 145.507 304.678 141.276Z" fill="black"/>
<path opacity="0.1" d="M304.068 130.102C304.068 130.102 295.772 136.936 292.755 136.369C289.737 135.801 304.068 130.102 304.068 130.102Z" fill="black"/>
<path opacity="0.1" d="M283.887 155.507C283.887 155.507 277.586 156.94 277.397 159.473C277.208 162.005 283.887 155.507 283.887 155.507Z" fill="black"/>
<path opacity="0.05" d="M285.273 186.997C285.273 186.997 276.371 188.657 278.898 189.789C281.426 190.92 285.577 191.827 285.577 191.827C285.577 191.827 288.452 191.978 285.273 186.997Z" fill="black"/>
<g opacity="0.05">
<path opacity="0.05" d="M277.1 191.588C276.876 191.448 276.687 191.259 276.546 191.036C276.405 190.813 276.316 190.561 276.286 190.298L276.193 190.457C276.193 190.457 275.364 192.495 276.799 193.399C276.961 193.503 277.119 193.607 277.262 193.708C277.528 193.657 277.814 193.619 278.088 193.549C279.303 193.248 278.535 192.495 277.1 191.588Z" fill="black"/>
<path opacity="0.05" d="M288.568 190.982C288.815 190.758 288.807 190.179 288.657 189.437C288.271 190.02 288.159 190.932 288.151 191.623C288.245 191.383 288.387 191.165 288.568 190.982Z" fill="black"/>
<path opacity="0.05" d="M287.198 153.419C286.87 154.312 286.668 155.246 286.596 156.195C286.768 155.539 286.999 154.901 287.287 154.287L287.198 153.419Z" fill="black"/>
<path opacity="0.05" d="M307.587 149.457C307.647 149.186 307.674 148.909 307.668 148.631C307.557 149.195 307.479 149.716 307.422 150.175C307.472 149.94 307.526 149.716 307.587 149.457Z" fill="black"/>
<path opacity="0.05" d="M286.986 180.264C287.109 180.078 287.179 179.453 287.21 178.584C286.931 179.256 286.783 179.976 286.774 180.704C286.826 180.549 286.898 180.401 286.986 180.264Z" fill="black"/>
<path opacity="0.05" d="M288.838 194.503C288.37 196.017 288.023 197.567 287.8 199.136L278.674 200.19C278.674 200.19 277.841 199.136 276.633 196.329C276.536 196.112 276.449 195.891 276.375 195.665C275.827 195.916 275.603 196.484 276.328 198.14C277.536 200.935 278.373 202.001 278.373 202.001L287.499 200.943C287.499 200.943 288.178 196.186 289.081 195.279C289.544 194.843 289.259 194.615 288.838 194.503Z" fill="black"/>
<path opacity="0.05" d="M276.799 180.943C276.799 180.943 276.872 186.152 277.629 186.453C278.015 185.592 278.265 184.773 277.926 184.638C277.154 184.337 277.096 179.125 277.096 179.125C277.096 179.125 275.587 172.947 275.966 171.272C276.344 169.596 274.758 165.611 274.758 165.611L274.229 160.855C272.615 158.156 272.025 154.965 272.57 151.866V144.531C272.57 144.531 270.455 130.338 270.154 123.164C269.961 118.57 270.015 112.299 270.077 108.388C270.077 107.682 270.1 107.056 270.112 106.527L269.853 106.554C269.853 106.554 269.811 108.006 269.776 110.203C269.714 114.114 269.657 120.384 269.853 124.975C270.154 132.149 272.265 146.345 272.265 146.345V153.681C271.723 156.779 272.314 159.968 273.928 162.666L274.453 167.422C274.453 167.422 276.039 171.422 275.661 173.086C275.283 174.75 276.799 180.943 276.799 180.943Z" fill="black"/>
<path opacity="0.05" d="M303.663 198.155C302.922 197.081 302.428 195.856 302.216 194.569C301.286 195.41 302.355 198.677 303.374 199.974C304.427 201.333 312.276 202.163 313.792 199.669V198.233C311.736 200.252 304.659 199.441 303.663 198.155Z" fill="black"/>
<path opacity="0.05" d="M315.131 189.623C314.717 190.348 314.364 191.106 314.074 191.889V192.959C314.248 192.572 314.491 192.055 314.846 191.445C315.084 190.851 315.197 190.213 315.177 189.572C315.177 189.572 315.143 189.607 315.131 189.623Z" fill="black"/>
<path opacity="0.05" d="M304.126 190.816C304.413 190.234 304.662 189.634 304.871 189.02C304.871 189.02 303.586 189.322 301.549 186.905C300.067 185.148 299.982 181.827 300.194 179.658C299.808 180.943 299.21 186.302 301.248 188.719C302.579 190.298 303.586 190.715 304.126 190.816Z" fill="black"/>
<path opacity="0.05" d="M300.19 174.071C300.324 175.558 300.374 177.052 300.341 178.546C300.379 178.31 300.43 178.077 300.495 177.847C300.881 176.561 300.495 172.26 300.495 172.26C300.495 172.26 300.572 169.237 299.967 168.256C299.361 167.276 298.099 161.685 298.099 161.685C298.099 161.685 298.099 159.797 297.042 158.816C295.984 157.836 295.305 153.982 295.305 153.982C294.682 153.021 294.409 151.874 294.534 150.735C294.761 148.847 293.252 146.809 293.252 146.809L290.686 138.654L288.271 132.539L286.909 136.091C286.909 136.091 286.909 136.539 286.862 137.249L287.966 134.365L290.382 140.469L292.948 148.623C292.948 148.623 294.456 150.662 294.229 152.55C294.104 153.689 294.377 154.836 295 155.797C295 155.797 295.68 159.658 296.737 160.631C297.794 161.604 297.79 163.5 297.79 163.5C297.79 163.5 299.075 169.086 299.677 170.063C300.279 171.04 300.19 174.071 300.19 174.071Z" fill="black"/>
</g>
<path d="M306.526 35.1539L305.959 37.9106L305.994 39.1384L306.017 40.0419L302.868 40.3662L302.517 39.7137C301.865 38.5323 300.511 36.1307 300.075 35.7601C299.492 35.2736 298.454 27.6058 299.689 28.0614C300.449 28.3551 301.073 28.9205 301.441 29.6482C301.441 29.6482 307.642 30.3586 306.526 35.1539Z" fill="#FFCDD3"/>
<path opacity="0.1" d="M306.017 40.0419L302.868 40.3662L302.517 39.7137C302.941 39.2313 303.518 38.9107 304.151 38.8065C304.785 38.7023 305.434 38.821 305.99 39.1423L306.017 40.0419Z" fill="black"/>
<path d="M306.812 41.5361L302.66 42.4974L302.571 41.8797L302.336 40.2156C302.336 40.2156 303.98 38.0226 306.357 39.6674L306.565 40.5129L306.812 41.5361Z" fill="#629F8B"/>
<path d="M239.555 35.4551L235.121 37.8334L234.735 36.9995C234.315 36.1153 233.686 34.7833 233.512 34.2968C233.25 33.5632 231.402 32.6366 231.402 32.6366C226.771 28.2004 232.289 24.3858 232.289 24.3858C235.214 18.4978 238.463 26.3857 238.463 26.3857C238.463 26.3857 238.918 30.544 238.598 30.822C238.278 31.0999 238.278 32.2389 238.278 32.2389C238.7 33.0549 239.058 33.9031 239.347 34.7756C239.482 35.1964 239.555 35.4551 239.555 35.4551Z" fill="#FFCDD3"/>
<path opacity="0.1" d="M239.555 35.4551L235.121 37.8334L234.735 36.9995C235.361 36.4744 237.579 34.6829 238.309 34.7562C238.657 34.7997 239.008 34.8088 239.358 34.7833C239.482 35.1964 239.555 35.4551 239.555 35.4551Z" fill="black"/>
<path d="M240.006 36.7948L235.025 39.2504L234.925 38.1809L234.855 37.4396C234.855 37.4396 237.741 34.9647 238.594 35.0613C239.025 35.1238 239.463 35.1238 239.895 35.0613L239.952 35.957L240.006 36.7948Z" fill="#629F8B"/>
<path d="M294.453 53.4664C294.453 53.4664 272.736 55.9181 276.795 54.5977C279.62 53.6749 280.743 51.895 280.978 49.8873C281.171 48.2155 280.739 46.4124 280.171 44.8681C279.661 43.498 279.015 42.1826 278.242 40.9415C278.242 40.9415 294.835 31.8065 291.52 40.1114C291.009 41.3675 290.691 42.6941 290.578 44.0457C290.479 45.3888 290.624 46.7389 291.007 48.0302C291.633 50.1254 292.825 52.0067 294.453 53.4664Z" fill="#FFCDD3"/>
<path opacity="0.1" d="M291.508 40.0998C290.997 41.356 290.68 42.6825 290.567 44.0341C289.004 45.3507 287.291 45.2619 285.087 45.2619C283.397 45.2619 281.522 45.6711 280.172 44.8565C279.661 43.4864 279.015 42.171 278.242 40.9299C278.242 40.9299 294.831 31.7949 291.508 40.0998Z" fill="black"/>
<path d="M284.794 45.841C289.753 45.841 293.773 41.8186 293.773 36.8566C293.773 31.8946 289.753 27.8722 284.794 27.8722C279.835 27.8722 275.815 31.8946 275.815 36.8566C275.815 41.8186 279.835 45.841 284.794 45.841Z" fill="#FFCDD3"/>
<path opacity="0.1" d="M294.453 53.4664C294.453 53.4664 272.736 55.9181 276.795 54.5977C279.62 53.6749 280.743 51.895 280.978 49.8873C282.058 48.729 284.231 47.868 285.608 47.4201C286.882 46.9916 288.257 46.9687 289.544 47.3545C290.05 47.5071 290.532 47.7307 290.976 48.0186C291.609 50.1215 292.812 52.0074 294.453 53.4664Z" fill="black"/>
<path opacity="0.1" d="M306.812 41.5361L302.66 42.4974L302.571 41.8797C303.016 41.2687 303.638 40.8097 304.352 40.5651C305.067 40.3205 305.84 40.3023 306.565 40.5129L306.812 41.5361Z" fill="black"/>
<path opacity="0.1" d="M240.006 36.7948L235.025 39.2504L234.925 38.1809C236.538 37.3128 238.215 36.5681 239.941 35.9531L240.006 36.7948Z" fill="black"/>
<path opacity="0.1" d="M303.042 108.218C294.626 109.562 282.664 111.276 280.766 110.697C279.188 110.218 274.156 110.269 269.776 110.419C269.815 108.226 269.853 106.771 269.853 106.771L302.452 103.373C302.452 103.373 302.421 104.879 303.042 108.218Z" fill="black"/>
<path d="M311.431 106.242C311.431 106.242 283.737 110.998 280.766 110.103C277.795 109.207 262.533 110.176 262.533 110.176C255.665 114.782 258.532 107.987 258.532 107.987C258.532 107.987 257.93 104.439 258.76 101.57C259.317 99.4638 259.698 97.3148 259.898 95.1453C259.898 95.1453 259.747 90.6126 260.577 89.5547C261.407 88.4968 262.391 80.9486 262.391 80.9486C262.391 80.9486 263.143 75.8136 263.07 74.6823C262.996 73.551 263.294 70.3773 263.294 70.3773L264.278 65.0917C258.617 64.3388 241.411 53.7675 241.411 53.7675C240.581 50.2193 234.168 41.9144 234.168 41.9144C234.075 41.2161 233.897 40.5316 233.64 39.8759C233.188 38.6674 239.979 36.2504 239.979 36.2504C239.979 36.2504 245.034 42.4279 246.092 44.1036C247.149 45.7792 250.768 48.8603 250.768 48.8603C251.331 48.8024 251.899 48.8764 252.428 49.0765L252.516 49.1035C253.729 49.58 254.867 50.2303 255.893 51.034C257.594 50.9936 259.245 51.6166 260.496 52.7714C260.496 52.7714 263.583 52.3158 264.119 52.8448C264.656 53.3737 267.287 52.8448 267.287 52.8448C267.287 52.8448 269.927 47.258 271.663 48.8796C273.399 50.5012 280.766 50.424 280.766 50.424C281.746 49.119 284.134 48.1846 285.628 47.7213C286.902 47.2945 288.276 47.2716 289.564 47.6557C290.119 47.8215 290.641 48.0828 291.107 48.4279L295.587 52.8062C295.587 52.8062 296.868 51.1421 296.718 50.7676C296.567 50.3931 298.226 50.0881 298.226 50.0881C298.226 50.0881 300.414 49.4085 301.244 49.1807C302.073 48.9529 302.834 49.8525 302.903 49.9336C302.876 49.8371 302.309 48.0032 302.517 46.6132C302.725 45.2233 301.61 43.9106 301.61 43.9106C304.25 37.4164 310.211 42.8526 310.211 42.8526C310.211 42.8526 310.89 46.4009 310.289 47.7599C309.687 49.119 310.89 51.9876 310.74 52.7444C310.59 53.5011 311.045 54.783 311.045 56.2192C311.045 57.6555 310.273 60.3698 309.837 61.5782C309.401 62.7867 305.762 65.5048 305.762 65.5048C305.762 65.5048 305.535 69.8098 303.949 72.3001C302.363 74.7904 303.358 83.3077 303.358 83.3077C303.358 83.3077 304.867 89.9523 306.754 92.0681C308.641 94.1839 311.431 106.242 311.431 106.242Z" fill="#3D5655"/>
<path opacity="0.1" d="M271.061 56.559C271.061 56.559 270.231 54.0687 269.475 53.8563C268.724 53.58 267.993 53.2523 267.287 52.8757L267.774 51.9452C267.774 51.9452 270.606 52.7174 271.061 53.5552C271.516 54.393 271.061 56.559 271.061 56.559Z" fill="black"/>
<path opacity="0.1" d="M255.893 51.0494C255.742 51.8216 249.024 52.4819 249.024 52.4819L252.42 49.0765L252.505 49.1074C253.722 49.5864 254.864 50.2407 255.893 51.0494Z" fill="black"/>
<path d="M236.46 41.289C236.793 41.289 237.062 41.0193 237.062 40.6867C237.062 40.354 236.793 40.0844 236.46 40.0844C236.128 40.0844 235.858 40.354 235.858 40.6867C235.858 41.0193 236.128 41.289 236.46 41.289Z" fill="#575988"/>
<path d="M237.232 42.4974C237.564 42.4974 237.834 42.2278 237.834 41.8951C237.834 41.5625 237.564 41.2928 237.232 41.2928C236.9 41.2928 236.63 41.5625 236.63 41.8951C236.63 42.2278 236.9 42.4974 237.232 42.4974Z" fill="#575988"/>
<path d="M237.988 43.6133C238.321 43.6133 238.59 43.3436 238.59 43.011C238.59 42.6783 238.321 42.4086 237.988 42.4086C237.656 42.4086 237.386 42.6783 237.386 43.011C237.386 43.3436 237.656 43.6133 237.988 43.6133Z" fill="#575988"/>
<path d="M238.779 44.8179C239.112 44.8179 239.381 44.5482 239.381 44.2156C239.381 43.8829 239.112 43.6133 238.779 43.6133C238.447 43.6133 238.177 43.8829 238.177 44.2156C238.177 44.5482 238.447 44.8179 238.779 44.8179Z" fill="#575988"/>
<path d="M309.91 44.6403C310.181 44.6403 310.4 44.4207 310.4 44.1499C310.4 43.8791 310.181 43.6596 309.91 43.6596C309.64 43.6596 309.42 43.8791 309.42 44.1499C309.42 44.4207 309.64 44.6403 309.91 44.6403Z" fill="#575988"/>
<path d="M309.988 45.7561C310.258 45.7561 310.478 45.5365 310.478 45.2657C310.478 44.9949 310.258 44.7754 309.988 44.7754C309.717 44.7754 309.497 44.9949 309.497 45.2657C309.497 45.5365 309.717 45.7561 309.988 45.7561Z" fill="#575988"/>
<path d="M310.053 46.868C310.324 46.868 310.543 46.6485 310.543 46.3777C310.543 46.1069 310.324 45.8874 310.053 45.8874C309.783 45.8874 309.563 46.1069 309.563 46.3777C309.563 46.6485 309.783 46.868 310.053 46.868Z" fill="#575988"/>
<path opacity="0.1" d="M271.088 77.022C271.015 76.9332 288.028 98.4271 301.232 86.0065C301.244 86.0103 280.38 88.8404 271.088 77.022Z" fill="black"/>
<path opacity="0.1" d="M261.326 88.1956C261.326 88.1956 271.505 88.4736 272.57 91.4041V94.4542C272.28 94.6151 271.954 94.6995 271.623 94.6995C271.291 94.6995 270.965 94.6151 270.675 94.4542C269.649 93.8982 263.494 90.7709 261.326 92.2766V88.1956Z" fill="black"/>
<path d="M261.515 88.1956C261.515 88.1956 271.25 88.462 272.269 91.2573V94.1608C271.991 94.3149 271.679 94.3958 271.362 94.3958C271.045 94.3958 270.733 94.3149 270.455 94.1608C269.475 93.6357 263.591 90.6512 261.515 92.0874V88.1956Z" fill="#3F3D56"/>
<path opacity="0.1" d="M266.882 66.0801C267.922 68.4887 269.247 70.7637 270.83 72.8561C272.55 75.1688 274.635 77.1861 277.004 78.8289C277.004 78.8289 267.052 67.4778 266.882 66.0801Z" fill="black"/>
<path opacity="0.1" d="M263.552 54.2463C263.552 54.2463 265.25 61.5821 269.626 64.0724L263.552 54.2463Z" fill="black"/>
<path opacity="0.1" d="M260.947 54.9876C260.905 54.8525 259.439 60.779 266.589 64.0724C266.589 64.0724 263.552 63.0415 260.947 54.9876Z" fill="black"/>
<path opacity="0.1" d="M305.396 50.0688C305.284 50.0688 308.923 52.3853 309.914 53.4664C309.914 53.4664 307.545 49.9143 305.396 50.0688Z" fill="black"/>
<path d="M282.367 44.9993C282.368 45.1953 282.41 45.3889 282.49 45.5679C282.57 45.7468 282.686 45.9072 282.832 46.0389C282.977 46.1707 283.147 46.2708 283.333 46.3331C283.519 46.3954 283.715 46.4185 283.911 46.4009C286.646 46.5707 289.498 46.6904 292.014 45.6287C292.486 45.4601 292.909 45.1792 293.249 44.8101C293.696 44.258 293.785 43.509 293.966 42.8218C294.321 41.4781 295.078 40.2851 295.622 39.0071C296.542 36.848 296.851 34.4769 296.513 32.154C296.442 31.4419 296.207 30.756 295.826 30.1501C295.101 29.1115 293.777 28.6907 292.816 27.8645C291.856 27.0382 291.238 25.7757 290.115 25.1618C289.104 24.5981 287.866 24.6676 286.727 24.8606C284.488 25.2411 282.343 26.0471 280.407 27.2351C279.755 27.6212 279.041 28.0961 278.292 27.9533C277.636 27.8297 277.158 27.2776 276.749 26.7602C276.223 27.9958 276.002 29.34 276.104 30.6791C276.133 30.8756 276.126 31.0756 276.085 31.2698C275.991 31.5046 275.847 31.7166 275.665 31.8914C274.989 32.6636 274.569 33.9184 275.236 34.7138C275.526 35.0574 275.973 35.2466 276.255 35.5979C276.76 36.2273 276.591 37.1423 276.579 37.9454C276.551 38.2258 276.622 38.5071 276.78 38.7407C276.926 38.8769 277.104 38.973 277.298 39.0197C277.492 39.0663 277.695 39.062 277.887 39.0071C278.269 38.8919 278.671 38.8539 279.068 38.8952C279.486 39.0313 279.847 39.303 280.094 39.6674C281.341 41.2928 281.835 43.0611 282.367 44.9993Z" fill="#2D293D"/>
<g opacity="0.1">
<path opacity="0.1" d="M293.569 44.1268C293.23 44.4958 292.806 44.7767 292.334 44.9453C289.803 45.9993 286.955 45.8796 284.231 45.7175C283.938 45.7204 283.649 45.6556 283.386 45.5283C282.969 45.285 282.811 44.7754 282.684 44.3121C282.151 42.3816 281.661 40.6094 280.395 38.9994C280.151 38.628 279.79 38.3493 279.369 38.2079C278.972 38.1704 278.571 38.2084 278.188 38.3199C277.997 38.3753 277.794 38.3802 277.6 38.3342C277.406 38.2882 277.227 38.1928 277.081 38.0574C276.923 37.8238 276.852 37.5424 276.88 37.262C276.88 36.4512 277.061 35.5439 276.556 34.9145C276.274 34.5632 275.827 34.374 275.537 34.0265C275.348 33.7703 275.233 33.4677 275.202 33.1509C275.171 32.8341 275.227 32.5149 275.364 32.2273C274.881 32.9995 274.677 33.9686 275.236 34.6327C275.526 34.9763 275.973 35.1655 276.255 35.5169C276.76 36.15 276.591 37.0612 276.579 37.8643C276.549 38.1443 276.619 38.4258 276.776 38.6597C276.922 38.7965 277.102 38.8929 277.296 38.9396C277.491 38.9863 277.695 38.9817 277.887 38.9261C278.269 38.8109 278.671 38.7728 279.068 38.8141C279.486 38.9502 279.847 39.2219 280.094 39.5863C281.356 41.1963 281.85 42.9646 282.383 44.9028C282.445 45.3797 282.683 45.8162 283.05 46.1267C283.315 46.2543 283.605 46.3178 283.899 46.312C286.635 46.4819 289.486 46.6055 292.002 45.5399C292.475 45.3725 292.899 45.0914 293.237 44.7213C293.407 44.5039 293.538 44.2582 293.623 43.9955C293.627 44.0457 293.6 44.0881 293.569 44.1268Z" fill="black"/>
<path opacity="0.1" d="M276.104 31.0343C276.226 30.9026 276.319 30.7476 276.378 30.5787C276.413 30.3833 276.413 30.1833 276.378 29.988C276.303 28.8872 276.446 27.7824 276.799 26.7371L276.749 26.6791C276.221 27.9128 276 29.2562 276.104 30.5941C276.116 30.7406 276.116 30.8878 276.104 31.0343Z" fill="black"/>
</g>
<path opacity="0.1" d="M280.766 50.4433C280.766 50.4433 291.983 51.9336 292.99 50.2464L280.766 50.4433Z" fill="black"/>
<path opacity="0.1" d="M302.571 45.7986C302.571 45.7986 308.807 45.7985 310.177 48.146L302.571 45.7986Z" fill="black"/>
<path d="M337.458 254.348C335.608 256.002 333.205 256.901 330.724 256.865C330.091 256.865 329.215 256.985 329.212 257.618C329.227 257.804 329.291 257.982 329.397 258.135C330.18 259.441 331.416 260.413 332.87 260.865C334.22 261.274 335.663 261.205 337.072 261.131L341.181 260.919C341.953 260.876 342.725 260.838 343.496 260.741C344.268 260.645 345.109 260.487 345.916 260.355C347.897 260.073 349.901 259.98 351.901 260.077C352.433 260.097 353.058 260.077 353.375 259.691C353.691 259.305 353.529 258.568 353.409 257.988C353.162 256.795 353.409 255.545 353.182 254.348C352.796 252.247 350.978 250.637 348.987 249.877C347.135 249.174 343.855 248.367 342.103 249.541C340.255 250.772 339.125 252.83 337.458 254.348Z" fill="#3F3D56"/>
<path d="M341.54 183.978C341.903 185.704 343.574 187.024 343.62 188.785C343.662 190.198 342.655 191.383 341.93 192.592C341.246 193.843 340.669 195.15 340.205 196.499C338.839 200.01 337.144 203.385 335.142 206.576C334.178 208.12 333.097 209.769 333.317 211.564C333.471 212.404 333.767 213.211 334.193 213.951L337.087 219.703C337.721 220.852 338.217 222.071 338.565 223.336C338.816 224.429 338.839 225.56 338.986 226.672C339.441 230.201 341.096 233.753 340.116 237.174C340.031 237.468 339.73 237.823 339.495 237.618C340.452 239.406 341.22 241.205 341.147 243.232C341.108 244.294 340.784 245.402 341.174 246.39C341.339 246.803 341.629 247.189 341.625 247.633C341.625 247.927 341.49 248.201 341.459 248.487C341.378 249.301 342.127 249.981 342.902 250.24C343.678 250.498 344.523 250.479 345.306 250.714C346.811 251.166 347.888 252.463 349.165 253.363C350.475 254.266 352.019 254.769 353.61 254.811C353.837 254.835 354.066 254.789 354.266 254.68C354.379 254.58 354.47 254.458 354.533 254.321C354.596 254.184 354.628 254.035 354.629 253.884C354.699 253.163 354.59 252.436 354.313 251.767C354.036 251.097 353.598 250.507 353.039 250.047C352.794 249.893 352.591 249.681 352.449 249.429C352.377 249.206 352.358 248.969 352.395 248.738C352.627 245.573 352.571 242.394 352.225 239.24C352.069 238.24 352.018 237.227 352.074 236.217C352.155 235.375 352.41 234.541 352.317 233.703C352.225 232.865 351.796 232.101 351.546 231.294C351.098 229.858 351.222 228.313 351.16 226.811C351.083 224.201 350.484 221.638 349.89 219.089C349.655 218.089 349.396 217.043 348.69 216.302C348.088 215.673 347.116 215.07 347.344 214.232C347.47 213.924 347.657 213.644 347.895 213.41C348.175 213.059 348.38 212.655 348.498 212.222C348.616 211.789 348.645 211.337 348.582 210.893C348.836 210.957 349.104 210.932 349.342 210.821C349.579 210.71 349.77 210.519 349.883 210.283C354.582 208.063 358.372 203.622 360.062 198.7C360.161 198.334 360.315 197.985 360.517 197.665C360.953 197.055 361.709 196.792 362.381 196.457C364.488 195.395 365.942 193.406 367.277 191.46C368.049 190.333 368.821 189.167 369.168 187.839C369.351 186.98 369.437 186.103 369.427 185.225L369.546 180.688C369.573 180.39 369.544 180.089 369.461 179.8C369.347 179.531 369.18 179.287 368.971 179.082C367.688 177.724 366.003 176.815 364.163 176.488C362.929 176.268 361.667 176.31 360.417 176.206C357.993 176.005 355.601 175.252 353.178 175.434C349.369 175.716 345.978 178.356 344.183 181.731C343.554 182.92 342.891 183.955 341.54 183.978Z" fill="#434F53"/>
<path d="M320.394 154.48C320.446 155.181 320.351 155.884 320.117 156.546C319.82 157.179 319.075 157.673 318.423 157.415C318.619 156.971 318.099 156.465 317.612 156.519C317.373 156.574 317.151 156.687 316.965 156.847C316.779 157.007 316.634 157.21 316.544 157.438C316.221 158.086 316.113 158.82 316.235 159.534C316.389 160.422 316.902 161.276 316.767 162.167C316.659 162.909 316.115 163.646 316.405 164.333C316.592 164.647 316.828 164.93 317.103 165.171C317.484 165.641 317.671 166.24 317.624 166.843C317.577 167.446 317.301 168.009 316.852 168.415L324.153 168.561C323.887 169.781 324.435 171.028 325.06 172.113C326.81 175.096 329.228 177.632 332.123 179.524C335.018 181.415 338.311 182.609 341.745 183.013C341.559 183.121 341.4 183.27 341.278 183.447C341.157 183.625 341.077 183.827 341.043 184.04C341.01 184.252 341.024 184.469 341.084 184.676C341.145 184.882 341.25 185.072 341.393 185.233C341.988 185.824 342.995 185.75 343.74 185.368C344.484 184.986 345.067 184.353 345.746 183.862C346.945 183.012 348.408 182.618 349.871 182.75C350.786 182.839 351.673 183.136 352.591 183.183C355.292 183.325 357.608 181.38 360.208 180.584C362.103 180.001 364.252 180.001 365.842 178.816C366.529 178.306 367.092 177.468 366.892 176.642C366.726 176.167 366.463 175.732 366.12 175.364C365.205 174.179 364.665 172.754 364.009 171.407C362.71 168.739 360.92 166.34 358.734 164.333C357.084 162.891 355.336 161.564 353.502 160.364C353.059 160.037 352.586 159.751 352.09 159.511C351.449 159.229 350.739 159.094 350.16 158.739C349.304 158.198 348.81 157.245 348.15 156.476C346.703 154.785 344.48 154.009 342.698 152.681C341.502 151.789 340.444 150.616 339.017 150.187C338.322 149.975 337.585 149.959 336.89 149.751C335.312 149.272 334.162 147.87 332.615 147.303C331.392 146.855 330.041 146.971 328.756 146.813C327.308 146.634 325.924 146.106 324.724 145.276C324.337 144.961 323.904 144.708 323.439 144.527C321.483 143.932 321.324 147.577 321.124 148.84C320.865 150.716 320.394 152.581 320.394 154.48Z" fill="#629F8B"/>
<path d="M322.301 166.704C322.629 170.264 319.943 173.712 320.726 177.198C320.892 177.939 321.213 178.646 321.328 179.399C321.656 181.465 320.421 183.422 319.245 185.152L309.135 199.997C308.729 200.649 308.244 201.248 307.692 201.781C305.762 203.499 302.861 203.325 300.322 203.835C298.538 204.202 296.854 204.947 295.382 206.02C295.316 206.071 295.273 206.147 295.261 206.23C295.25 206.313 295.271 206.397 295.321 206.464C295.74 207.035 296.295 207.492 296.936 207.794C297.577 208.095 298.283 208.231 298.99 208.19C299.257 208.537 298.99 209.055 298.624 209.306C298.084 209.692 297.335 209.781 297.227 210.703C297.19 211.024 297.255 211.348 297.412 211.63C297.821 212.252 298.454 212.692 299.179 212.858C302.679 213.931 306.461 212.047 309.081 209.487C311.701 206.927 313.58 203.696 316.15 201.094C317.574 199.65 319.191 198.418 320.657 197.02C323.582 194.229 325.858 190.843 328.05 187.449C328.71 186.426 329.377 185.376 329.651 184.19C329.925 183.005 329.798 181.804 330.111 180.658C330.52 179.156 331.619 177.955 332.534 176.696C334.328 174.225 335.528 171.202 335.289 168.156C335.05 165.11 333.167 162.106 330.296 161.071C329.405 160.717 328.425 160.657 327.498 160.901C326.321 161.264 325.453 162.237 324.651 163.171L322.721 165.388C322.251 165.878 321.883 166.457 321.637 167.09C321.513 167.409 321.483 167.757 321.551 168.093C321.62 168.429 321.783 168.737 322.023 168.982" fill="#FBBEBE"/>
<path d="M327.425 152.102C326.098 152.179 324.635 152.31 323.698 153.26C323.304 153.696 322.986 154.195 322.756 154.735C321.845 156.592 320.958 158.534 320.892 160.604C320.838 162.256 321.317 163.874 321.568 165.507C321.776 166.866 321.247 168.252 321.147 169.627C322.795 169.121 324.971 168.434 326.464 167.581C327.483 166.998 328.467 166.333 329.578 165.963C331.164 165.434 333.823 166.349 335.331 167.082C335.412 166.025 334.618 164.179 334.702 163.117C334.714 162.67 334.794 162.228 334.938 161.805C335.164 161.357 335.431 160.932 335.737 160.534C336.311 159.6 336.575 158.508 336.491 157.414C336.407 156.32 335.98 155.281 335.27 154.446C333.931 152.94 331.835 152.376 329.837 152.129C328.578 151.983 327.309 151.939 326.044 151.998" fill="#629F8B"/>
<defs>
<linearGradient id="paint0_linear" x1="272.508" y1="210.877" x2="272.508" y2="22.2082" gradientUnits="userSpaceOnUse">
<stop stop-color="#808080" stop-opacity="0.25"/>
<stop offset="0.54" stop-color="#808080" stop-opacity="0.12"/>
<stop offset="1" stop-color="#808080" stop-opacity="0.1"/>
</linearGradient>
</defs>
</svg>
