<svg width="41" height="41" viewBox="0 0 41 41" fill="none" xmlns="http://www.w3.org/2000/svg">
<path fill-rule="evenodd" clip-rule="evenodd" d="M35.6039 10.3417H40.3246V40.3417H5.04529V30.3417H0.324585V0.341667H35.6039V10.3417ZM38.6446 12.3417H6.72526V38.3417H38.6446V12.3417ZM22.6849 14.3417C27.7853 14.3417 31.9248 19.2697 31.9248 25.3417C31.9248 31.4137 27.7853 36.3417 22.6849 36.3417C17.5846 36.3417 13.4451 31.4137 13.4451 25.3417C13.4451 19.2697 17.5846 14.3417 22.6849 14.3417ZM22.6849 16.3417C26.858 16.3417 30.2448 20.3737 30.2448 25.3417C30.2448 30.3097 26.858 34.3417 22.6849 34.3417C18.5119 34.3417 15.1251 30.3097 15.1251 25.3417C15.1251 20.3737 18.5119 16.3417 22.6849 16.3417ZM23.5249 32.3417H21.845V30.7337C20.5564 30.4137 19.362 29.3557 19.362 27.3257H21.0789C21.0789 28.5077 21.6266 29.0977 22.7219 29.0977C24.0944 29.0977 24.9512 27.2677 22.4413 26.2197C21.1511 25.6797 19.619 24.8677 19.619 22.8337C19.619 21.2417 20.5816 20.2397 21.845 19.9377V18.3417H23.5249V19.9537C24.7076 20.2757 25.7307 21.2997 25.7307 23.1497H24.0205C24.0205 21.5737 22.7992 21.5977 22.6513 21.5977C21.7274 21.5977 21.3292 22.1797 21.3292 22.8417C21.3292 23.3357 21.5543 23.8357 22.9369 24.3777C24.711 25.0657 25.7307 26.0677 25.7307 27.8697C25.7307 29.1717 25.0991 30.4457 23.5249 30.7657V32.3417V32.3417ZM33.9239 10.3417V2.34167H2.00455V28.3417H5.04529V10.3417H33.9239Z" fill="white"/>
</svg>
