<svg width="40" height="40" viewBox="0 0 40 40" fill="none" xmlns="http://www.w3.org/2000/svg">
<g clip-path="url(#clip0)">
<path fill-rule="evenodd" clip-rule="evenodd" d="M35.3167 11.6667H40V36.6667H5.00001V28.3333H0.316681V3.33334H35.3167V11.6667ZM38.3333 13.3333H6.66668V35H38.3333V13.3333ZM22.5 15C27.56 15 31.6667 19.1067 31.6667 24.1667C31.6667 29.2267 27.56 33.3333 22.5 33.3333C17.44 33.3333 13.3333 29.2267 13.3333 24.1667C13.3333 19.1067 17.44 15 22.5 15ZM22.5 16.6667C26.64 16.6667 30 20.0267 30 24.1667C30 28.3067 26.64 31.6667 22.5 31.6667C18.36 31.6667 15 28.3067 15 24.1667C15 20.0267 18.36 16.6667 22.5 16.6667ZM23.3333 30H21.6667V28.66C20.3883 28.3933 19.2034 27.5117 19.2034 25.82H20.9067C20.9067 26.805 21.45 27.2967 22.5367 27.2967C23.8983 27.2967 24.7483 25.7717 22.2583 24.8983C20.9783 24.4483 19.4583 23.7717 19.4583 22.0767C19.4583 20.75 20.4133 19.915 21.6667 19.6633V18.3333H23.3333V19.6767C24.5067 19.945 25.5217 20.7983 25.5217 22.34H23.825C23.825 21.0267 22.6133 21.0467 22.4667 21.0467C21.55 21.0467 21.155 21.5317 21.155 22.0833C21.155 22.495 21.3783 22.9117 22.75 23.3633C24.51 23.9367 25.5217 24.7717 25.5217 26.2733C25.5217 27.3583 24.895 28.42 23.3333 28.6867V30ZM33.65 11.6667V5H1.98335V26.6667H5.00001V11.6667H33.65Z" fill="white"/>
</g>
<defs>
<clipPath id="clip0">
<rect width="40" height="40" fill="white"/>
</clipPath>
</defs>
</svg>
