<svg width="40" height="40" viewBox="0 0 40 40" fill="none" xmlns="http://www.w3.org/2000/svg">
<g clip-path="url(#clip0)">
<path d="M26.0183 8.50886V5.33329C26.0183 4.96496 25.7198 4.66673 25.3516 4.66673H22.6849C22.6849 2.08896 20.5959 0 18.0183 0C15.4409 0 13.3518 2.08896 13.3518 4.66673C13.3518 6.50752 11.8593 7.99985 10.0185 7.99985C8.17752 7.99985 6.68503 6.50752 6.68503 4.66673V4.00001H5.35175V4.66673C5.35175 7.24418 7.44103 9.33313 10.0185 9.33313C12.5959 9.33313 14.685 7.24418 14.685 4.66673C14.685 2.82577 16.1774 1.33328 18.0183 1.33328C19.8593 1.33328 21.3516 2.82577 21.3516 4.66673H18.6849C18.3167 4.66673 18.0183 4.96496 18.0183 5.33329V8.50886C10.2174 10.5227 5.13062 18.0234 6.14614 26.0164C7.16149 34.0089 13.9614 40.0001 22.0183 40.0001C30.0753 40.0001 36.8752 34.0089 37.8904 26.0164C38.9059 18.0234 33.8191 10.5227 26.0183 8.50886ZM22.0183 38.6663C14.5398 38.665 8.26013 33.0375 7.44187 25.6037C6.62428 18.1701 11.5303 11.3119 18.8296 9.68443C19.1345 9.61668 19.3516 9.34632 19.3516 9.03373V6.00001H24.6849V9.03373C24.6849 9.34632 24.902 9.61668 25.2071 9.68443C32.5062 11.3119 37.4124 18.1701 36.5946 25.6037C35.7767 33.0375 29.4968 38.665 22.0183 38.6663Z" fill="white"/>
<path d="M5.35175 0H6.68502V2H5.35175V0Z" fill="white"/>
<path d="M2.01862 3.33328H4.01862V4.66673H2.01862V3.33328Z" fill="white"/>
<path d="M8.01846 3.33328H10.0185V4.66673H8.01846V3.33328Z" fill="white"/>
<path d="M2.21371 1.13785L3.15647 0.195257L4.48992 1.52854L3.547 2.4713L2.21371 1.13785Z" fill="white"/>
<path d="M7.54718 1.52854L8.88013 0.195257L9.82272 1.13835L8.48994 2.4713L7.54718 1.52854Z" fill="white"/>
<path d="M2.21371 6.86166L3.54699 5.52855L4.48958 6.47131L3.15647 7.80459L2.21371 6.86166Z" fill="white"/>
<path d="M23.9743 23.333H20.0624C18.9579 23.333 18.0624 22.4375 18.0624 21.333C18.0624 20.2287 18.9579 19.333 20.0624 19.333H26.0183V17.9999H22.6849V16.6666H21.3516V17.9999H20.0624C18.2214 17.9999 16.7291 19.4922 16.7291 21.333C16.7291 23.174 18.2214 24.6664 20.0624 24.6664H23.9743C25.0789 24.6664 25.9743 25.562 25.9743 26.6665C25.9743 27.7708 25.0789 28.6665 23.9743 28.6665H18.0183V29.9997H21.3516V31.333H22.6849V29.9997H23.9743C25.8152 29.9997 27.3074 28.5072 27.3074 26.6665C27.3074 24.8255 25.8152 23.333 23.9743 23.333Z" fill="white"/>
</g>
<defs>
<clipPath id="clip0">
<rect width="40" height="40" fill="white"/>
</clipPath>
</defs>
</svg>
