<svg width="72" height="72" viewBox="0 0 72 72" fill="none" xmlns="http://www.w3.org/2000/svg">
<path d="M56.25 24.75C57.7148 24.75 58.9523 23.8061 59.418 22.5H70.875V4.5H59.418C58.9523 3.19387 57.7148 2.25 56.25 2.25H51.75C50.1986 2.25 48.9015 3.30862 48.5089 4.73737L45.6412 2.826C43.9729 1.71338 42.0311 1.125 40.0252 1.125H22.5C21.2591 1.125 20.25 2.13412 20.25 3.375C20.25 4.1985 20.4885 4.96012 20.8755 5.625H15.75C13.8892 5.625 12.375 7.13925 12.375 9C12.375 9.396 12.456 9.77175 12.582 10.125H11.25C9.38925 10.125 7.875 11.6392 7.875 13.5C7.875 15.3608 9.38925 16.875 11.25 16.875H12.582C12.456 17.2283 12.375 17.604 12.375 18C12.375 19.5559 13.4381 20.8564 14.8725 21.2445C14.7161 21.6338 14.625 22.0556 14.625 22.5C14.625 24.3608 16.1392 25.875 18 25.875H40.0252C42.0311 25.875 43.9729 25.2866 45.6412 24.174L48.5078 22.2626C48.9015 23.6914 50.1986 24.75 51.75 24.75H52.875V27.1136C50.3111 27.6367 48.375 29.9081 48.375 32.625C48.375 35.3419 50.3111 37.6132 52.875 38.1364V40.6136C50.3111 41.1368 48.375 43.4081 48.375 46.125C48.375 48.6124 50.0085 50.7026 52.2506 51.4429C51.6386 52.3069 50.6362 52.875 49.5 52.875H46.125C46.125 51.0142 44.6108 49.5 42.75 49.5H41.418C40.9523 48.1939 39.7148 47.25 38.25 47.25H33.4564C30.8464 41.2976 24.9053 37.125 18 37.125C8.69513 37.125 1.125 44.6951 1.125 54C1.125 63.3049 8.69513 70.875 18 70.875C24.9053 70.875 30.8464 66.7024 33.4564 60.75H38.25C39.7148 60.75 40.9523 59.8061 41.418 58.5H42.75C44.6108 58.5 46.125 56.9858 46.125 55.125H49.5C51.8287 55.125 53.8301 53.7019 54.684 51.6802C57.4605 51.3382 59.625 48.9926 59.625 46.125C59.625 43.4092 57.6889 41.1368 55.125 40.6136V38.1364C57.6889 37.6132 59.625 35.3419 59.625 32.625C59.625 29.9081 57.6889 27.6367 55.125 27.1136V24.75H56.25ZM18 68.625C9.936 68.625 3.375 62.064 3.375 54C3.375 45.936 9.936 39.375 18 39.375C26.064 39.375 32.625 45.936 32.625 54C32.625 62.064 26.064 68.625 18 68.625ZM39.375 57.375C39.375 57.996 38.871 58.5 38.25 58.5H34.2472C34.6455 57.0645 34.875 55.5604 34.875 54C34.875 52.4396 34.6455 50.9355 34.2472 49.5H38.25C38.871 49.5 39.375 50.004 39.375 50.625V57.375ZM43.875 55.125C43.875 55.746 43.371 56.25 42.75 56.25H41.625V51.75H42.75C43.371 51.75 43.875 52.254 43.875 52.875V55.125ZM57.375 46.125C57.375 47.5898 56.4311 48.8273 55.125 49.293V47.25H52.875V49.293C51.5689 48.8273 50.625 47.5898 50.625 46.125C50.625 44.6602 51.5689 43.4227 52.875 42.957V45H55.125V42.957C56.4311 43.4227 57.375 44.6602 57.375 46.125ZM57.375 32.625C57.375 34.0898 56.4311 35.3272 55.125 35.793V33.75H52.875V35.793C51.5689 35.3272 50.625 34.0898 50.625 32.625C50.625 31.1602 51.5689 29.9228 52.875 29.457V31.5H55.125V29.457C56.4311 29.9228 57.375 31.1602 57.375 32.625ZM68.625 20.25H59.625V6.75H68.625V20.25ZM10.125 13.5C10.125 12.8801 10.629 12.375 11.25 12.375H15.75H29.25V14.625H15.75H11.25C10.629 14.625 10.125 14.1199 10.125 13.5ZM15.75 16.875H29.25V19.125H18H15.75C15.129 19.125 14.625 18.6199 14.625 18C14.625 17.3801 15.129 16.875 15.75 16.875ZM44.3936 22.302C43.0965 23.1671 41.5856 23.625 40.0252 23.625H18C17.379 23.625 16.875 23.1199 16.875 22.5C16.875 21.8801 17.379 21.375 18 21.375H29.5312C29.7731 22.0883 30.1567 22.7486 30.7046 23.2965L32.2954 21.7046C31.7824 21.1916 31.5 20.5099 31.5 19.7843V11.7157C31.5 10.9901 31.7824 10.3084 32.2954 9.79537L30.7046 8.2035C30.1567 8.75137 29.7731 9.41175 29.5312 10.125H15.75C15.129 10.125 14.625 9.61987 14.625 9C14.625 8.38013 15.129 7.875 15.75 7.875H24.75H33.2843L34.3519 8.94375C35.8402 10.431 37.818 11.25 39.9206 11.25H41.625V9H39.9206C38.4188 9 37.0057 8.415 35.9426 7.353L34.2157 5.625H33.75H24.75C23.5091 5.625 22.5 4.61588 22.5 3.375H40.0252C41.5856 3.375 43.0954 3.83288 44.3936 4.698L48.375 7.35187V19.6481L44.3936 22.302ZM50.625 21.375V5.625C50.625 5.00513 51.129 4.5 51.75 4.5H56.25C56.871 4.5 57.375 5.00513 57.375 5.625V21.375C57.375 21.9949 56.871 22.5 56.25 22.5H51.75C51.129 22.5 50.625 21.9949 50.625 21.375Z" fill="#444444"/>
<path d="M19.125 50.625C19.746 50.625 20.25 51.129 20.25 51.75H22.5C22.5 49.8892 20.9858 48.375 19.125 48.375V46.125H16.875V48.375H13.5V51.75C13.5 53.6108 15.0142 55.125 16.875 55.125H19.125C19.746 55.125 20.25 55.629 20.25 56.25V57.375H16.875C16.254 57.375 15.75 56.871 15.75 56.25H13.5C13.5 58.1108 15.0142 59.625 16.875 59.625V61.875H19.125V59.625H22.5V56.25C22.5 54.3892 20.9858 52.875 19.125 52.875H16.875C16.254 52.875 15.75 52.371 15.75 51.75V50.625H19.125Z" fill="#444444"/>
</svg>
