<svg width="72" height="72" viewBox="0 0 72 72" fill="none" xmlns="http://www.w3.org/2000/svg">
<path d="M7.47375 60.4342C10.3158 61.2183 12.5398 63.2914 13.3833 65.943C13.5683 66.5218 14.1387 66.9184 14.7857 66.9185C14.8617 66.9141 14.937 66.9035 15.0112 66.8871C15.0768 66.9045 15.144 66.9173 15.2117 66.9254H50.3443C50.4046 66.918 50.4643 66.9066 50.5229 66.8912C51.2542 67.0572 51.9913 66.6386 52.1693 65.956C52.1699 65.9534 52.1706 65.951 52.1712 65.9485C53.0125 63.2942 55.2368 61.2181 58.0807 60.4328C58.7704 60.2361 59.199 59.5946 59.085 58.93C59.1045 58.8637 59.1186 58.7961 59.1274 58.7278V47.7976C59.1188 47.7291 59.1042 47.6615 59.0835 47.5954C59.1982 46.9305 58.7695 46.2887 58.0793 46.0925C55.2354 45.3074 53.0116 43.2305 52.1726 40.5755C51.9607 39.9274 51.2667 39.5264 50.5507 39.6383C50.483 39.6207 50.414 39.6079 50.3443 39.6H15.2117C15.138 39.6082 15.0649 39.6219 14.9936 39.641C14.2816 39.5351 13.5947 39.9349 13.3833 40.5783C12.5414 43.2321 10.3173 45.3074 7.47375 46.0925C6.78409 46.2892 6.35555 46.9307 6.46955 47.5954C6.45052 47.6618 6.43679 47.7293 6.42856 47.7976V58.7278C6.43698 58.792 6.4507 58.8555 6.46955 58.9177C6.34951 59.5866 6.77897 60.2353 7.47375 60.4342ZM9.35627 48.3523C12.2957 47.2504 14.6254 45.076 15.806 42.3325H49.7485C50.9296 45.076 53.2599 47.2504 56.1997 48.3523V58.173C53.2612 59.2761 50.9318 61.4502 49.7499 64.1928H15.806C14.6241 61.4502 12.2948 59.2761 9.35627 58.173V48.3523Z" fill="#444444"/>
<path d="M32.7781 61.4602C37.6289 61.4602 41.5612 57.7901 41.5612 53.2626C41.5612 48.7352 37.6289 45.065 32.7781 45.065C27.9272 45.065 23.9949 48.7352 23.9949 53.2626C23.9997 57.7882 27.9292 61.4558 32.7781 61.4602ZM32.7781 47.7976C36.0119 47.7976 38.6335 50.2444 38.6335 53.2626C38.6335 56.2809 36.0119 58.7277 32.7781 58.7277C29.5442 58.7277 26.9226 56.2809 26.9226 53.2626C26.9226 50.2444 29.5442 47.7976 32.7781 47.7976Z" fill="#444444"/>
<path d="M16.6756 55.3121C17.8882 55.3121 18.8714 54.3945 18.8714 53.2627C18.8714 52.1309 17.8882 51.2133 16.6756 51.2133C15.463 51.2133 14.4798 52.1309 14.4798 53.2627C14.4798 54.3946 15.463 55.3121 16.6756 55.3121ZM16.6756 52.5796C17.0798 52.5796 17.4075 52.8854 17.4075 53.2627C17.4075 53.6399 17.0798 53.9458 16.6756 53.9458C16.2714 53.9458 15.9437 53.6399 15.9437 53.2627C15.9437 52.8854 16.2714 52.5796 16.6756 52.5796Z" fill="#444444"/>
<path d="M48.8805 55.3121C50.0931 55.3121 51.0763 54.3945 51.0763 53.2627C51.0763 52.1309 50.0931 51.2133 48.8805 51.2133C47.6679 51.2133 46.6847 52.1309 46.6847 53.2627C46.6847 54.3946 47.6679 55.3121 48.8805 55.3121ZM48.8805 52.5796C49.2847 52.5796 49.6124 52.8854 49.6124 53.2627C49.6124 53.6399 49.2847 53.9458 48.8805 53.9458C48.4763 53.9458 48.1486 53.6399 48.1486 53.2627C48.1486 52.8854 48.4763 52.5796 48.8805 52.5796Z" fill="#444444"/>
<path fill-rule="evenodd" clip-rule="evenodd" d="M2 33.6C0.895431 33.6 0 34.4954 0 35.6V70C0 71.1046 0.895431 72 2 72H62.2857C63.3903 72 64.2857 71.1046 64.2857 70V35.6C64.2857 34.4954 63.3903 33.6 62.2857 33.6H2ZM61.7143 36H2.57144V69.6H61.7143V36Z" fill="#444444"/>
<path d="M66.7976 20.0725C65.2534 17.9792 64.4657 16.4086 64.2557 13.7951C64.0985 11.842 64.9782 9.58656 64.9782 9.58656C63.8879 10.2643 63.8758 10.1917 63.156 10.7468C59.4099 13.6367 58.431 16.5288 58.3165 16.9027C58.3086 16.9292 58.3041 16.9445 58.3041 16.9445L58.3165 16.9027C58.3165 16.9027 61.2444 6.21168 53.0938 1.23324C52.4174 0.8202 50.8572 0 50.8572 0C50.8572 0 54.9039 9.25968 47.6584 14.7529C46.2323 9.3204 38.7034 9.25356 38.7034 9.25356C38.7034 9.25356 39.282 11.1463 39.375 11.594C40.5951 17.4979 36.8553 19.3662 36.0957 24.9473C36.1824 24.3067 36.1479 24.5617 36.0952 24.9508C36.095 24.9521 36.0947 24.9535 36.0947 24.955C36.0948 24.9542 36.0948 24.9538 36.095 24.953C36.0947 24.9547 36.0946 24.9563 36.0945 24.9577C35.5016 29.339 37.7385 32.7324 41.176 35.022C41.3364 33.4756 42.0157 31.9415 42.9597 30.6614C44.028 29.2134 44.5731 28.1268 44.7177 26.319C44.8257 24.9678 44.218 23.4073 44.218 23.4073C44.9712 23.8766 44.9807 23.8265 45.4784 24.2104C47.5837 25.8344 48.4255 27.4597 48.7098 28.1509C48.7193 28.1455 48.729 28.1402 48.7393 28.135C48.3802 26.6221 47.368 20.7268 52.4392 17.6292C52.9068 17.344 53.9863 16.7765 53.9863 16.7765C53.9863 16.7765 51.1146 22.6373 57.4369 27.3978C57.2958 25.4495 58.0921 23.6506 59.5824 22.2644C60.392 21.512 61.851 21.1505 61.851 21.1505C61.851 21.1505 61.4503 22.4606 61.3863 22.77C60.5421 26.8552 64.2166 30.0317 63.4316 33.9012C63.2844 34.6265 63.0735 35.3304 62.7795 35.9999H63.1305C64.9942 35.071 66.7239 33.8629 67.9084 32.2054C70.6037 28.434 69.3924 23.59 66.7976 20.0725Z" fill="#444444"/>
</svg>
