<svg width="72" height="72" viewBox="0 0 72 72" fill="none" xmlns="http://www.w3.org/2000/svg">
<path d="M67.3247 39.9282L53.1486 23.0753C55.1571 22.2748 56.5311 20.6775 56.5311 18.8405C56.5311 16.8299 54.8852 15.1063 52.5622 14.4007L56.8567 3.01447C57.042 2.52323 56.8613 1.99459 56.3851 1.6333C53.5283 -0.533014 48.8803 -0.533014 46.0236 1.6333C45.3402 2.15154 44.4317 2.43688 43.4653 2.43688C42.499 2.43688 41.5905 2.15154 40.9029 1.62993L40.8938 1.62304C38.0472 -0.535968 33.4072 -0.542015 30.5491 1.61024L30.4959 1.65046C29.0852 2.71267 26.794 2.70957 25.3885 1.64357L25.375 1.6333C22.5182 -0.533014 17.8702 -0.533014 15.0134 1.6333C14.5368 1.99487 14.3564 2.52394 14.542 3.01545L18.8458 14.398C16.5178 15.1018 14.8675 16.8272 14.8675 18.8407C14.8675 20.6776 16.2413 22.2749 18.25 23.0754L4.07364 39.9282C-1.41072 46.448 -1.75824 54.389 3.144 61.1702C8.04625 67.9514 17.0611 72 27.2589 72H44.1393C54.3369 72 63.3517 67.9514 68.2542 61.1702C73.1564 54.389 72.8091 46.448 67.3247 39.9282V39.9282ZM22.7522 3.62214L22.7658 3.63241C25.6127 5.79127 30.2526 5.79718 33.1105 3.64521L33.1637 3.60499C34.5742 2.54278 36.8654 2.54587 38.2753 3.61511L38.2844 3.622C41.1412 5.78832 45.7892 5.78832 48.6459 3.622C49.8083 2.74051 51.5713 2.58539 52.9451 3.15665L48.8334 14.059H22.5762L18.4538 3.15651C19.8276 2.58539 21.59 2.74079 22.7522 3.62214V3.62214ZM65.002 59.8182C60.7609 65.6848 52.9618 69.1875 44.1394 69.1875H27.2591C18.4367 69.1875 10.6377 65.685 6.39653 59.8182C2.15539 53.9515 2.456 47.0816 7.20062 41.4409L22.1892 23.6221H27.3542C28.3785 23.6221 29.2087 22.9924 29.2087 22.2157C29.2087 21.439 28.3785 20.8094 27.3542 20.8094H21.1726C19.741 20.8094 18.5764 19.9262 18.5764 18.8405C18.5764 17.7548 19.741 16.8716 21.1726 16.8716H21.1787H50.2257C51.6574 16.8716 52.822 17.7548 52.822 18.8405C52.822 19.9262 51.6574 20.8094 50.2257 20.8094H44.0443C43.0201 20.8094 42.1898 21.439 42.1898 22.2157C42.1898 22.9924 43.0201 23.6221 44.0443 23.6221H49.2091L64.1979 41.4409C68.9425 47.0814 69.2431 53.9514 65.002 59.8182Z" fill="#444444"/>
<path d="M38.9687 45.9279C38.5034 45.8032 38.0285 45.6734 37.5537 45.5385V39.1647C38.811 39.4453 39.6507 39.9003 39.6863 39.9199C40.5021 40.3833 41.6595 40.2604 42.2759 39.6435C42.8944 39.0244 42.734 38.1423 41.9176 37.6732C41.8088 37.6106 40.0845 36.6399 37.5537 36.2725V34.8729C37.5537 34.0962 36.7235 33.4666 35.6993 33.4666C34.6751 33.4666 33.8448 34.0962 33.8448 34.8729V36.2623C33.5307 36.3081 33.2123 36.3659 32.8896 36.4394C30.2796 37.0341 28.3288 38.7268 27.7982 40.8568C27.314 42.8018 28.1357 44.6777 29.9427 45.7524C30.9233 46.3356 32.1486 46.8682 33.8448 47.4338V55.59C32.3844 55.52 31.4075 55.268 29.7789 54.46C28.922 54.0346 27.7724 54.217 27.2118 54.867C26.651 55.517 26.8914 56.3885 27.7485 56.8138C30.1233 57.9919 31.7313 58.3256 33.8448 58.4045V59.8588C33.8448 60.6355 34.6751 61.2651 35.6993 61.2651C36.7235 61.2651 37.5537 60.6355 37.5537 59.8588V58.2584C41.5248 57.5988 43.8474 55.0859 44.3685 52.735C45.0496 49.6616 42.9301 46.9897 38.9687 45.9279ZM32.2316 43.5391C31.5188 43.1151 31.2165 42.2872 31.4427 41.3786C31.6508 40.5429 32.3922 39.5353 33.8448 39.1625V44.3129C33.2351 44.0664 32.6849 43.8087 32.2316 43.5391ZM40.7107 52.2685C40.4437 53.4731 39.3716 54.7506 37.5535 55.3151V48.5311C37.614 48.5474 37.6713 48.5633 37.7325 48.5797C41.0573 49.4709 40.8528 51.6285 40.7107 52.2685V52.2685Z" fill="#444444"/>
<path d="M35.6993 23.6221C36.187 23.6221 36.6654 23.4716 37.0104 23.21C37.3553 22.9484 37.5537 22.5856 37.5537 22.2157C37.5537 21.8459 37.3553 21.483 37.0104 21.2214C36.6654 20.9599 36.187 20.8094 35.6993 20.8094C35.2116 20.8094 34.7331 20.9599 34.3882 21.2214C34.0433 21.483 33.8448 21.8459 33.8448 22.2157C33.8448 22.5856 34.0433 22.9484 34.3882 23.21C34.7331 23.4716 35.2114 23.6221 35.6993 23.6221Z" fill="#444444"/>
</svg>
