<svg width="33" height="33" viewBox="0 0 33 33" fill="none" xmlns="http://www.w3.org/2000/svg">
<path fill-rule="evenodd" clip-rule="evenodd" d="M21.7979 22.77C19.4837 24.8559 16.4202 26.125 13.0625 26.125C5.85337 26.125 0 20.2716 0 13.0625C0 5.85337 5.85337 0 13.0625 0C20.2716 0 26.125 5.85337 26.125 13.0625C26.125 16.4202 24.8559 19.4837 22.77 21.7979L33 32.0279L32.0279 33L21.7979 22.77ZM13.0625 1.375C19.5126 1.375 24.75 6.61238 24.75 13.0625C24.75 19.5126 19.5126 24.75 13.0625 24.75C6.61238 24.75 1.375 19.5126 1.375 13.0625C1.375 6.61238 6.61238 1.375 13.0625 1.375Z" fill="black"/>
</svg>
