<svg width="40" height="40" viewBox="0 0 40 40" fill="none" xmlns="http://www.w3.org/2000/svg">
<g clip-path="url(#clip0)">
<path fill-rule="evenodd" clip-rule="evenodd" d="M20 14.4433C16.9367 14.4433 14.445 16.9367 14.445 20C14.445 23.0633 16.9367 25.555 20 25.555C23.0633 25.555 25.555 23.0633 25.555 20C25.555 16.9367 23.0633 14.4433 20 14.4433ZM20 27.2217C16.0167 27.2217 12.7783 23.9833 12.7783 20C12.7783 16.0167 16.0167 12.7767 20 12.7767C23.9833 12.7767 27.2217 16.0167 27.2217 20C27.2217 23.9833 23.9833 27.2217 20 27.2217ZM18.0117 38.3333H21.9883C22.62 36.4933 23.1017 34.2483 25.5 33.25C27.9933 32.2217 29.9433 33.5767 31.5583 34.37L34.3683 31.5567C33.5217 29.8117 32.2583 27.8917 33.2533 25.4883C34.1983 23.2067 36.1517 22.7167 38.3333 21.99V18.01C36.275 17.3083 34.215 16.83 33.255 14.5133C32.3017 12.2133 33.35 10.5217 34.37 8.44167L31.5583 5.63167C29.6967 6.54333 27.8567 7.72667 25.4883 6.745C23.1983 5.79333 22.7283 3.855 21.9883 1.66667H18.0117C17.305 3.71833 16.8383 5.78 14.5133 6.74333C13.905 6.99833 13.3167 7.12 12.7183 7.12C11.3133 7.12 10.1533 6.46667 8.44167 5.63167L5.63 8.44167C6.58667 10.4 7.715 12.17 6.745 14.5133C5.79333 16.805 3.855 17.27 1.66667 18.01V21.99C3.71 22.6867 5.78 23.165 6.745 25.4867C7.71333 27.825 6.62 29.54 5.63 31.5583L8.44167 34.37C10.8583 33.1617 12.3667 32.3633 14.5117 33.255C16.8083 34.2083 17.27 36.1517 18.0117 38.3333ZM23.1683 40H16.83C15.695 36.8033 15.5217 35.4783 13.875 34.795C12.2 34.0967 10.99 35.015 8.09833 36.3817L3.61667 31.9C5.07167 28.8383 5.895 27.7917 5.205 26.125C4.51833 24.4733 3.21833 24.3133 0 23.17V16.83C3.17667 15.7 4.52 15.5267 5.205 13.875C5.89 12.2233 5.08667 11.1867 3.61667 8.09833L8.09833 3.61833C11 4.99833 12.2083 5.89333 13.8733 5.20667C15.5267 4.52 15.6767 3.23167 16.8317 0H23.1683C24.305 3.19667 24.4817 4.52333 26.125 5.205C27.7933 5.89833 28.9733 5.00667 31.9033 3.61833L36.3817 8.09833C34.9183 11.1767 34.1133 12.2267 34.795 13.8733C35.48 15.5267 36.7817 15.685 40 16.83V23.1717C36.8233 24.3 35.4783 24.475 34.7933 26.1267C34.1217 27.7517 34.8667 28.7283 36.3833 31.9L31.9033 36.3817C29.0233 35.015 27.7917 34.0983 26.1433 34.79C24.4967 35.4733 24.3433 36.7 23.1683 40Z" fill="white"/>
</g>
<defs>
<clipPath id="clip0">
<rect width="40" height="40" fill="white"/>
</clipPath>
</defs>
</svg>
