<svg width="44" height="44" viewBox="0 0 44 44" fill="none" xmlns="http://www.w3.org/2000/svg">
<path d="M3.21751 4.58333C2.86917 5.01417 2.84167 5.10583 2.84167 5.60083C2.84167 6.11416 2.86917 6.16916 3.21751 6.55416L3.60251 6.96667L5.12417 6.9575C7.05834 6.9575 7.41584 6.89333 7.91084 6.49916C8.28667 6.19666 8.30501 6.1875 9.23084 6.1875C9.80834 6.1875 10.2025 6.22416 10.2667 6.28833C10.395 6.41666 10.5875 7.16833 13.7592 19.525C15.07 24.64 16.1517 28.8567 16.1608 28.8842C16.17 28.9208 16.5092 28.8475 16.9033 28.7283C17.3067 28.6092 17.765 28.5083 17.93 28.5083C18.095 28.5083 18.2508 28.4717 18.2783 28.435C18.3242 28.3525 17.3525 24.4658 14.135 11.9167L12.3108 4.8125L10.2117 4.76666L8.11251 4.72083L7.65418 4.455C7.20501 4.18917 7.19584 4.18917 5.39917 4.14333L3.60251 4.0975L3.21751 4.58333Z" fill="white"/>
<path d="M25.8042 9.80833C23.6867 10.4133 20.9 11.1925 19.6167 11.5592C17.6459 12.1092 16.8759 12.3658 16.7017 12.5125C16.665 12.5492 18.3792 19.1217 18.6267 19.8917C18.7275 20.2217 18.8467 20.5242 18.8834 20.5608C18.9567 20.6433 24.3742 19.1858 28.985 17.8475L31.9 17.0042V16.7017C31.9 16.4175 30.1859 9.48749 29.9842 8.94666C29.9292 8.81833 29.8375 8.70833 29.7734 8.71749C29.7092 8.71749 27.9217 9.21249 25.8042 9.80833ZM29.7275 13.09C30.1675 14.685 30.525 16.0692 30.525 16.1517C30.525 16.2342 30.4517 16.3258 30.3692 16.3533C29.6267 16.5733 27.6834 17.0958 26.6292 17.3617C24.6309 17.8658 22.9809 18.3058 22.1559 18.5533C20.8084 18.9567 19.9925 19.1125 19.8734 18.9933C19.8184 18.9383 19.5525 18.0308 19.2775 16.9858C18.48 13.9058 18.315 13.1817 18.3792 13.1267C18.425 13.0717 28.6092 10.2025 28.8292 10.1842C28.8842 10.1842 29.2784 11.4858 29.7275 13.09Z" fill="white"/>
<path d="M36.2542 17.3983C29.15 19.3875 19.3142 22.1833 19.2775 22.22C19.2133 22.2842 19.415 23.1458 20.185 26.1525L20.8358 28.6917L21.2575 28.9117C21.4867 29.0217 21.945 29.2967 22.275 29.5075C22.5958 29.7183 22.9533 29.9108 23.0633 29.9383C23.1733 29.9658 24.8325 29.5442 26.8675 28.9758C28.8567 28.4258 32.7067 27.3533 35.4292 26.5925C41.1767 24.9883 41.0758 25.025 41.1308 24.8783C41.1767 24.75 39.2883 17.2058 39.1233 16.8575L39.0042 16.6283L36.2542 17.3983ZM38.7017 19.2042C39.6825 23.0267 39.9483 24.1633 39.8933 24.2092C39.8567 24.2367 39.2333 24.42 38.5 24.6033C37.7667 24.7867 36.3917 25.135 35.4292 25.3825C22.7333 28.6458 23.265 28.5175 23.1092 28.38C23.0267 28.2975 22.7608 28.1508 22.5225 28.05C22.275 27.94 22.0458 27.7658 22 27.6558C21.8808 27.3808 20.6983 22.7242 20.735 22.6875C20.7533 22.6692 25.41 21.45 26.3083 21.23C26.5008 21.1842 37.0792 18.4525 37.9042 18.2417C38.3992 18.1042 38.4267 18.1408 38.7017 19.2042Z" fill="white"/>
<path d="M37.8583 28.2975C35.53 28.9483 25.96 31.6525 24.9517 31.9458C24.5117 32.0742 24.475 32.1108 24.53 32.2942C24.5667 32.4042 24.7042 32.89 24.8417 33.3667C25.0434 34.1183 25.1075 34.2375 25.2542 34.21C25.52 34.1642 35.1542 31.4967 38.2892 30.5983C40.48 29.975 40.975 29.81 40.975 29.6817C40.975 29.4983 40.4617 27.8667 40.3608 27.7292C40.315 27.665 39.4625 27.8575 37.8583 28.2975Z" fill="white"/>
<path d="M17.4992 30.0117C16.39 30.3233 15.1983 31.405 14.5658 32.6792C14.19 33.44 14.1625 33.5317 14.135 34.43C14.0617 36.2908 14.41 37.2625 15.5742 38.4175C16.06 38.9033 16.4633 39.2058 16.9033 39.4258C17.5175 39.7192 17.5908 39.7375 18.7825 39.765L20.0292 39.8017L20.7625 39.4258C22.3667 38.6192 23.43 37.07 23.6133 35.2458C23.8517 32.8992 22.055 30.4058 19.8092 29.975C19.1583 29.8558 18.0217 29.8742 17.4992 30.0117ZM19.9375 31.7625C20.8633 32.1567 21.5783 32.9633 21.8533 33.9075C22.5683 36.3917 20.2583 38.7292 17.8292 37.9958C17.1967 37.8125 16.4725 37.2808 16.0967 36.7308C14.7675 34.7508 15.7667 32.1842 18.1042 31.5883C18.4433 31.5058 19.5708 31.6067 19.9375 31.7625Z" fill="white"/>
</svg>
