<svg width="41" height="40" viewBox="0 0 41 40" fill="none" xmlns="http://www.w3.org/2000/svg">
<path d="M1.23429 0.345949C0.870403 0.828619 0.841675 0.931315 0.841675 1.48587C0.841675 2.06097 0.870403 2.12259 1.23429 2.55391L1.63649 3.01604L3.22611 3.00577C5.24666 3.00577 5.62012 2.93388 6.13723 2.49229C6.52985 2.15339 6.549 2.14312 7.51618 2.14312C8.11947 2.14312 8.53124 2.1842 8.59827 2.25609C8.73234 2.39986 8.93343 3.24197 12.2467 17.0854C13.6161 22.8158 14.7461 27.5398 14.7557 27.5706C14.7652 27.6117 15.1196 27.5295 15.5313 27.396C15.9527 27.2625 16.4315 27.1495 16.6038 27.1495C16.7762 27.1495 16.939 27.1085 16.9677 27.0674C17.0156 26.975 16.0006 22.6207 12.6394 8.56161L10.7337 0.602689L8.54082 0.551341L6.3479 0.499993L5.8691 0.202175C5.39987 -0.0956427 5.3903 -0.0956427 3.51339 -0.146991L1.63649 -0.198338L1.23429 0.345949Z" fill="white"/>
<path d="M24.8297 6.19959C22.6176 6.87739 19.7065 7.7503 18.3659 8.16108C16.307 8.77726 15.5026 9.06481 15.3207 9.22912C15.2824 9.2702 17.0731 16.6335 17.3316 17.4961C17.437 17.8658 17.5615 18.2047 17.5998 18.2458C17.6764 18.3382 23.3358 16.7054 28.1526 15.206L31.1978 14.2612V13.9223C31.1978 13.604 29.407 5.84016 29.1964 5.23425C29.1389 5.09048 29.0432 4.96725 28.9761 4.97751C28.9091 4.97751 27.0418 5.53207 24.8297 6.19959ZM28.9282 9.8761C29.3879 11.663 29.7614 13.2137 29.7614 13.3061C29.7614 13.3986 29.6847 13.5013 29.5986 13.5321C28.8229 13.7785 26.7928 14.3639 25.6915 14.6617C23.604 15.2266 21.8803 15.7195 21.0184 15.9968C19.6107 16.4486 18.7585 16.6232 18.634 16.4897C18.5765 16.4281 18.2988 15.4114 18.0115 14.2407C17.1784 10.7901 17.0061 9.9788 17.0731 9.91718C17.121 9.85556 27.76 6.64119 27.9898 6.62065C28.0472 6.62065 28.459 8.07893 28.9282 9.8761Z" fill="white"/>
<path d="M35.7464 14.7028C28.3249 16.9313 18.0498 20.0635 18.0115 20.1046C17.9445 20.1765 18.1551 21.1418 18.9595 24.5103L19.6394 27.3549L20.0799 27.6014C20.3193 27.7246 20.7981 28.0327 21.1429 28.2689C21.478 28.5051 21.8515 28.7208 21.9664 28.7516C22.0813 28.7824 23.8146 28.31 25.9405 27.6733C28.0185 27.0571 32.0404 25.8556 34.8845 25.0032C40.8887 23.206 40.7834 23.2471 40.8408 23.0828C40.8887 22.939 38.916 14.4871 38.7437 14.0969L38.6192 13.8402L35.7464 14.7028ZM38.3032 16.7259C39.3278 21.0083 39.6055 22.2818 39.5481 22.3331C39.5097 22.3639 38.8586 22.5693 38.0925 22.7747C37.3264 22.9801 35.89 23.3703 34.8845 23.6476C21.6217 27.3036 22.1771 27.1598 22.0143 27.0058C21.9281 26.9133 21.6504 26.749 21.4014 26.6361C21.1429 26.5128 20.9035 26.3177 20.8556 26.1945C20.7311 25.8864 19.4958 20.6694 19.5341 20.6284C19.5533 20.6078 24.4179 19.242 25.3563 18.9955C25.5574 18.9441 36.6082 15.8838 37.47 15.6476C37.9872 15.4936 38.0159 15.5346 38.3032 16.7259Z" fill="white"/>
<path d="M37.4222 26.9133C34.9899 27.6425 24.9925 30.672 23.9391 31.0006C23.4795 31.1444 23.4412 31.1855 23.4986 31.3909C23.5369 31.5141 23.6806 32.0584 23.8242 32.5924C24.0349 33.4345 24.1019 33.568 24.2551 33.5372C24.5328 33.4859 34.5972 30.4974 37.8723 29.491C40.1609 28.7927 40.678 28.6078 40.678 28.464C40.678 28.2587 40.1418 26.4307 40.0364 26.2766C39.9886 26.2047 39.098 26.4204 37.4222 26.9133Z" fill="white"/>
<path d="M16.1538 28.8337C14.9951 29.1829 13.7502 30.3947 13.0894 31.8222C12.6968 32.6746 12.6681 32.7773 12.6393 33.7837C12.5627 35.8684 12.9266 36.957 14.1428 38.251C14.6503 38.7952 15.0717 39.1341 15.5313 39.3806C16.1729 39.7092 16.2495 39.7298 17.4944 39.7606L18.7967 39.8017L19.5628 39.3806C21.2386 38.4769 22.3495 36.7413 22.541 34.6977C22.79 32.0687 20.9131 29.2753 18.5669 28.7927C17.887 28.6592 16.6996 28.6797 16.1538 28.8337ZM18.701 30.7952C19.6682 31.2368 20.4151 32.1406 20.7024 33.1983C21.4493 35.9814 19.0362 38.6001 16.4985 37.7786C15.8377 37.5732 15.0812 36.9775 14.6886 36.3614C13.3001 34.1431 14.3439 31.2676 16.7858 30.6001C17.1401 30.5077 18.3179 30.6207 18.701 30.7952Z" fill="white"/>
</svg>
