<svg width="48" height="48" viewBox="0 0 48 48" fill="none" xmlns="http://www.w3.org/2000/svg">
<path fill-rule="evenodd" clip-rule="evenodd" d="M24 0C37.246 0 48 10.754 48 24C48 37.246 37.246 48 24 48C10.754 48 0 37.246 0 24C0 10.754 10.754 0 24 0ZM40.254 38.82C39.69 38.018 38.71 37.512 37.006 37.12C29.31 35.308 28.812 34.118 28.302 33.002C27.784 31.872 27.922 30.542 28.712 29.048C32.164 22.534 32.892 17 30.766 13.468C29.418 11.23 27.016 10 24 10C20.958 10 18.536 11.252 17.182 13.526C15.05 17.104 15.796 22.614 19.28 29.04C20.084 30.524 20.232 31.852 19.72 32.988C19.19 34.16 18.498 35.368 10.99 37.12C9.286 37.512 8.306 38.018 7.744 38.816C11.768 43.23 17.564 46 24 46C30.436 46 36.23 43.23 40.254 38.82ZM41.554 37.256C44.344 33.568 46 28.976 46 24C46 11.858 36.142 2 24 2C11.858 2 2 11.858 2 24C2 28.974 3.654 33.566 6.444 37.252C7.262 36.348 8.542 35.632 10.542 35.17C14.592 34.246 17.294 33.498 17.898 32.166C18.142 31.622 18.02 30.91 17.522 29.992C13.688 22.922 12.958 16.71 15.462 12.502C17.168 9.64 20.278 8 24 8C27.69 8 30.782 9.616 32.48 12.436C34.982 16.594 34.272 22.826 30.48 29.984C29.99 30.91 29.872 31.626 30.122 32.172C30.732 33.508 33.41 34.248 37.456 35.17C39.456 35.63 40.736 36.35 41.554 37.256Z" fill="black"/>
</svg>
